<?xml version="1.0" encoding="UTF-8" standalone="no"?>
<!-- Created with Inkscape (http://www.inkscape.org/) -->

<svg
   xmlns:dc="http://purl.org/dc/elements/1.1/"
   xmlns:cc="http://creativecommons.org/ns#"
   xmlns:rdf="http://www.w3.org/1999/02/22-rdf-syntax-ns#"
   xmlns:svg="http://www.w3.org/2000/svg"
   xmlns="http://www.w3.org/2000/svg"
   xmlns:sodipodi="http://sodipodi.sourceforge.net/DTD/sodipodi-0.dtd"
   xmlns:inkscape="http://www.inkscape.org/namespaces/inkscape"
   width="549.1687mm"
   height="392.57483mm"
   viewBox="0 0 1945.8733 1391.0131"
   id="svg4722"
   version="1.1"
   inkscape:version="0.91 r13725"
   sodipodi:docname="logo.svg"
   inkscape:export-filename="C:\xampp\htdocs\Walkland\logo.png"
   inkscape:export-xdpi="90"
   inkscape:export-ydpi="90">
  <defs
     id="defs4724">
    <filter
       style="color-interpolation-filters:sRGB"
       inkscape:label="Drop Shadow"
       id="filter6297">
      <feFlood
         flood-opacity="0.498039"
         flood-color="rgb(0,0,0)"
         result="flood"
         id="feFlood6299" />
      <feComposite
         in="flood"
         in2="SourceGraphic"
         operator="in"
         result="composite1"
         id="feComposite6301" />
      <feGaussianBlur
         in="composite1"
         stdDeviation="3"
         result="blur"
         id="feGaussianBlur6303" />
      <feOffset
         dx="2"
         dy="2"
         result="offset"
         id="feOffset6305" />
      <feComposite
         in="SourceGraphic"
         in2="offset"
         operator="over"
         result="composite2"
         id="feComposite6307" />
    </filter>
  </defs>
  <sodipodi:namedview
     id="base"
     pagecolor="#ffffff"
     bordercolor="#666666"
     borderopacity="1.0"
     inkscape:pageopacity="0.0"
     inkscape:pageshadow="2"
     inkscape:zoom="0.35"
     inkscape:cx="662.18701"
     inkscape:cy="573.32917"
     inkscape:document-units="px"
     inkscape:current-layer="layer1"
     showgrid="false"
     fit-margin-top="0"
     fit-margin-left="0"
     fit-margin-right="0"
     fit-margin-bottom="0"
     inkscape:window-width="1440"
     inkscape:window-height="837"
     inkscape:window-x="-8"
     inkscape:window-y="-8"
     inkscape:window-maximized="1" />
  <metadata
     id="metadata4727">
    <rdf:RDF>
      <cc:Work
         rdf:about="">
        <dc:format>image/svg+xml</dc:format>
        <dc:type
           rdf:resource="http://purl.org/dc/dcmitype/StillImage" />
        <dc:title></dc:title>
      </cc:Work>
    </rdf:RDF>
  </metadata>
  <g
     inkscape:label="Layer 1"
     inkscape:groupmode="layer"
     id="layer1"
     transform="translate(372.46532,1273.9544)">
    <path
       style="font-style:normal;font-variant:normal;font-weight:normal;font-stretch:normal;font-size:211.24569702px;line-height:125%;font-family:Gnuolane;-inkscape-font-specification:Gnuolane;letter-spacing:0px;word-spacing:0px;fill:#ffffff;fill-opacity:1;stroke:none;stroke-width:1px;stroke-linecap:butt;stroke-linejoin:miter;stroke-opacity:1"
       d="m -372.25531,-1273.9199 212.02588,727.65112 c 6.95485,3.7493 10.07813,1.79109 15.47926,-7.5436 6.8803,-11.89665 6.47023,-13.05315 -2.78092,-7.59888 -6.58848,3.88214 -11.88164,2.1039 -13.39379,-4.50472 -1.37546,-6.00275 -0.29994,-11.09109 2.301,-11.32976 2.63095,-0.25709 10.09784,-1.92392 16.5972,-3.73217 9.4821,-2.63522 9.42125,-4.11351 -0.25709,-7.43346 -9.76447,-3.34225 -10.26367,-9.80219 -2.60095,-33.65761 5.2139,-16.23127 12.30243,-27.82497 15.72136,-25.78192 3.41937,2.04818 5.31116,-0.12861 4.23351,-4.83596 -1.07981,-4.7087 1.77823,-9.29527 6.34938,-10.16982 6.62492,-1.26406 14.0721,33.62118 9.03989,42.33542 -0.6813,1.18691 -1.39259,5.61795 -1.57255,9.86473 -0.12861,4.24636 -0.82699,8.69239 -1.4483,9.86517 -0.62132,1.17406 -0.29996,11.69183 0.62988,23.40637 0.97267,11.71368 -1.1955,26.4555 -4.83725,32.74533 -4.89209,8.45886 -3.67217,11.94249 4.65599,13.37495 8.39758,1.4483 8.1752,5.40199 -0.87841,15.55768 -11.42187,12.81662 -11.27061,13.60504 2.47668,13.40278 13.922988,-0.21423 14.084964,0.54848 3.50507,15.33658 -6.10901,8.54071 -7.2398,14.77783 -2.51525,13.87243 13.746022,-2.63095 14.632998,18.60854 1.26834,30.36892 -10.37807,9.13459 -9.5648,9.51252 5.50226,2.42956 28.293741,-13.29611 23.12613,16.13613 -6.74189,38.41085 -3.27796,2.44241 -4.76396,3.72788 -7.04441,5.49884 l 1.14408,4.00639 c 5.04935,-2.39526 12.02606,-5.89561 21.193209,-10.58331 14.522435,-7.42577 17.595156,-6.54478 17.625997,5.13932 0.03133,7.7737 -5.591814,14.83867 -12.516239,15.69609 -6.924004,0.85699 -11.551707,6.11029 -10.279093,11.66184 1.478303,6.44837 7.275796,7.5393 16.053879,3.00801 19.887154,-10.25681 22.354845,11.53885 3.449352,30.36892 l -15.056343,14.97751 0.08569,0.12847 20.619013,-8.92591 c 23.093576,-10.02542 25.816202,-7.34735 17.837257,17.54717 -3.406505,10.62273 -2.720916,14.49502 1.842521,10.52847 13.332094,-11.5817 21.624263,7.3572 10.702862,24.42832 -6.250827,9.77047 -6.870429,16.16828 -1.512567,15.14289 5.099477,-0.97696 10.368208,3.08515 11.730384,9.03605 2.17674,9.51037 -14.38618,25.33071 -31.532714,34.18378 l 2.446696,8.34445 c 1.238334,-0.86983 2.33528,-1.49972 3.599335,-2.42955 34.419449,-25.34528 37.048681,-26.20655 40.089257,-12.93273 2.682359,11.69396 -21.292611,35.06647 -36.854152,38.82563 l 2.510959,8.64868 c 4.592146,1.04123 7.990516,-0.77986 11.942065,-6.30055 9.6505,-13.49277 27.869114,-17.27979 30.384785,-6.30011 1.9025075,8.31874 -10.910685,25.17861 -33.196541,43.60632 -0.0154,0.0137 -0.0308,0.03 -0.08569,0.0857 l 2.66093,9.20186 c 8.709527,-3.64647 15.537109,-9.85145 16.900996,-17.57545 2.506681,-14.19508 25.8196377,-19.00104 28.8117851,-5.94104 3.3679493,14.70841 -21.2099051,42.10918 -33.9823971,37.88639 -6.821579,-2.25815 -8.265605,-0.99839 -3.779293,3.31653 2.493821,2.39955 2.262434,6.36139 0.214248,10.36264 l 2.476682,8.51113 c 5.987743,-4.65342 13.115701,-10.99038 19.923577,-17.96151 13.6294688,-13.95513 25.276739,-20.76943 28.056363,-16.41467 5.336011,8.35902 -14.3043429,43.044573 -21.8273739,38.548407 -5.2156041,-3.115137 -16.1010031,8.154629 -19.7427521,17.824831 l 2.446683,8.400152 c 1.906785,-1.482581 4.325626,-4.688985 6.771887,-9.422962 4.687699,-9.074599 9.3325517,-13.546339 10.3095133,-9.920442 0.9726704,3.625041 7.4287546,-0.548469 14.3604722,-9.257566 14.9740715,-18.81764 33.3049425,-15.39657 30.9593815,5.775213 -1.15264,10.420063 2.168171,14.275204 10.913687,12.601087 19.216571,-3.67646 19.329697,16.00931 0.128607,33.547478 -11.442448,10.480909 -24.400044,17.046689 -36.854587,19.509659 -8.6293884,1.705398 -16.996549,1.375459 -24.458304,-0.942682 l 6.3181052,21.6375498 C 14.024926,-14.712375 34.512832,-25.349255 60.053511,-41.830334 87.973607,-59.846699 88.38882,-59.892977 87.536555,-44.12705 c -0.475633,8.809791 -0.03344,15.860194 0.968379,15.667802 1.006961,-0.171397 17.959806,-9.084883 37.670426,-19.757328 30.75586,-16.65419 33.46435,-20.003281 19.10732,-23.682312 -15.45014,-3.959264 -70.252097,-36.719602 -71.652828,-42.832892 -1.315472,-5.76407 6.077294,-3.39366 19.258562,6.18999 7.589876,5.51897 25.695796,12.616511 40.240956,15.751357 49.22941,10.61117 66.81042,17.556593 62.15873,24.566291 -2.54525,3.843571 2.40811,1.701112 11.0058,-4.724979 18.85921,-14.106378 48.18047,-20.637878 50.33793,-11.219629 0.86127,3.745018 -6.72861,15.947607 -16.83972,27.136384 -18.34974,20.304512 -18.34888,20.331507 0.25709,10.473196 21.08865,-11.146357 53.19426,-17.35863 62.12874,-12.020908 3.26939,1.953923 0.51418,9.081883 -6.13772,15.834485 -10.58931,10.750431 -8.58568,11.195205 16.11472,3.646465 30.59774,-9.34969 37.35934,-4.347477 19.16858,14.120518 -9.86903,10.018995 -6.97757,10.680586 19.92315,4.670561 21.35175,-4.770399 31.50143,-3.93784 31.56356,2.545241 0.0308,3.483638 3.4965,5.507833 8.73695,6.16214 l 16.77975,-65.326142 c -8.61356,-1.726822 -22.32186,-5.5404 -36.64291,-10.41835 -20.67945,-7.04269 -43.54162,-12.481966 -50.79171,-12.075755 -16.75659,0.938397 -26.42808,-19.441105 -16.99098,-35.757635 8.33503,-14.41104 20.5209,-18.56912 22.97787,-7.84826 0.92554,4.03211 -3.71502,8.37701 -10.34036,9.64406 -6.62234,1.25977 -11.29462,5.60896 -10.37036,9.6445 2.27958,9.94144 11.18878,7.10782 25.69879,-8.15163 10.89912,-11.46344 10.60003,-13.57933 -2.93088,-21.6654 -8.25189,-4.93066 -22.07204,-9.61407 -30.74728,-10.41749 -8.67482,-0.80557 -21.73954,-8.87878 -29.02389,-17.93409 -7.2848,-9.05704 -12.37527,-16.43009 -11.30747,-16.35983 1.07123,0.0857 22.85232,10.00057 48.40329,22.05147 37.2415,17.56474 50.73042,20.24025 68.02564,13.4855 28.22647,-11.02381 32.67163,5.17447 8.6161,31.39217 -20.86455,22.73963 -17.1011,23.50963 11.18665,2.29671 10.46248,-7.84697 24.16393,-15.15532 32.07688,-17.35391 l 14.27093,-55.57154 c -4.59086,1.85537 -9.97101,5.08106 -16.35683,9.97615 -7.58343,5.81207 -14.49372,7.59073 -15.328,3.9507 -0.82698,-3.59505 15.2573,-17.00041 35.7962,-29.92715 l 8.10236,-31.47529 c -16.4618,-5.67152 -37.07483,-18.54341 -38.91005,-26.55578 -1.89822,-8.31103 -1.11409,-8.07921 35.58452,10.28037 2.69093,1.34975 4.36548,2.36528 6.59063,3.56077 l 7.19609,-28.07564 c -5.29016,-0.1714 -9.63591,-1.91107 -14.45217,-5.30559 -21.53513,-15.17289 -33.25652,-28.49641 -21.70739,-24.67684 12.01619,3.97212 4.79954,-26.22798 -8.88864,-37.16738 -5.13075,-4.10066 -7.8324,-11.2539 -5.98602,-15.91717 1.8468,-4.66328 -2.32671,-14.64286 -9.25115,-22.19032 -6.92484,-7.54745 -11.00109,-15.95231 -9.07031,-18.65224 1.9325,-2.69521 8.92334,2.83233 15.54011,12.269 15.46128,22.06133 30.80599,27.04941 33.64947,10.94369 1.49543,-8.46271 8.21076,-12.28401 20.34736,-11.55128 14.35147,0.86554 15.22302,-0.0201 4.29092,-4.25493 -7.58731,-2.93945 -19.90817,-2.24102 -27.39134,1.57257 -11.84866,6.03315 -12.75577,4.83338 -7.07441,-9.31327 5.47185,-13.62476 3.20941,-18.35403 -13.96796,-29.43011 -12.70993,-8.19447 -24.03154,-10.28251 -29.84018,-5.52668 -5.14703,4.21636 -7.38248,4.54586 -4.95807,0.7413 2.42526,-3.80073 -0.59989,-12.39927 -6.74189,-19.09531 -18.21905,-19.85761 -3.89928,-15.70724 37.21708,10.77699 21.20477,13.65946 37.70256,21.0428 36.64247,16.41509 -1.05837,-4.62814 -6.08801,-9.76489 -11.15663,-11.43987 -5.06693,-1.67969 -7.44977,-7.47033 -5.32058,-12.85004 2.1296,-5.38015 0.62988,-18.92092 -3.29083,-30.09298 -6.45694,-18.36516 -5.40327,-19.8366 10.88412,-15.47498 9.90845,2.65236 22.71264,3.64217 28.44928,2.21102 5.73623,-1.43116 -0.60417,-4.05782 -14.08881,-5.83049 -18.02536,-2.37385 -24.31348,-7.07398 -23.73244,-17.82398 0.43278,-8.04107 -1.83823,-12.34827 -5.04978,-9.56093 -3.2094,2.78948 -9.33683,-0.63845 -13.63503,-7.59974 -4.29949,-6.9617 -13.1834,-11.61769 -19.74233,-10.3622 -15.44585,2.95659 -14.57601,5.12262 10.49119,26.27939 12.94046,10.92183 18.23918,20.03243 13.84628,23.84771 -6.78345,5.89348 -11.4193,1.58543 -12.03248,-11.21876 -0.12847,-3.24798 -6.13,-6.76246 -13.30295,-7.82084 -7.17166,-1.06266 -11.74281,-5.25931 -10.1274,-9.34027 1.61542,-4.08352 -0.93411,-6.69047 -5.7148,-5.7752 -4.98807,0.95553 -4.80124,-7.39663 0.44991,-19.64764 l 9.13031,-21.33332 27.5426,18.12777 c 15.15189,9.97572 32.26414,17.14353 38.00336,15.91719 6.77574,-1.4483 5.21775,-3.81786 -4.47431,-6.7706 -15.9596,-4.8651 -19.79375,-34.30462 -4.83682,-37.16737 4.63585,-0.8827 5.83349,-3.16657 2.65666,-5.05665 -3.17514,-1.89392 -0.21425,-19.71233 6.56064,-39.57164 11.28775,-33.02943 10.10425,-39.153 -6.43938,-33.40907 -3.20512,1.11408 -7.45319,-5.15261 -9.46368,-13.92727 -3.65075,-15.9476 -3.64646,-15.95018 20.89155,-2.26672 14.90166,8.30888 21.60798,9.5378 17.08183,3.11942 -4.10496,-5.81378 -2.82804,-15.9009 2.81091,-22.38398 5.63808,-6.48223 9.50094,-15.05035 8.58654,-19.04004 -0.91268,-3.98497 -6.9827,1.90679 -13.48378,13.099 -9.91573,17.06768 -12.33499,18.30131 -15.02635,7.57145 -1.76966,-7.0337 0.38565,-13.49664 4.80725,-14.34163 4.41517,-0.84413 6.80745,-6.83444 5.32101,-13.31966 -1.74824,-7.64129 2.03962,-11.09579 10.76285,-9.80989 7.41763,1.09266 10.64204,-0.74129 7.16567,-4.09209 -3.47506,-3.33367 2.45527,-16.89157 13.15085,-30.12127 10.69901,-13.22881 26.17742,-38.6191 34.40617,-56.42808 13.53135,-29.28655 37.60444,-51.5664 48.61497,-44.98735 3.99783,2.39099 -44.26792,99.88143 -67.63229,136.59289 -5.81292,9.13588 -8.02308,19.07432 -4.89766,22.08019 3.12371,3.00801 0.7113,8.40186 -5.381,11.99263 -6.0923,3.59504 -8.06551,10.82285 -4.3539,16.08343 3.71074,5.25932 2.54952,10.37208 -2.60096,11.35718 -5.14789,0.98125 -6.57862,4.46446 -3.17512,7.73727 3.40223,3.27797 -0.68986,12.69665 -9.13116,20.91897 -13.03643,12.7035 -13.21297,14.54044 -1.06266,12.21373 9.44054,-1.80395 12.88818,0.77986 10.12784,7.62716 -2.30101,5.70623 -3.17512,15.22345 -1.94107,21.16749 1.24263,5.94404 -5.75893,17.04798 -15.54011,24.64942 l -17.77727,13.81672 22.19116,-9.09132 c 18.20491,-7.46175 27.97752,-5.73663 54.571,9.61623 0.015,0.009 0.0158,0.0205 0.0313,0.0283 l 2.53667,-9.86517 c -11.08422,-7.57274 -22.90802,-18.80778 -24.51787,-25.8372 -1.3626,-5.93504 4.6063,-5.54125 16.99056,1.07981 5.68009,3.03801 9.89987,4.35133 12.72835,4.5043 l 1.89822,-7.43391 c -2.4424,-3.33795 -6.83358,-7.34948 -13.72588,-11.46772 -24.95922,-14.91323 -20.30109,-27.84554 4.95893,-13.76059 5.11405,2.84519 9.33856,6.11029 12.84876,9.33984 l 2.71664,-10.58418 c -9.23014,-3.89927 -23.06314,-16.61734 -25.42671,-25.80976 -1.34975,-5.25547 1.60257,-8.2262 6.59106,-6.57693 4.98764,1.64969 7.5586,-3.69789 5.68395,-11.88251 -2.26244,-9.87202 0.737,-14.25421 8.94905,-13.04329 9.03689,1.33261 10.27438,-2.07389 4.53516,-12.60066 -4.66756,-8.56383 -4.0364,-15.14675 1.57257,-16.22141 5.19031,-0.98982 6.54306,-4.59942 2.99087,-8.01322 -3.5522,-3.41509 -2.82376,-14.77911 1.63684,-25.2296 4.45973,-10.45091 14.35061,-37.89452 21.97991,-61.01594 7.6293,-23.12056 21.72153,-55.99831 31.32189,-73.03557 3.1537,-5.59438 6.03659,-9.95343 8.88906,-14.20365 l 0.78415,-3.038 0.29994,1.26834 c 11.23933,-16.3204 19.64849,-21.77852 21.73824,-12.65636 0.60418,2.64379 -5.86733,21.63883 -14.36132,42.33498 l 41.08679,164.83478 c 2.43382,0.34281 6.09443,1.87253 12.15459,5.11234 16.40781,8.77037 27.66343,4.92895 24.61,-8.40015 -0.74558,-3.23511 -6.87858,-2.63094 -13.63546,1.34975 -8.26047,4.87024 -11.01568,4.0621 -8.4353,-2.45954 2.10819,-5.33301 -0.0105,-8.96533 -4.68641,-8.06979 -4.6757,0.89555 -9.71648,-3.73216 -11.2162,-10.27865 -2.23244,-9.75077 -0.12861,-10.67888 11.39745,-5.08534 7.77412,3.75786 13.5609,3.9464 12.81962,0.43705 -0.73701,-3.53505 3.28224,-2.13388 8.94862,3.09371 9.15644,8.45972 10.1754,8.27203 9.1303,-1.73967 -0.64702,-6.19513 -1.49544,-14.65013 -1.87251,-18.79066 -0.38565,-4.13922 1.38832,-13.09556 3.89928,-19.89616 2.52382,-6.79972 2.16817,-9.37539 -0.75844,-5.69208 -6.07129,7.63787 -29.75361,-1.78681 -32.28899,-12.85003 -1.00267,-4.36848 3.57791,-4.79954 11.33746,-1.04981 10.07556,4.86809 13.56134,3.47935 15.26802,-6.19042 1.27263,-7.21538 -0.72843,-9.95643 -4.71641,-6.4938 -3.80072,3.2994 -8.16448,0.47991 -9.70491,-6.24569 -1.90679,-8.31959 1.73539,-11.54228 11.42787,-10.1137 12.42671,1.82966 12.4657,0.80558 0.21425,-8.1242 -10.93125,-7.98493 -11.97378,-11.32546 -4.65641,-15.25345 5.15561,-2.76805 6.31982,-8.00036 2.57095,-11.60656 -3.75359,-3.60361 -2.6995,-10.11197 2.32671,-14.48002 5.02877,-4.36847 7.71542,-17.43147 5.95646,-29.01532 -4.04497,-26.62562 6.74531,-74.77297 20.25609,-90.30712 13.73359,-15.79022 17.60887,-0.41565 9.55366,37.99642 -3.20941,15.31986 -4.59644,41.00152 -3.08086,57.06353 1.51686,16.06202 2.17674,29.33027 1.48258,29.45753 -0.68987,0.12848 0.38564,11.40174 2.3867,25.06377 2.0182,13.66289 -0.78842,28.79679 -6.22812,33.63061 -6.945,6.16171 -6.90387,8.25918 0.1286,6.99127 5.53398,-0.9941 11.11679,2.84947 12.42669,8.56598 1.30691,5.71779 -1.74824,12.93616 -6.80273,16.02815 -6.64848,4.07496 -6.02116,5.20489 2.23673,4.06211 8.68124,-1.19978 8.64354,2.9266 -0.1714,17.27036 -6.40338,10.37593 -7.68543,15.58511 -2.8409,11.57914 5.25074,-4.3432 9.70277,-3.26512 11.06495,2.68236 1.25547,5.48469 -1.26406,15.00149 -5.62353,21.1392 -6.3481,8.94905 -5.34716,9.64065 5.01892,3.56506 13.23568,-7.75699 21.61998,3.30795 10.09827,13.31924 -3.48365,3.02944 -2.73807,12.07362 1.63255,20.08984 4.65171,8.5364 3.92927,18.11149 -1.75682,23.15697 -7.62329,6.76932 -6.49293,8.05008 5.29102,5.88662 14.09952,-2.59237 14.44746,-1.52115 6.13729,17.85098 -6.90344,16.09329 -6.54221,19.27399 1.54257,14.50744 5.69423,-3.35509 13.54676,-3.00801 17.47518,0.77557 3.92927,3.7793 1.67111,10.09398 -5.01849,14.03781 -9.6505,5.68438 -9.68092,7.98495 -0.12861,11.13651 18.12949,5.99546 2.89661,22.50354 -26.7563,28.98704 -13.61748,2.9823 -22.30087,7.77241 -19.31942,10.63988 2.9823,2.8666 15.6301,1.21691 28.14762,-3.67646 22.50953,-8.79093 22.83991,-8.55527 28.60054,22.63251 4.37748,23.70116 2.36956,33.10399 -8.07235,37.85768 -7.64001,3.47935 -13.1834,9.36468 -12.33543,13.07114 0.8527,3.72788 7.90526,1.86394 15.78179,-4.17351 15.13518,-11.60013 17.31065,-9.81161 21.04194,17.49274 l 2.36099,17.24337 27.48213,-20.00714 c 15.12883,-11.0071 40.16339,-26.61662 55.59906,-34.6804 15.43633,-8.0638 27.30222,-17.89726 26.39381,-21.85823 -0.9084,-3.95926 -5.26668,-4.04925 -9.70538,-0.1714 -4.9984,4.3432 -6.6387,3.3551 -4.29048,-2.57524 2.08245,-5.26273 -0.62987,-8.71852 -6.04647,-7.68328 -5.41227,1.03695 -7.98243,-0.65559 -5.74517,-3.78786 2.24094,-3.128 -9.73671,-12.75449 -26.57468,-21.3886 -18.5841,-9.53052 -32.38198,-22.83432 -35.13115,-33.82429 -2.4896,-9.95771 -1.27699,-17.00727 2.68665,-15.69565 3.9635,1.3069 5.56219,-5.27259 3.56504,-14.61886 -3.59084,-16.8063 -3.44512,-16.85986 12.6062,-4.77981 16.22916,12.212 16.21244,12.22443 6.83273,-1.29834 -14.37286,-20.72571 -25.98246,-60.1281 -18.17024,-61.62311 3.83081,-0.72844 11.96185,3.71931 18.07981,9.92044 10.20585,10.3425 10.91022,10.26409 8.5262,-1.16122 -1.42692,-6.84987 -6.6832,-13.79786 -11.66963,-15.44669 -4.98721,-1.6497 -9.80897,-6.32754 -10.73278,-10.36266 -0.9213,-4.04067 2.39087,-5.96032 7.37638,-4.31234 4.98854,1.64541 7.41468,-4.16493 5.4124,-12.90531 -2.68665,-11.72139 0.129,-15.33743 10.61115,-13.78886 12.42494,1.82966 12.46522,0.77985 0.21417,-8.15163 -10.87811,-7.94638 -11.93171,-11.33661 -4.68591,-15.2256 5.12991,-2.75092 8.26346,-9.67577 6.95357,-15.39272 -1.307,-5.71736 0.38555,-10.93896 3.68496,-11.57826 3.33798,-0.63845 8.42076,-11.26719 11.3071,-23.62704 0.12901,-0.61274 0.56985,-1.55115 0.75835,-2.21102 l -107.60024,-448.02526 -322.37751,0 -172.63248,707.45047 c 0.75414,1.1055 1.36689,2.47239 1.78681,4.2862 1.30261,5.68608 -2.1896,14.34205 -7.79984,20.42106 l -1.63683,6.65962 c 0.38563,-0.1714 0.48419,-0.25709 0.87411,-0.44992 15.1609,-7.71329 21.31832,6.46594 9.79576,22.57638 -5.9239,8.28275 -4.61872,10.08712 5.92518,8.06892 27.70328,-5.30215 23.46164,75.73593 -5.44099,103.90284 -13.94655,13.59133 -13.24467,13.8 13.81629,4.28063 32.84775,-11.55172 40.17154,-2.331 16.71889,21.02909 -15.343,15.28044 -15.32715,15.28773 6.4398,5.83048 20.15283,-8.75579 21.37275,-8.19876 16.41639,7.26809 -2.94375,9.19242 -9.53266,19.23884 -14.633,22.35484 -5.09947,3.11513 -1.15693,4.40876 8.73781,2.8409 16.24027,-2.56666 17.64229,-0.72843 14.23921,18.92948 -2.07391,11.98105 -3.33368,23.42221 -2.78092,25.42285 0.55704,1.99677 -9.27728,11.48657 -21.82865,21.08479 -12.55182,9.59779 -19.20629,16.7883 -14.78383,15.97203 4.42161,-0.8227 16.01103,-7.92624 25.72879,-15.80663 9.71648,-7.88039 19.76162,-14.86009 22.34199,-15.5024 9.46582,-2.36528 38.0355,54.74967 32.47068,64.91092 -3.03373,5.5404 -3.17513,15.67123 -0.25709,22.49454 2.86661,6.8233 4.66884,12.61608 3.98925,12.90574 -14.29405,6.08845 -29.30069,10.70416 -40.90511,12.98716 l 0,-0.0287 c -11.6057,2.28386 -19.81089,2.27529 -20.52904,-0.85698 -0.99838,-4.3642 0.97268,-8.11907 4.3839,-8.31789 12.73778,-0.73271 39.82317,-18.12648 38.33587,-24.6207 -0.87411,-3.80072 -7.55388,-2.14246 -15.32843,3.81357 -7.58303,5.81206 -20.39793,11.59928 -28.47927,12.84918 -8.08265,1.2512 -0.78415,-6.915 16.23512,-18.12777 17.01926,-11.21234 29.91944,-24.61899 28.66095,-29.81617 -1.48258,-6.11801 -3.76216,-6.34897 -6.4398,-0.63417 -2.27528,4.85267 -18.78422,15.98017 -36.70332,24.73211 -36.75903,17.95339 -48.98604,15.4677 -76.64089,-15.55768 -13.92128,-15.61723 -14.39133,-17.94351 -3.62505,-18.54297 6.77318,-0.38565 17.84841,3.05942 24.60957,7.62757 10.42606,7.04398 9.84246,7.23124 -3.95927,1.26406 -21.94305,-9.4761 -17.58101,2.21958 7.64944,20.50375 13.32482,9.65393 21.73868,11.58514 24.12666,5.55455 2.0182,-5.09305 13.07714,-13.43365 24.57915,-18.54299 11.502,-5.10719 22.45725,-13.24382 24.36832,-18.07164 2.29671,-5.78807 -1.25976,-5.76407 -10.52161,0.12861 -38.71724,24.44931 -56.07715,14.24649 -70.86654,-41.69912 -3.44507,-13.03172 -9.95301,-23.00186 -14.48216,-22.13503 -4.62557,0.8827 -4.88481,-9.50608 -0.57419,-23.7093 5.04121,-16.59848 4.68684,-22.67664 -1.05837,-17.686 -6.23028,5.40757 -8.04751,3.62504 -6.31983,-6.16171 1.33689,-7.57145 -2.60094,-19.23071 -8.73694,-25.92032 -0.45421,-0.49706 -0.67702,-0.89983 -1.09266,-1.38403 l -11.57956,47.53045 c 2.60523,1.60684 5.60681,3.68503 9.04031,6.32754 6.32584,4.86338 9.45896,7.38977 9.13031,7.84783 -0.29994,0.44991 -4.10923,-1.15693 -11.51957,-4.50388 -3.06372,-1.38831 -5.49069,-2.75092 -8.01108,-4.11781 l -12.94003,53.02886 -37.2475,-168.75935 c -0.29994,-0.007 -0.64702,-0.0857 -0.99838,0 -4.75969,0.91269 -7.14082,-2.15103 -5.2906,-6.82501 0.55704,-1.39689 2.17674,-1.91108 4.35305,-1.93679 l -4.68555,-21.22233 c -0.76272,-1.17407 -1.46545,-2.36528 -1.72682,-3.50935 -0.43706,-1.88537 -0.43706,-3.63361 -0.21425,-5.27731 l -46.95285,-212.69689 c -7.19266,25.55396 -11.42102,48.86949 -8.46485,54.90823 2.38241,4.86594 -1.09265,12.04104 -7.70942,15.94417 -9.671497,5.7058 -9.61493,7.95409 0.12847,11.49601 9.77477,3.53934 9.78334,6.95057 0.0308,17.29864 -9.12773,9.6852 -9.35184,13.40494 -0.81413,14.86694 8.41728,1.44403 8.0235,5.68438 -1.56829,16.38725 -12.631935,14.08795 -12.467827,14.34804 6.04645,10.80441 l 18.98647,-3.61646 -14.9955,22.4384 c -10.88412,16.30797 -11.50072,20.38292 -2.23672,14.92223 15.92061,-9.38526 19.52765,3.05515 6.25855,21.60927 -9.06732,12.67735 -8.80894,13.74602 2.66093,11.55085 17.00983,-3.26083 20.4819,16.39666 5.1389,29.0436 -11.74795,9.68435 -11.67469,10.0297 1.75682,7.68157 16.11943,-2.81519 23.51263,15.49127 9.67406,23.95869 -7.34992,4.49702 -7.13654,5.35701 0.9941,4.28064 17.29949,-2.28387 15.85548,18.64025 -2.68665,38.85305 -19.66734,21.43574 -17.50432,22.76791 10.43035,6.41153 26.79788,-15.69138 30.25966,4.84152 4.3539,25.80934 -14.63899,11.8478 -15.38499,13.87457 -3.02514,8.17948 23.74744,-10.94025 31.99761,2.11247 15.72093,24.87095 -10.06955,14.07896 -10.53318,17.58102 -1.66255,12.35171 16.81487,-9.91231 20.9074,10.41278 4.77725,23.71058 -11.44243,9.43111 -11.31389,9.96458 1.4483,7.73642 10.74444,-1.87678 14.74613,3.59505 18.26061,24.8701 3.59077,21.7194 0.12861,30.70143 -16.74888,44.29748 -11.67726,9.38182 -24.20936,16.18799 -27.87554,15.11547 -3.6636,-1.07551 -12.23558,2.65237 -19.04688,8.29046 -10.1197,8.37658 -8.04493,8.98161 11.33746,3.28653 13.045,-3.83071 30.64017,-12.26171 39.12215,-18.76322 33.01058,-25.30072 47.37535,-12.96359 17.14224,14.72813 -10.11711,9.26741 -26.82571,18.45642 -37.09624,20.42233 -11.18621,2.13389 -16.08087,6.52122 -12.21416,10.94283 0.87413,1.01124 1.1655,1.57256 0.90413,1.68826 -0.77987,0.34279 -6.3584,-3.12799 -14.72384,-9.33984 -11.15493,-8.27932 -18.8305,-18.71994 -17.05183,-23.21311 8.31274,-21.00039 -2.39956,-43.11613 -29.809747,-61.48471 -39.823171,-26.68948 -60.208244,-50.74414 -22.614941,-26.69419 35.085767,22.44612 39.383958,22.76663 34.737832,2.48526 -1.898216,-8.30932 -6.07944,-12.81105 -9.311135,-10.00271 -3.230826,2.80233 -16.741166,-3.90357 -29.991845,-14.8948 -18.680965,-15.49299 -20.018709,-17.9641 -5.956046,-11.02596 9.975295,4.92165 26.745183,11.1305 37.24708,13.7893 17.917812,4.53558 18.276032,3.86071 5.986887,-10.99853 -7.202949,-8.70781 -15.356718,-13.88742 -18.110199,-11.49559 -2.750915,2.38671 -11.09708,-2.33528 -18.563127,-10.50062 -12.201305,-13.34794 -12.045753,-14.11922 1.666843,-7.54402 19.133865,9.17744 28.287737,1.58113 27.814249,-23.1017 -0.385635,-19.21572 -11.796373,-25.16833 -14.057951,-7.32292 -1.264055,9.99114 -20.909543,0.45419 -58.925339,-28.60097 -12.40825976,-9.48553 -6.4488045,-7.86455 15.691372,4.25492 27.677139,15.15146 37.463459,17.17523 43.324373,8.98076 5.86048,-8.19448 2.815192,-13.18427 -13.48421,-22.19031 -11.579558,-6.39567 -20.588593,-9.01632 -20.014418,-5.80221 1.448303,8.12721 -29.8555906,-24.76681 -32.1381646,-33.76857 -1.0198217,-4.01497 14.7045506,3.53506 34.9494996,16.74546 20.371356,13.29481 45.050332,22.88959 55.266873,21.49956 10.153544,-1.37973 15.646374,-5.21088 12.214154,-8.51155 -3.43651,-3.2951 -11.445017,-5.0035 -17.807259,-3.78787 -13.066009,2.49811 -21.820951,-23.04171 -11.096224,-32.35884 3.843569,-3.33795 6.215694,-9.36726 5.291017,-13.40279 -0.925545,-4.03211 -4.040678,-5.29617 -6.923569,-2.79378 -8.13792,7.07227 -13.521489,-32.55037 -7.134395,-52.47695 3.140842,-9.79704 4.802537,-21.80081 3.68503,-26.66634 -1.114072,-4.86509 3.183701,-14.78338 9.584078,-22.05103 6.400811,-7.26679 7.625008,-10.27181 2.686638,-6.66049 -12.195303,8.9272 -14.378467,-4.59471 -2.879456,-17.8231 9.133732,-10.50191 -0.754144,-41.84094 -10.520759,-33.35381 -2.763776,2.39956 -6.058023,-0.1286 -7.316932,-5.60938 -1.255473,-5.49155 2.528111,-9.26699 8.40573,-8.40144 5.877618,0.86556 12.541947,-3.13227 14.81382,-8.87022 2.348127,-5.93374 -0.214248,-10.91496 -5.986888,-11.52299 -5.559262,-0.58704 -10.75986,-3.96783 -11.579137,-7.54445 -0.818422,-3.57363 4.220648,-5.66938 11.186209,-4.64272 9.272553,1.36689 10.752567,-2.22386 5.59396,-13.48506 -5.096054,-11.11894 -3.607905,-14.88966 5.350569,-13.56776 6.812168,0.99839 14.019828,-2.31814 16.023878,-7.3782 2.33528,-5.90676 0.43707,-6.41196 -5.32058,-1.41402 -6.020732,5.2293 -8.407863,4.17779 -7.256078,-3.17941 0.942684,-6.03317 5.824908,-10.91584 10.853268,-10.88755 5.02964,0.0304 5.99245,-4.38776 2.14674,-9.83731 -2.46382,-3.49649 -0.91696,-12.9846 2.99088,-24.1798 l -113.97923786,-516.19788 -372.26209214,0 z m 1615.63591,0 -105.6351,470.13227 c 0.6213,8.90706 -0.2572,15.43128 -3.1109,15.97246 -0.129,0.0283 -0.2571,-0.0857 -0.4542,-0.0857 l -1.2984,5.71993 c 10.244,1.74826 14.6708,10.73116 18.8056,38.1075 3.0038,19.89916 7.7202,35.73664 10.4909,35.20488 13.8505,-2.66093 17.0981,-27.34763 7.9211,-60.21423 -10.4578,-37.45018 -4.6565,-74.27734 13.3933,-84.91808 7.817,-4.60757 12.4387,4.48975 20.8311,41.11894 5.9257,25.86718 7.6229,49.77274 3.7794,53.1124 -3.8436,3.33795 -7.8542,2.38242 -8.8882,-2.1296 -1.0327,-4.51287 -4.806,-5.66894 -8.4049,-2.54524 -3.5994,3.12799 -4.5977,11.87565 -2.211,19.42653 4.2292,13.35909 4.8664,13.20869 23.4303,-5.16761 16.0445,-15.88033 17.8771,-24.14422 11.5196,-51.8955 -9.6376,-42.06503 1.2941,-79.04945 24.8213,-84.00667 3.3336,-0.70273 7.9245,17.84412 10.2182,41.22949 3.068,31.29275 6.2988,40.67458 12.245,35.50953 4.4438,-3.86071 5.5396,-18.18261 2.4167,-31.80651 -8.155,-35.59353 -1.1741,-64.15679 18.4723,-75.66136 9.3826,-5.49413 20.6683,-16.22142 25.0629,-23.81986 13.0055,-22.48533 21.5497,-18.41113 30.4148,14.45216 l 8.3448,30.94954 -2.6908,-33.76772 c -2.0226,-25.24888 1.5039,-36.81044 14.0587,-45.84481 9.2357,-6.64534 19.9892,-16.55028 23.8837,-21.99628 11.169,-15.61536 18.2332,-13.67286 26.8172,7.37807 7.6995,18.88141 7.849,18.77985 3.9292,-3.61989 -4.3809,-25.04074 9.5751,-49.60384 21.6166,-38.02394 3.835,3.6841 5.4932,10.4472 3.6893,15.0052 -1.7997,4.558 0.7585,7.4971 5.714,6.5491 4.9534,-0.9482 6.283,-8.5526 2.9351,-16.8842 -3.7493,-9.3176 -0.7155,-19.4665 7.8907,-26.3903 7.6936,-6.1908 17.3419,-17.0769 21.4353,-24.1794 6.6159,-11.4788 7.7917,-11.6957 10.5821,-2.0174 1.7267,5.9884 5.8386,0.03 9.1302,-13.2366 3.2909,-13.268 6.825,-21.7607 7.8607,-18.8737 0.7799,2.1741 7.6288,-4.0459 16.6281,-14.7012 l 44.3827,-148.1167 -330.0264,0 z m 254.3528,252.4892 c -4.8086,1.7864 -12.509,7.6047 -19.5611,15.1157 -9.1598,9.75526 -12.8197,17.07424 -8.1632,16.27622 4.6569,-0.79743 11.5637,-5.80285 15.3585,-11.10882 2.7594,-3.8594 5.356,-5.5612 7.9815,-5.6096 l 4.3843,-14.6735 z m -54.6319,29.65095 c -1.0412,-0.18852 -2.1296,-0.18852 -3.2351,0.0283 -4.4147,0.84499 -7.2727,4.83455 -6.3481,8.87034 0.9256,4.03554 5.2889,6.64783 9.7045,5.80315 4.4152,-0.84499 7.2736,-4.83476 6.3494,-8.8705 -0.6899,-3.02644 -3.3336,-5.26377 -6.4698,-5.83075 z m 44.9573,2.62538 c -2.0824,1.26447 -4.1263,2.53495 -6.6514,3.75829 -21.8586,10.58504 -22.3922,11.65879 -4.5352,8.95331 3.2095,-0.4855 5.507,-0.70402 7.6186,-0.85699 l 3.5652,-11.85482 z m -37.3992,21.13977 c -7.4818,-0.56561 -11.6265,2.19816 -15.1762,9.14688 -3.4366,6.72124 -16.2497,20.49296 -28.4806,30.61823 -12.5192,10.36393 -19.5375,22.25414 -16.0534,27.19122 3.972,5.62867 0.6813,8.91692 -9.1607,9.17487 -8.4384,0.21425 -20.6598,7.65029 -27.1797,16.49736 -11.4678,15.56026 -10.627,15.76422 25.275,6.93557 25.47,-6.26669 33.4853,-6.24484 25.6071,0.0287 -6.3134,5.02665 -24.4352,9.97573 -40.2701,11.02596 -18.1963,1.20835 -32.0465,6.49207 -37.6409,14.31377 -11.5409,16.13699 -17.302,16.78488 -34.5865,3.89498 -12.7824,-9.53008 -12.8771,-9.00989 -1.0626,4.91867 12.1597,14.32962 16.4797,14.57386 53.5134,2.98658 28.2192,-8.83121 37.1781,-9.69677 29.931,-2.90518 -5.6912,5.33645 -25.506,12.63881 -44.0498,16.24928 -34.8788,6.79716 -71.7646,26.82744 -69.2948,37.60957 0.7756,3.38509 21.2767,2.35671 45.5614,-2.29671 24.2848,-4.64828 44.8717,-5.35015 45.7429,-1.54686 0.9213,4.01925 -24.7793,10.50105 -61.4041,15.47412 -47.3467,6.42996 -59.5219,10.01087 -49.068,14.39733 12.0081,5.03778 11.9785,5.64194 -0.2143,4.50431 -7.7839,-0.71987 -19.7735,4.59042 -26.6354,11.79937 -11.0414,11.59928 -5.3128,11.76896 49.7946,1.44402 35.986,-6.74703 62.9703,-8.57883 63.943,-4.33891 0.9213,4.0364 -0.947,8.27419 -4.1435,9.42297 -24.7702,8.91133 -41.334,11.58341 -42.4181,6.85372 -0.707,-3.07657 -20.9841,-1.6754 -45.0773,3.1537 -26.9857,5.39686 -41.2673,11.22006 -37.1868,15.14333 4.1007,3.94212 -1.3711,6.0803 -14.3913,5.60939 -13.2926,-0.47991 -25.6936,4.52658 -33.7403,13.62347 -10.1946,11.52385 -10.2379,13.11484 -0.1714,8.01364 16.329,-8.30802 156.6335,-5.08276 158.6341,3.64647 2.5238,11.01352 -45.478,16.64776 -69.2648,8.12421 -12.1555,-4.35563 -25.1751,-5.25418 -28.9334,-1.99677 -3.7537,3.26939 -23.2989,4.02781 -43.4149,1.71396 -36.8786,-4.24635 -65.1115,5.15004 -33.619,11.19178 14.4067,2.76376 13.9984,3.28654 -2.6609,3.53934 -13.7208,0.21425 -24.5706,3.19227 -31.2306,7.87568 l -4.5048,20.11768 c 5.6385,9.3844 18.435,9.37884 32.0778,-1.07979 7.9215,-6.07173 14.9934,-8.446 15.7209,-5.27774 0.7285,3.17084 14.9222,3.48792 31.5636,0.68988 41.3584,-6.95314 168.5758,-20.31523 172.632,-18.12735 1.8039,0.97696 -9.8044,7.97423 -25.7888,15.53025 -39.6398,18.7371 -115.2742,32.44926 -131.0615,23.76502 -10.3305,-5.6818 -11.3529,-5.50269 -5.1397,0.97268 11.0238,11.47886 -5.1579,12.88089 -23.3399,2.01819 -9.7761,-5.84034 -14.5589,-5.97188 -13.2726,-0.38564 1.5254,6.65576 -1.3497,7.13438 -12.0025,1.99677 -7.7077,-3.72787 -19.0413,-3.81358 -25.1842,-0.1714 -6.1429,3.62075 -11.8118,3.75788 -12.6075,0.2571 -0.4671,-2.03962 -3.2051,-4.11353 -6.8632,-5.77607 l -2.361,10.61117 c 2.8495,2.44669 2.4638,3.20512 -0.6641,2.87518 l -4.1735,18.56998 c 11.8843,-3.35509 19.475,-2.66094 20.6503,2.45954 1.1269,4.92637 6.7016,6.20327 12.3955,2.8409 5.6933,-3.35509 13.2708,-4.34276 16.84,-2.20674 3.5694,2.1339 12.557,2.74664 19.9841,1.37975 7.427,-1.36689 13.6166,1.29404 13.7559,5.91361 0.129,5.11063 8.0873,5.39858 20.2865,0.7413 12.8367,-4.89638 18.779,-4.50859 16.5676,1.08408 -2.1511,5.43199 2.2667,6.10644 11.7308,1.79539 8.353,-3.80502 15.9339,-3.67219 16.8406,0.25709 0.9041,3.95069 9.5961,4.87451 19.3181,2.04819 29.398,-8.55656 88.5178,-9.7589 89.7626,-1.82537 1.5211,9.69462 -37.3949,20.0744 -39.575,10.55631 -0.9899,-4.3299 -5.9977,-3.79643 -12.3955,1.29833 -14.6647,11.67555 -68.8735,15.59497 -64.5484,4.66971 2.1595,-5.45642 -4.0878,-5.73665 -17.1726,-0.74558 -11.3277,4.32134 -23.1896,5.37286 -26.3634,2.32242 -3.1752,-3.05085 -12.0527,-0.75842 -19.712,5.11234 -7.6588,5.86992 -13.8779,7.93353 -13.8471,4.58743 0.129,-12.15202 -18.2696,-29.16785 -25.0938,-23.24096 -4.3213,3.75787 -2.2238,7.9151 5.4727,10.88841 9.1487,3.53505 7.9699,4.68084 -4.4134,4.28064 -8.7168,-0.25711 -29.8342,0.17138 -48.4046,0.9941 l -17.5955,78.36942 c 2.6522,-0.53562 5.8694,-1.47401 10.1886,-3.1237 15.8692,-6.05202 19.3743,-5.0185 17.5656,5.22288 -1.881,10.65017 1.7611,11.23377 21.6778,3.45365 15.9694,-6.23756 22.7641,-6.43124 20.4369,-0.55704 -2.1896,5.5404 2.1511,6.25683 11.7009,1.90251 8.6066,-3.92071 16.0298,-3.31224 17.1123,1.40973 1.1953,5.22674 8.9991,5.18517 20.9209,-0.1286 12.4696,-5.53911 19.7021,-5.37928 21.0425,0.47134 1.127,4.91308 7.0209,6.0006 13.1212,2.39955 6.0907,-3.59076 11.6383,-4.04067 12.335,-0.9941 1.4912,6.50323 21.5712,4.95979 83.0203,-6.38367 6.2072,-1.14407 13.2765,-3.03801 20.6804,-5.30559 l 27.5426,-91.99247 c -1.2212,-1.6754 -2.2839,-4.00639 -2.9052,-6.71532 -0.7842,-3.43651 2.3095,-7.2625 8.2236,-11.05337 l 117.1848,-390.96173 c -6.0812,2.57653 -13.9449,2.92232 -22.0712,0.74601 -3.3423,-0.89469 -6.2131,-1.46973 -8.7069,-1.65827 z m -30.6259,10.77717 c -4.8064,-0.37279 -13.5348,4.6226 -15.8726,10.52851 -1.3969,3.53077 0.1714,4.72241 3.8692,3.48364 1.2256,-0.43278 2.6867,-1.07551 4.3257,-2.0439 6.3022,-3.71503 11.1557,-8.0578 10.7932,-9.64407 -0.2999,-1.48558 -1.5125,-2.19646 -3.1151,-2.32114 z m -34.0128,1.49286 c -0.3857,0.29994 -0.3857,4.47774 -0.129,12.62851 0.4457,17.90839 -0.129,18.24989 -9.8865,5.72037 -8.5772,-11.02638 -9.5211,-11.12965 -5.4111,-0.49705 3.1323,8.10963 7.6486,11.55427 11.4279,11.16392 4.8578,-0.50562 8.5086,-7.31779 6.4693,-18.56998 -1.3111,-7.2218 -2.0781,-10.75643 -2.4467,-10.44534 z m 72.4691,9.42296 c 3.775,0.25709 5.7534,2.15103 4.6264,5.00179 -1.504,3.80072 -6.1253,7.55003 -10.2795,8.34531 -4.1564,0.79699 -8.2099,-1.3069 -8.9794,-4.67014 -0.7714,-3.36366 3.882,-7.11424 10.3098,-8.34531 1.6026,-0.29994 3.068,-0.43277 4.3214,-0.34279 z m -150.6827,55.26731 c -0.3855,0.29994 -0.6512,1.37116 -0.7583,3.2351 -0.3857,7.44933 2.2324,18.9959 5.8656,25.67223 0.9084,1.67112 1.624,2.53667 2.1125,2.68236 1.474,0.43707 1.0369,-5.62781 -1.3926,-16.22141 -2.4296,-10.5936 -4.6783,-16.3084 -5.8357,-15.36443 z m -53.6633,87.29576 c -4.6633,-0.1286 -12.5874,7.66573 -14.0588,15.99946 -0.9641,5.44014 -1.1356,8.19704 0,8.40059 1.1354,0.21423 3.5778,-2.1339 7.8002,-6.99129 5.5554,-6.38795 9.8116,-12.8736 9.4628,-14.39689 -0.4714,-2.05248 -1.6496,-2.97801 -3.2052,-3.01229 z m -573.16309,33.85086 c 7.46561,-1.43117 28.05636,18.48557 24.39875,23.59961 -0.56133,0.78843 -1.16978,1.22549 -1.78681,1.38403 -1.84251,0.46277 -3.7793,-1.77397 -4.80725,-6.0516 -2.06104,-8.54069 -3.43651,-8.1619 -7.76983,2.12962 -4.25065,10.10469 -6.00232,9.3244 -9.16073,-4.0064 -2.14674,-9.06775 -2.54524,-16.73047 -0.87413,-17.05055 z m -788.33232,23.68231 c 2.09105,-0.34279 4.22922,-0.0857 6.16729,1.10551 10.933815,6.53321 9.391683,15.89018 -3.02516,18.26618 -6.62319,1.26404 -12.7652,-0.81843 -13.63504,-4.61487 -1.58541,-6.93942 4.21636,-13.73916 10.49078,-14.75682 z m 1230.58521,7.12967 -2.2668,10.00357 c 3.6893,2.28386 8.5069,3.54362 12.0024,2.87519 4.4148,-0.84413 5.0442,-4.41862 1.3884,-7.93139 -2.7638,-2.65665 -7.2137,-4.54544 -11.1254,-4.94651 z m 12.9704,20.53162 c -5.1793,-0.3428 -8.566,6.63262 -8.3149,19.7856 0.1713,10.09999 0.9726,14.37719 4.2635,14.06611 1.971,-0.1714 4.8551,-2.0182 9.0394,-5.22246 7.4263,-5.69252 9.9218,-14.20365 5.8648,-19.95187 -3.9935,-5.66423 -7.7459,-8.48457 -10.8528,-8.67738 z m -1247.3649,16.80158 c 4.05354,0.75844 6.37124,3.88214 5.59268,8.28961 -1.03267,5.84206 7.182375,12.60536 18.412721,15.14376 18.580686,4.19921 18.929477,4.84709 4.263482,7.95795 -8.79093,1.86393 -33.059423,2.89231 -53.936393,2.29671 -20.30024,-0.57847 -44.78725,-0.45421 -55.90147,0.21424 l -2.84947,-12.43525 c 6.3601,-0.0857 13.20312,-0.0171 20.61859,0.29994 36.26798,1.56829 43.7216,0.1286 45.28902,-8.75966 1.03266,-5.84977 7.3152,-11.66526 13.93798,-12.93274 1.67969,-0.34279 3.21797,-0.34279 4.56514,-0.12847 z m 1225.5658,1.85109 -7.2557,32.33142 c 6.4462,-7.38163 10.4059,-14.76368 9.5232,-20.06241 -0.7327,-4.42289 -1.5168,-8.03465 -2.271,-12.26901 z m -439.9544,4.4486 4.62557,18.48728 c 1.05838,0.68559 2.03105,1.11407 3.08085,1.88108 8.49443,6.17113 9.64278,10.42177 4.08353,15.25345 -1.04552,0.90841 -1.71825,1.92392 -2.14674,2.98659 l 2.21102,8.8702 c 1.87678,2.87947 4.48458,6.04131 8.67696,9.86474 19.71018,17.97909 21.28875,22.31028 8.91905,24.6777 -5.15133,0.98553 -7.65072,-0.65987 -5.53312,-3.61646 2.43812,-3.41509 -1.74396,-8.65597 -7.46775,-12.5184 l 6.56107,26.33553 c 10.39049,6.66177 17.99237,8.20691 21.25362,3.64219 7.7527,-10.83913 1.43544,-54.87995 -8.34488,-58.11378 -4.04497,-1.33689 -6.53579,1.26406 -5.50226,5.77522 1.03267,4.51288 -2.81519,6.65234 -8.5557,4.75369 -7.29336,-2.40813 -6.84001,-7.08597 1.4483,-15.50327 11.16436,-11.3336 10.66859,-12.64607 -7.98195,-21.99534 -5.78806,-2.90517 -11.21233,-6.84344 -15.32843,-10.77785 z m 248.85002,6.27355 c -0.80982,0.62559 -1.49971,1.2512 -2.38666,1.88108 -13.57252,9.54509 -13.8013,11.03838 -1.51261,9.11916 2.52382,-0.38564 4.68683,-0.48848 6.50022,-0.21425 l -2.60095,-10.77742 z m -496.94419,14.53487 c 3.1237,0.50562 5.72722,2.57524 6.37939,5.41614 0.87412,3.80072 -1.564,9.62092 -5.41142,12.96058 -0.95983,0.83556 -1.96679,1.31548 -2.93518,1.46545 -2.90518,0.43277 -5.60082,-2.10818 -6.68105,-6.82545 -1.44401,-6.29197 0.9941,-12.11604 5.41143,-12.96017 1.10551,-0.21423 2.1896,-0.21423 3.23511,-0.0857 z m 430.82453,1.65826 c -3.9165,0.86555 -5.50362,3.58219 -4.47516,8.06894 0.92118,4.04067 7.50801,6.22169 14.60296,4.86423 8.46565,-1.61971 12.12626,1.85537 10.67289,10.08627 -1.21696,6.89657 -1.10126,17.43747 0.25708,23.43293 1.81681,7.93523 -2.70811,10.45392 -16.71937,9.23014 -19.07127,-1.67112 -19.07733,-1.58542 -0.38556,11.02595 19.60861,13.21425 12.40309,20.95668 -8.10155,8.70396 -7.5916,-4.53517 -11.03751,-4.21208 -9.85662,0.94268 2.55383,11.14078 18.23276,18.53655 29.32648,16.74588 3.69787,-0.59131 6.89184,-2.22387 8.919,-5.05749 4.04498,-5.64923 13.62729,-11.48871 21.31406,-12.95972 7.68716,-1.46974 15.23624,-5.85492 16.77978,-9.75463 1.54249,-3.89927 -6.31211,-3.59075 -17.47481,0.66416 -16.86035,6.42952 -19.89149,5.38401 -17.86853,-6.07986 6.24866,-35.38956 3.64218,-52.77305 -8.49488,-56.92513 -8.36323,-2.86233 -14.61533,-3.85214 -18.53315,-2.9823 z m -407.06123,4.75326 c 3.76215,-0.9341 5.12904,1.45687 4.11352,7.21195 -1.38831,7.83711 -7.06755,13.01715 -11.73083,13.20954 -2.78947,0.12848 -5.23016,-1.56828 -6.13686,-5.52711 -0.82697,-3.60362 3.30797,-9.38055 9.19073,-12.84962 1.7868,-1.05838 3.31224,-1.7311 4.56515,-2.04818 z m 776.36107,10.72216 c 1.9711,0.34279 1.924,1.29832 -0.6042,2.84947 -2.5238,1.54684 -6.037,2.75948 -9.6748,3.45364 -3.638,0.69416 -7.4073,0.87412 -10.4,0.38563 -5.9852,-0.98124 -1.8467,-3.49649 9.1903,-5.60895 5.5194,-1.05838 9.5165,-1.40116 11.4896,-1.07979 z m -822.6789,6.18998 c 4.60501,-0.65559 10.84985,3.04229 15.38885,11.57828 5.2199,9.81718 12.60795,14.79196 16.68891,11.24705 4.22064,-3.66789 5.74393,-2.37812 3.59932,3.04229 -1.14407,2.88804 -4.0878,4.4816 -7.92109,5.02921 -11.49901,1.64112 -30.94053,-6.09015 -33.28738,-16.33153 -2.03963,-8.89549 0.92982,-13.90585 5.53268,-14.56315 z m 528.93201,1.41403 c -0.17139,7.59673 -0.51416,13.91142 -0.45427,21.60883 0.17139,25.24846 -31.39433,59.18286 -47.25491,50.73601 -4.14779,-2.19817 -4.10067,-0.48848 0.129,3.81357 5.47689,5.62225 13.29477,4.64528 27.78426,-3.45365 17.7939,-9.94486 18.80471,-9.78075 8.43524,1.44403 -12.27119,13.27339 -12.94476,34.82395 -0.75847,24.23507 3.84358,-3.33795 8.1958,-0.8827 9.64416,5.44355 1.96675,8.58055 5.82652,9.12002 15.17715,2.18102 1.26829,-0.94267 8.43274,-6.09314 10.91457,-7.90353 l -6.37938,-26.50093 c -7.3465,-4.18208 -8.30677,-8.08521 -3.71511,-15.47455 l -13.48459,-56.12429 z m -1112.43368,0.0857 c 8.02308,-0.34279 13.64275,0.55704 14.14922,2.76378 0.77558,3.37223 -8.9362,6.72475 -20.40734,8.75965 l -2.4467,-10.74956 c 3.10657,-0.38565 6.03274,-0.65988 8.70653,-0.77558 z m 568.29493,27.82755 c 7.25609,-1.3926 36.10044,27.53402 38.30502,38.41085 0.56133,2.75949 0.29995,4.28664 -0.62988,4.64271 -1.62826,0.58704 -5.348,-2.13817 -11.06579,-8.18075 -7.70129,-8.13492 -16.00503,-12.00036 -18.44143,-8.59384 -2.43813,3.40651 -6.0696,-0.95554 -8.07279,-9.69933 -2.0182,-8.74424 -2.05248,-16.20514 -0.12861,-16.57964 z m -335.226679,7.07397 c 10.70843,-1.54258 33.904404,9.47738 29.417236,15.75136 -2.241004,3.13227 -9.857443,2.91802 -16.930562,-0.50134 -10.283805,-4.96921 -11.136925,-3.80073 -4.263495,5.94104 5.915753,8.38388 5.273879,11.11893 -2.022478,8.70481 -5.834772,-1.92821 -9.808606,-0.0188 -8.828222,4.25493 0.976961,4.27205 5.602964,7.03026 10.279092,6.13428 4.675708,-0.89555 6.961283,2.32671 5.048917,7.1571 -0.8227,2.07818 -2.241004,3.26082 -4.143511,3.53933 -3.162272,0.46278 -7.669145,-1.53827 -13.091283,-5.96845 -7.564167,-6.17671 -10.661727,-12.98458 -6.86315,-15.11591 3.800723,-2.13388 5.881476,-8.36587 4.625989,-13.84414 -1.255472,-5.47912 0.128607,-12.02177 3.055148,-14.56315 0.904115,-0.78842 2.185309,-1.26833 3.715029,-1.49115 z m 705.977049,19.17715 c -5.32444,0.12847 -12.47983,1.01124 -20.19524,2.73807 -13.83129,3.08513 -27.53703,2.90088 -39.06089,0.43277 l 2.54096,10.22424 c 26.80302,1.38403 67.54315,-4.03211 65.90804,-11.16436 -0.38565,-1.57684 -3.865,-2.30957 -9.1903,-2.21102 z m -250.84509,13.37537 c -0.86126,0.2571 -1.92392,0.93411 -3.17511,2.01819 -4.25065,3.6936 -6.65449,12.49697 -5.35144,19.53709 7.69057,41.54742 6.5165,56.4915 -5.29058,68.47598 -11.47802,11.65113 -11.41374,13.06472 0.38563,10.80485 6.65319,-1.26833 11.71883,2.54524 15.14718,8.42844 l 11.97163,-46.64648 c -2.16388,-2.70377 -3.47935,-4.599 -2.96087,-4.6967 0.5099,-0.12861 1.94107,0.53991 3.7793,1.52115 l 4.4139,-17.16024 c -14.98908,-11.52857 -14.23408,-12.08046 1.02837,-4.06211 l 3.48365,-13.45721 c -6.93216,-3.02944 -13.40494,-4.99792 -16.99185,-4.31276 -3.59933,0.68986 -5.48169,-4.68213 -4.2035,-11.93779 1.13121,-6.39052 0.29994,-9.29655 -2.24102,-8.51113 z m 326.79097,6.21741 c 3.52226,0.71987 11.03751,5.07635 24.06625,13.40237 12.68084,8.10449 19.68101,15.29115 15.56968,15.94461 -11.07056,1.75682 -35.0523,-10.87255 -39.75677,-20.91811 -2.92662,-6.24913 -3.39787,-9.15345 0.129,-8.42887 z m -126.13254,0.027 c -1.95393,0.38565 -2.79378,3.97641 -1.87252,8.01408 0.92554,4.03211 5.51383,6.6155 10.18868,5.71952 4.67613,-0.89555 5.49841,-4.50002 1.84251,-8.01323 -3.65075,-3.51363 -8.21119,-6.09444 -10.15867,-5.72037 z M 26.61184,-560.6576 c 4.769971,-0.12847 13.257103,4.10924 20.981955,11.46774 11.3336,10.79841 15.637375,17.20051 13.302529,18.21046 -1.812522,0.78415 -7.664011,-1.67969 -17.323068,-7.9031 -10.815567,-6.9737 -20.057278,-14.47616 -20.55904,-16.66276 -0.779853,-3.42364 0.732728,-5.04935 3.599335,-5.11234 z m 682.48627,4.17351 20.01443,80.33108 c 5.45855,-1.66684 9.77861,-5.05621 10.64245,-9.94788 1.01553,-5.76492 13.86942,-15.01777 28.53969,-20.55946 14.84339,-5.60681 23.73373,-12.89417 20.04485,-16.44208 -4.05781,-3.89928 -9.65907,-3.08085 -14.42132,2.1039 -4.28064,4.66241 -14.1338,9.58578 -21.88865,10.94281 -10.69644,1.8768 -15.52125,-3.72787 -19.984,-23.21225 -3.2351,-14.12523 -7.63187,-23.23839 -9.76532,-20.25523 -1.2812,1.79109 -6.50365,0.34279 -13.18213,-2.9566 z m 130.69818,9.20229 c 5.97184,-0.44991 34.83761,14.59529 35.76655,18.65268 0.83995,3.66361 -0.59551,5.50398 -3.38076,5.71994 -4.65037,0.38564 -13.09166,-3.7793 -21.13358,-11.4403 -7.36374,-7.0157 -12.41691,-12.84747 -11.24708,-12.93232 z m -990.56334,9.06389 c -1.85109,0.1286 -4.07067,0.77557 -6.62062,1.71396 l 7.28607,24.98108 c 10.74915,3.17941 11.84779,0.70273 9.64534,-12.82176 -1.65397,-10.14583 -4.35433,-14.25721 -10.31079,-13.87199 z m 898.56355,0.63417 c -4.41518,0.84413 -7.2728,4.86252 -6.34854,8.89807 0.92554,4.03209 5.2893,6.62019 9.70492,5.7752 4.41517,-0.83984 7.27321,-4.83381 6.34896,-8.87063 -0.92555,-4.03211 -5.28931,-6.64719 -9.70534,-5.80264 z m 212.35886,1.8768 c -11.66581,2.62236 -21.81795,5.26187 -26.96853,7.4609 -2.65664,1.13978 -4.67525,10.64715 -4.47464,21.14049 0.29987,16.93913 3.07655,18.56655 24.5799,14.45217 l 16.44688,-3.1537 -9.58361,-39.90286 z m -126.91971,5.88575 c 3.84779,-0.12847 10.78333,3.0423 21.55652,9.56181 15.27837,9.25155 16.05435,11.4163 6.07728,17.2982 -1.80391,1.06267 -3.49646,1.76967 -5.01894,2.10389 -4.56257,0.99839 -7.73087,-1.25119 -8.94941,-6.57649 -1.41835,-6.16513 -5.20112,-8.94519 -8.40404,-6.16171 -3.20516,2.78521 -6.93764,0.2571 -8.28492,-5.6381 -1.58105,-6.90985 -0.82692,-10.42391 3.02522,-10.58331 z m -817.053729,3.31653 c 3.547907,0.67702 11.103925,6.1977 24.125797,16.80245 25.095045,20.43221 28.104779,25.57153 16.325966,27.82626 -4.414756,0.84412 -9.164586,-3.42793 -10.55118,-9.47868 -3.307963,-14.4393 -16.237705,-11.67725 -19.016895,4.06211 -1.289763,7.29336 7.447184,18.0965 21.374882,26.41781 12.951593,7.73812 20.945966,16.31525 17.777271,19.06702 -0.385648,0.34279 -0.959822,0.5399 -1.69255,0.57847 -5.120907,0.29994 -17.919528,-6.53235 -30.778135,-16.69018 -27.7409813,-21.91736 -35.3878535,-32.46596 -19.771461,-27.30264 9.245989,3.05514 9.963711,-6.64805 2.151019,-29.12545 -3.020857,-8.68724 -3.483629,-12.83804 0.08569,-12.15931 z m 362.012979,14.53573 c 1.13552,-1.14407 11.80925,6.08245 32.13775,21.74724 13.74601,10.59275 19.73076,15.80878 18.41186,16.22142 -0.79271,0.2571 -4.18636,-1.24262 -10.15783,-4.31234 -11.89107,-6.10173 -26.37795,-16.2377 -32.16815,-22.54852 -6.15015,-6.70377 -8.90278,-10.42135 -8.22363,-11.10952 z m -288.425515,1.62826 c -0.818422,-0.49275 -2.665221,1.49972 -5.804785,5.85877 -4.347478,6.02761 -5.467987,12.4177 -2.476682,14.20408 0.749867,0.44991 1.52115,0.46705 2.301003,0.12861 2.326711,-1.00269 4.575428,-5.22118 5.59267,-11.08081 0.976962,-5.64623 1.208348,-8.62854 0.385648,-9.11916 z m 881.995045,22.90846 -5.5622,9.53438 c -6.21405,10.6673 -7.09508,14.28891 -1.96688,8.04107 2.0011,-2.43383 5.72385,-4.94479 9.97707,-7.32292 l -2.44668,-10.25253 z m -208.94201,1.19121 c -1.04124,-0.1714 -2.1596,-0.1714 -3.26512,0.0266 -4.41518,0.84413 -7.24279,4.83511 -6.31896,8.87022 0.92555,4.0321 5.28973,6.64804 9.70491,5.80349 4.41604,-0.83985 7.27322,-4.83468 6.34896,-8.87021 -0.68987,-3.02944 -3.33366,-5.26402 -6.46979,-5.83092 z m -291.81104,10.44535 c -1.44831,0.0171 -3.3551,0.17139 -5.71438,0.55276 -8.53598,1.30261 -12.87103,3.92926 -9.64449,5.85833 1.61113,0.9641 4.16922,1.20406 6.98399,0.77558 2.8109,-0.43707 5.87076,-1.50402 8.5257,-3.12372 4.40061,-2.68235 4.19922,-4.11351 -0.1286,-4.0621 z m 267.35272,4.61529 c -1.58114,-0.1714 -3.26083,-0.12861 -4.95893,0.17138 -1.13122,0.21425 -1.86823,0.64275 -2.74664,0.9941 l 13.45336,54.05125 c 3.08942,-2.77662 5.32316,-4.9838 5.17061,-5.6651 -0.61702,-2.73377 9.85145,-7.44761 23.24911,-10.47233 13.39722,-3.02944 27.72856,-10.32708 31.86565,-16.22184 5.87076,-8.36459 2.45097,-8.76695 -15.56968,-1.76968 -19.993,7.76556 -20.88254,7.5496 -6.6819,-1.73538 23.12956,-15.13177 18.61882,-20.87184 -8.88863,-11.32976 -15.38029,5.33601 -23.98183,4.96108 -25.36586,-1.0798 -0.86556,-3.775 -4.76269,-6.42138 -9.52323,-6.96384 z m 191.10473,8.8145 c -3.00797,0.2571 -4.62892,2.5281 -3.80923,6.10686 1.34977,5.91319 -1.73112,6.98184 -9.70498,3.34224 -6.43336,-2.93088 -21.22744,-2.98659 -32.89351,-0.1286 -11.6666,2.84946 -20.09289,2.26243 -18.6844,-1.29834 2.69521,-6.81388 -49.1836,7.5616 -59.4387,16.46952 -3.28224,2.84946 -5.79278,13.66931 -5.59353,24.04224 0.2571,16.17256 2.15961,17.46447 13.09085,9.09089 19.63009,-15.04521 31.79071,-14.81468 30.95983,0.57845 -0.62131,11.54914 3.10222,12.66108 21.4653,6.49336 12.75877,-4.2862 22.99068,-4.06209 24.03533,0.50135 0.99844,4.36718 6.47323,5.20017 12.15377,1.85109 15.00194,-8.84322 26.33984,5.69379 17.62606,22.60464 -6.32923,12.28358 -6.06056,12.77377 1.69255,3.17941 13.95334,-17.26865 46.12365,-21.35559 43.32353,-5.49926 -1.95397,11.0598 -0.0329,11.1515 13.84751,0.50134 7.57107,-5.80264 13.91662,-8.43315 19.34902,-8.23476 l -15.38802,-64.07965 c -1.02845,-0.80129 -2.07824,-1.38832 -3.08089,-2.39956 -7.55343,-7.66187 -10.67882,-8.11607 -9.31153,-1.40974 1.55539,7.62458 -1.08414,8.58398 -10.61115,3.9764 -6.95621,-3.35938 -15.03103,-3.10228 -17.95897,0.58275 -2.93083,3.68075 -3.77079,2.35671 -1.87249,-2.98658 1.8896,-5.33816 -0.70701,-11.09151 -5.77519,-12.76735 -1.26408,-0.43277 -2.41245,-0.57417 -3.41511,-0.50134 z m 398.14177,8.5664 c -7.8864,1.90679 -15.2257,3.78787 -24.67,5.83135 -42.6131,9.22929 -81.2497,20.06112 -85.863,24.06882 -5.3106,4.6127 -6.9933,3.76643 -4.5954,-2.29673 2.3437,-5.92175 -1.9198,-8.455 -11.1563,-6.68704 -8.2078,1.56828 -20.7129,-0.3428 -27.8143,-4.25492 -10.0717,-5.54083 -11.2294,-5.33943 -5.2306,0.91268 5.1544,5.37115 3.2738,7.35036 -5.7139,6.02417 -7.376,-1.08836 -12.1058,-5.31501 -10.4907,-9.3951 1.6154,-4.08354 -0.5913,-6.73718 -4.8981,-5.91362 -4.3086,0.82699 -8.3119,4.80981 -8.9186,8.87021 -0.8957,5.98987 -49.6199,3.11084 -82.4461,-2.39956 l -13.8167,61.51299 c 0.033,0.005 0.129,-0.007 0.129,0 3.5435,0.38565 6.1652,2.78948 5.8352,5.38786 -0.2999,2.60094 7.9035,1.49544 18.291,-2.45954 10.3875,-3.96356 19.6246,-3.97213 20.5282,-0.0287 0.9041,3.94642 11.1974,3.54791 22.8562,-0.8827 19.8216,-7.53545 20.6521,-7.01869 12.7591,8.17949 -6.6252,12.75663 -6.4877,13.83472 0.6943,4.94651 10.4375,-12.91646 48.6059,-22.51297 44.0805,-11.08123 -1.641,4.13495 4.3883,4.18208 13.3934,0.1286 9.2135,-4.19494 15.0238,-4.10066 13.3022,0.2571 -4.6848,11.83579 59.6992,-4.97993 117.7285,-27.27393 l 15.9939,-53.38922 z m -212.8426,7.98623 c -1.4483,0.0171 -3.3551,0.1714 -5.7135,0.55705 -8.536,1.29832 -12.9014,3.92926 -9.6745,5.8579 1.6112,0.96411 4.1692,1.20407 6.9835,0.77557 2.8153,-0.43277 5.9008,-1.50401 8.5553,-3.1237 4.4011,-2.68236 4.1993,-4.11353 -0.129,-4.06639 z m -616.72823,20.11726 c -6.79758,3.51792 -14.2452,5.14876 -18.53269,3.73217 -6.31468,-2.09105 -7.29594,-0.5399 -2.57096,4.01068 3.38081,3.26082 10.65146,3.79215 18.65353,1.76967 l 2.4467,-9.50652 z m 283.22493,15.75094 -14.9655,17.54759 c -3.06371,3.59933 -8.04666,7.3135 -13.60461,10.86012 l 16.86972,67.73042 c 10.7757,-6.15744 17.13409,-6.61763 23.58247,-2.60095 8.35345,5.20789 7.28179,10.54775 -4.3839,21.58313 -4.71598,4.4606 -8.58098,9.30726 -11.09537,13.45678 l 1.87251,7.5436 c 2.90946,-1.9882 6.77575,-5.79063 10.94454,-11.19135 13.78287,-17.85868 49.91803,-31.29961 52.60639,-19.56451 0.73702,3.23084 -2.16814,11.09023 -6.4702,17.46405 -6.46087,9.57551 -5.25892,9.36983 7.01438,-1.04981 8.17039,-6.93643 21.83414,-11.56285 30.3535,-10.30695 14.67838,2.15961 14.81383,3.00803 2.63097,15.80621 -11.4627,12.04404 -10.19822,11.99092 11.57945,-0.43277 19.4176,-11.06066 26.12686,-12.25358 32.83361,-5.8035 4.64063,4.46232 13.67415,5.02621 20.04484,1.26834 6.37043,-3.75788 14.78132,-3.75788 18.68401,0 3.9036,3.75358 16.34487,5.06778 27.66342,2.90517 18.25557,-3.49221 19.65797,-2.33957 12.36544,10.36265 -7.48919,13.04201 -6.73032,13.16283 8.58613,1.46544 12.1589,-9.28585 19.7492,-11.0778 27.4222,-6.49422 5.8339,3.48364 19.3554,4.6727 30.0514,2.62665 17.2001,-3.29081 18.4872,-2.07818 11.2166,10.58333 -7.3988,12.88475 -6.7178,13.17741 6.7419,2.90088 11.0897,-8.46742 17.8493,-9.69677 26.1213,-4.75369 6.7093,4.01068 40.7984,1.15264 85.53,-7.15752 42.0633,-7.81569 64.9658,-13.74474 85.6511,-23.43251 l 26.5447,-88.64937 c -3.3465,1.23834 -6.7102,2.57951 -10.037,3.73216 -24.949,8.63454 -70.6052,19.14673 -111.3192,26.74989 -40.7139,7.60358 -76.4699,12.28571 -81.5389,9.25756 -3.7278,-2.22388 -14.8336,-0.47562 -24.6708,3.89499 -10.8555,4.82225 -18.6223,4.71727 -19.7728,-0.29995 -1.1613,-5.06048 -8.9525,-5.16118 -20.0744,-0.21424 -2.0483,0.91268 -4.1436,1.56829 -6.2282,2.15103 l -13.2117,58.77708 -14.9054,-62.12103 c -3.4195,0.1286 -7.1525,0.95125 -10.49034,2.68236 -8.11051,4.20351 -6.73638,-0.34279 3.71497,-12.35257 1.25117,-1.43115 2.36517,-2.33956 3.56507,-3.61646 l -2.301,-9.50524 c -8.64571,9.80218 -26.75158,21.38646 -40.78469,23.40508 0,0 -0.0303,0 -0.0303,0 -23.41283,3.33366 -76.75792,-5.51254 -74.07219,-12.29643 1.49115,-3.76643 -3.72353,-3.92499 -11.54905,-0.38564 -7.82985,3.56505 -31.39301,2.58381 -52.36389,-2.18103 -20.97081,-4.76524 -42.85131,-7.76941 -48.64538,-6.66004 -14.21907,2.72092 -14.83481,-4.36805 -2.24101,-25.78192 l 10.55161,-17.9341 z m -293.11195,22.71563 c -6.67246,0.94696 -14.81981,2.37384 -25.75791,4.80768 -46.06244,10.26152 -51.62855,14.59872 -32.86362,25.81062 12.57366,7.51233 27.03483,44.55844 15.96304,40.8974 -13.41222,-4.43532 -5.36601,10.83699 9.49324,18.01722 4.35432,2.10819 7.34734,3.02087 9.40282,3.06372 l 7.28607,-28.43557 c -0.0857,-0.018 -0.1286,-0.008 -0.1714,-0.027 -6.06401,-2.00535 -13.9684,-12.7305 -17.53517,-23.84728 -5.79406,-18.06137 -3.60361,-21.08009 20.40735,-28.29718 4.56687,-1.37117 8.22405,-2.60522 11.7004,-3.78786 l 2.11675,-8.20648 z m -191.31558,29.01489 c -1.4483,0.0167 -3.35508,0.1714 -5.71393,0.55704 -8.53556,1.30261 -12.87104,3.95926 -9.64493,5.88533 1.61543,0.96839 4.17351,1.17836 6.98442,0.74558 2.8152,-0.43706 5.8712,-1.504 8.52485,-3.12371 4.40146,-2.68236 4.19922,-4.11352 -0.12861,-4.06209 z m 182.72989,4.4216 c -9.10716,2.68236 -11.66397,6.15529 -6.28854,9.36769 1.04981,0.62131 2.30528,0.92127 3.62505,1.04981 l 2.66093,-10.41792 z m -349.58758,13.126 c -0.82271,-0.4842 -3.74503,0.89125 -9.00947,3.9764 -7.28693,4.26777 -10.78942,9.21257 -7.80026,10.99852 0.74557,0.44992 1.6754,0.58704 2.71663,0.43278 3.14085,-0.51419 7.29893,-3.63789 10.52162,-8.1799 3.10228,-4.37619 4.38732,-6.72562 3.56504,-7.21195 z m 149.05,15.88976 c -1.85537,0.34278 -0.49705,2.46811 3.62934,6.43809 3.65074,3.51362 10.92868,5.51469 16.1747,4.44988 5.72936,-1.16977 4.07496,-3.85643 -4.14352,-6.74274 -8.75409,-3.07229 -13.80857,-4.50003 -15.66052,-4.14352 z m -47.25449,8.5107 c 5.89904,-1.12693 28.50926,17.91653 25.7892,21.72025 -0.1714,0.2571 -0.4542,0.43278 -0.81414,0.50133 -2.46382,0.56561 -8.69967,-3.1537 -14.99592,-9.14743 -7.19651,-6.85631 -11.68112,-12.7455 -9.97657,-13.07072 z m -305.597773,12.54581 c -1.941063,0.38565 -5.027921,4.39547 -6.832729,8.9529 -1.799661,4.55831 0.561327,7.5556 5.230176,6.66005 4.676129,-0.89554 7.726564,-4.91779 6.802295,-8.9529 -0.925532,-4.03639 -3.256534,-7.03326 -5.199742,-6.66005 z m 404.581513,1.19121 c -3.14513,-0.1714 -10.11755,0.97696 -18.01937,3.1237 -10.53361,2.86233 -17.07668,7.20509 -14.5413,9.64364 1.12265,1.08409 3.91214,1.19978 7.43734,0.68987 10.57688,-1.52115 27.81382,-8.70309 26.87714,-12.79477 -0.1286,-0.38564 -0.707,-0.5956 -1.75253,-0.66415 z m 944.00427,25.09118 c -3.9935,2.05248 -8.0488,4.16067 -11.8213,5.88663 -48.9235,22.38784 -49.2388,22.45554 -44.8056,9.69891 2.8452,-8.20433 1.8296,-7.99779 -5.1398,0.9941 -5.3334,6.88458 -19.4377,12.70864 -35.2216,16.00032 l 0,-0.0283 c -15.7852,3.29082 -33.2637,4.04925 -45.3807,0.80985 -12.8003,-3.42793 -20.3452,-1.8768 -26.7567,5.4997 -6.1584,7.08082 -11.101,8.20904 -15.9022,3.59075 -3.8308,-3.68074 -10.5803,-6.01131 -14.996,-5.16761 -4.4147,0.84413 -5.0626,4.37491 -1.4482,7.84826 3.7621,3.61647 0.8141,5.47226 -6.8628,4.33847 -7.3752,-1.09265 -12.3191,-4.69326 -11.0054,-8.01322 1.3112,-3.31652 -2.7123,-5.06178 -8.9486,-3.86928 -6.235,1.19978 -8.5484,4.84624 -5.1394,8.12421 3.4066,3.27796 -2.3138,3.69789 -12.7291,0.91268 -10.4128,-2.78948 -19.6006,-7.95195 -20.4064,-11.46772 -0.81,-3.51363 -8.27219,-3.30367 -16.56817,0.47134 -9.63337,4.38603 -17.87287,2.86232 -22.85667,-4.19922 -6.33476,-8.97776 -9.68682,-8.90149 -17.71637,0.34279 -7.94635,9.13544 -12.15851,9.61322 -21.4961,2.39956 -10.94195,-8.44814 -25.34403,-9.90202 -59.31746,-5.91362 -8.97218,1.0541 -13.72325,-2.57952 -12.48707,-9.58879 1.714,-9.70105 0.38569,-9.48809 -9.40196,1.51687 -10.11634,11.40215 -11.09754,11.14078 -8.85871,-2.15103 2.1297,-12.66151 0.97277,-13.16755 -7.49722,-3.42366 -10.29365,11.83709 -39.42173,12.61823 -34.79873,0.94268 1.26405,-3.20511 -5.43285,-3.80929 -15.14676,-1.85107 l 20.13483,80.80111 c 6.01517,-2.00105 10.98182,-3.13227 12.84961,-2.01819 2.73807,1.63683 -1.13122,10.28894 -8.4957,19.50923 l 1.66683,6.65962 6.10644,-4.31234 c 28.79642,-20.31352 42.26166,-23.20669 39.66676,-8.51113 -1.46114,8.28103 3.75789,9.87288 19.31901,5.88619 11.86365,-3.03801 21.38645,-1.74396 21.52612,2.93088 0.129,5.00007 7.88514,5.47998 19.13735,1.19121 10.38751,-3.95927 19.55977,-4.35133 20.37682,-0.85698 0.82271,3.4922 14.82239,4.47388 31.11065,2.15102 16.28788,-2.31814 33.17692,-0.80556 37.5197,3.37223 4.3431,4.1778 11.1686,4.72584 15.1767,1.24263 4.0064,-3.48364 10.5199,-3.20512 14.4817,0.60846 3.9593,3.80929 11.7432,4.23778 17.2936,0.96839 5.5502,-3.27368 12.8097,-3.31653 16.1442,-0.12854 3.3337,3.2094 10.9703,2.95659 16.9305,-0.55704 7.4807,-4.41047 11.9589,-1.45259 14.4818,9.56094 1.9025,8.32731 1.5897,12.34227 -2.8408,13.73402 -2.661,0.83984 -6.8187,0.737 -12.8802,0.0857 -10.6449,-1.19978 -27.5091,-0.79271 -37.4895,0.91269 -9.9791,1.70111 -18.6549,0.82699 -19.2882,-1.93678 -0.6255,-2.75949 -10.1137,-1.69255 -21.0723,2.37812 -12.50936,4.64443 -18.66773,4.22065 -16.53855,-1.16121 4.31707,-10.90554 -2.8708,-9.51723 -20.40735,3.92499 -11.03146,8.45585 -14.35654,8.15719 -16.5676,-1.49116 -2.08679,-9.11916 -7.28858,-10.07084 -21.31445,-3.84357 -10.2015,4.5313 -21.3488,5.54897 -24.79077,2.24102 -3.43657,-3.30796 -13.14063,-3.40223 -21.52664,-0.1714 -8.38509,3.2094 -15.96814,2.72521 -16.83929,-1.08409 -0.87418,-3.805 -10.60944,-5.18003 -21.64735,-3.06371 -11.03844,2.11246 -19.83199,0.69415 -19.56161,-3.1537 0.38569,-5.56611 -6.16166,-8.15377 -12.66745,-5.52669 l 23.18949,92.987431 c 4.32141,0.891263 8.50856,1.992487 11.91209,3.453644 9.92771,4.286632 24.79683,6.52593 33.04449,4.947366 8.91992,-1.705397 13.52829,0.839844 11.36739,6.300115 -2.44234,6.174138 1.55552,6.467655 12.27501,0.942682 8.75972,-4.517589 16.62814,-5.185608 17.47481,-1.495437 1.94108,8.44943 32.08804,5.288446 142.15728,-14.977501 78.7551,-14.50059 85.1413,-14.707124 64.578,-2.018196 -14.8065,9.13673 -54.6151,20.270232 -93.9953,28.241464 -39.38006,7.970804 -78.33768,12.75363 -91.39552,9.257565 -13.25199,-3.547911 -17.44269,-2.965163 -12.5771,1.713968 7.95925,7.6541474 -2.89661,12.2291547 -13.69508,5.7756399 -3.66785,-2.1895929 -13.05441,-3.3979399 -20.8611,-2.6823579 -7.80748,0.715581 -21.70869,0.0043 -30.89846,-1.606844 -12.87671,-2.253867 -14.8241,-0.80128 -8.40444,6.3558184 4.58047,5.1046224 0.129,3.7278777 -9.97747,-3.0937109 -0.25708,-0.1713968 -0.61275,-0.299944 -0.9084,-0.5013362 l 29.62885,118.8250497 283.98082,0 77.4276,-258.37497 c -4.3586,0.6556 -9.8497,1.25548 -17.9594,1.62827 -18.2443,0.83128 -50.337,4.76226 -71.3198,8.73181 -28.5183,5.39599 -38.8085,4.44217 -40.6935,-3.78787 -3.0595,-13.35352 23.5002,-18.39815 86.9505,-16.49693 21.1901,0.63416 36.5233,2.22387 44.8056,4.0321 l 36.6129,-122.16814 z m -1131.69181,11.71669 c -2.86233,0.29995 -6.62149,0.92126 -11.33746,1.82538 -18.86392,3.60789 -21.72369,5.87847 -11.18621,8.89805 4.09209,1.17407 8.80035,1.24692 13.30167,0.38565 4.50216,-0.86127 8.79908,-2.67379 12.03333,-5.24946 6.24484,-4.97265 5.77307,-6.78044 -2.81519,-5.85877 z m -207.612417,7.04655 c -1.773953,0.2571 -4.220635,0.87412 -7.437324,1.73968 -1.401165,0.38563 -2.378127,0.59131 -3.68932,0.94268 l 2.386696,8.15162 c 2.665221,-1.19977 5.0605,-2.51525 6.711902,-4.0064 6.33011,-5.7118 7.337493,-7.66529 2.022478,-6.82587 z m 239.598897,3.33795 c -4.10924,0.80128 -9.85746,4.95122 -14.603,10.91582 -6.32754,7.95111 -15.18189,13.25026 -19.65149,11.77153 -4.46959,-1.47401 -7.03027,2.10818 -5.68394,7.98666 1.58113,6.91371 3.5522,10.04771 7.98194,8.78751 4.43146,-1.25549 11.3199,-6.91886 22.8866,-17.57501 10.49591,-9.67107 16.161,-19.36742 12.54624,-21.527 -0.90412,-0.53991 -2.10817,-0.62132 -3.48363,-0.38565 z m -109.29369,2.42954 c 0.968393,0.38565 1.812522,1.58971 2.266726,3.56506 0.904115,3.9464 10.651445,12.98073 21.677824,20.08983 11.02425,7.10997 16.71718,13.58919 12.63708,14.36948 -4.079234,0.77985 -15.490406,-5.96975 -25.365856,-14.97707 -9.875015,-9.00733 -16.324254,-18.69638 -14.300486,-21.527 1.011239,-1.41403 2.112463,-1.88537 3.080855,-1.51686 z m -14.66298,19.3434 c 2.446682,-0.34278 6.27697,1.53402 9.765325,5.02922 4.652131,4.656 15.367433,14.90423 23.794145,22.77091 10.019852,9.35355 13.162839,14.12052 11.367035,14.70027 -2.309572,0.74129 -12.796476,-5.45428 -27.451756,-17.82312 -12.43997,-10.5002 -21.155922,-21.11522 -19.379402,-23.59918 0.445634,-0.62131 1.088377,-0.97268 1.902507,-1.08408 z m 6.893149,35.37115 c 4.827389,0.74986 22.460244,12.84489 46.226971,32.71835 7.44462,6.22598 11.16907,9.35526 10.27953,9.53351 -0.88699,0.1714 -6.39182,-2.57095 -17.384347,-8.0685 -12.106187,-6.06102 -26.741313,-16.18243 -32.531092,-22.49411 -7.785707,-8.48627 -9.487248,-12.13917 -6.591062,-11.68925 z m 160.418311,0.47135 c 2.33528,0.21424 4.54073,2.81519 5.47185,6.88114 3.22225,14.0631 -23.9107,36.0323 -60.07326,48.6351 -30.59561,10.66259 -30.70144,10.84256 -6.98399,12.32428 18.66724,1.16979 28.6314,-3.17941 44.41274,-19.3704 11.18835,-11.48015 23.08757,-19.21828 26.4838,-17.18894 9.5965,5.73365 -3.89071,31.66297 -17.92854,34.45931 -6.90685,1.37545 -14.6587,5.46584 -17.23222,9.06431 -3.35937,4.69713 -11.83365,8.0565 -19.68191,9.22971 -7.84825,1.17407 -15.09491,0.12856 -16.02388,-3.89499 -1.48258,-6.48136 -30.84283,-12.57195 -48.37329,-10.03099 -4.46061,0.64702 -8.927633,-2.10818 -9.916153,-6.13515 -0.989822,-4.02353 -6.176282,-11.64255 -11.519572,-16.93913 -5.342013,-5.29616 1.546845,-3.57791 15.329285,3.83929 l 25.06335,13.48506 41.54012,-30.0377 c 22.84033,-16.53293 44.01468,-31.69596 47.07326,-33.68545 0.767,-0.50135 1.57685,-0.70273 2.36099,-0.63418 z m 24.1558,63.88897 c 4.74169,-0.12855 2.73377,2.63523 -5.56311,11.35803 -15.33357,16.12244 2.38242,20.02728 26.93886,5.94104 9.75075,-5.59267 17.31535,-6.72818 18.23017,-2.73806 1.59827,6.98056 -29.7926,20.432203 -47.79868,23.267961 -6.00274,0.946966 -10.51647,0.715581 -11.82123,-1.32404 -2.26672,-3.552201 -17.34578,-2.682361 -33.49864,1.941068 -22.2113,6.346392 -26.87971,5.934183 -19.1073,-1.628269 5.65309,-5.50141 18.18434,-11.57528 27.84468,-13.48506 9.65993,-1.91108 19.05674,-7.18624 20.86113,-11.74496 1.80394,-4.55744 9.40411,-9.36512 16.90014,-10.66559 3.098,-0.5399 5.43328,-0.87841 7.01398,-0.91698 z m -125.49796,16.16571 c 2.20674,-0.46277 9.26614,1.76539 20.86069,6.7706 9.92859,4.28663 14.0194,8.67396 9.06989,9.75462 -4.94907,1.08837 -14.64198,-2.12961 -21.52571,-7.12968 -7.94637,-5.7735 -10.60774,-8.93148 -8.40487,-9.39554 z m -81.59983,37.08468 -17.928519,13.209116 c -9.8574553,7.265506 -23.0168721,13.235682 -29.235567,13.263963 -2.266726,0.009 -3.723599,0.535614 -4.776829,1.242626 l 1.966784,6.714466 c 3.097994,2.699499 5.90975,4.347478 8.9190493,4.19922 5.78592212,-0.257095 12.4875434,-6.288974 24.3983187,-19.78518 L 35.47176,-80.584403 Z m 142.8523,20.034133 c -14.37976,2.575236 -34.49744,19.171579 -27.96551,23.074282 0.62988,0.385643 1.72682,0.385643 3.17512,-0.02785 l 0,-0.02871 c 4.34748,-1.144073 11.82209,-5.422563 19.1373,-11.191348 10.2808,-8.107921 12.65465,-13.077569 5.65309,-11.826801 z M 76.527697,-26.033529 c -0.839839,-0.128548 -3.025148,1.761101 -6.80273,5.720794 C 64.36496,-14.701636 46.248758,-8.3805255 29.454017,-6.2479209 12.65971,-4.1097482 -0.38785727,0.685504 0.46055053,4.3911013 2.0331167,11.268823 25.073552,10.198879 55.817409,1.8158654 65.252371,-0.7593706 75.792402,-0.15519662 79.248191,3.1656146 87.536516,11.135989 52.486738,48.997953 38.705587,46.965187 c -5.89219,-0.869838 -11.662685,3.787867 -12.819195,10.335651 -1.63683,9.269991 1.615426,9.998426 14.722979,3.316526 C 49.869945,55.896242 63.547394,46.184904 70.994157,39.007666 78.44134,31.831286 95.510314,23.94618 108.90669,21.515775 L 133.24502,17.09374 116.07278,37.377255 C 106.61682,48.53261 92.95822,62.98478 85.718413,69.487572 c -7.239794,6.502363 -0.848408,4.438317 14.209646,-4.614857 30.797001,-18.509559 67.266361,-27.69128 69.596921,-17.520171 0.84413,3.697884 -2.59666,9.26142 -7.649,12.352561 -5.05321,3.089426 4.41132,3.269392 21.04237,0.437061 35.55882,-6.094867 41.75567,3.449359 12.94003,19.923583 -16.94985,9.689056 -14.12138,9.735333 16.8093,0.214245 31.00695,-9.538227 37.64515,-9.456813 39.93886,0.55704 1.81252,7.912529 9.5965,10.711009 22.82533,8.179479 22.92389,-4.387755 29.80117,6.65533 9.91659,15.917177 -7.28779,3.39366 -2.36528,4.20779 10.91454,1.82539 13.28066,-2.38242 37.47932,-3.68932 53.78471,-2.92661 5.04635,0.25709 8.51884,0.50991 11.79124,0.80557 l 14.11837,-54.990922 c -3.76644,-1.225487 -7.13738,-2.399555 -9.43238,-3.427935 -29.61949,-13.238682 -209.10871,-65.235731 -234.09621,-67.81311 -16.17771,-1.671118 -36.645894,0.698443 -45.471114,5.250739 -12.285709,6.336108 -15.036637,5.656092 -11.760384,-2.930883 1.662551,-4.347907 2.163879,-6.586348 1.328319,-6.742747 z M 25.493899,22.270349 7.8678883,30.616084 10.194599,38.574461 25.493043,22.270349 Z m -9.433252,36.504071 14.632994,50.21067 138.438419,0 c -6.53665,-1.1355 -11.28348,-2.82804 -11.73039,-4.78111 -0.74557,-3.24798 -9.87759,-6.27098 -20.28695,-6.742322 -18.74394,-0.84413 -18.79408,-1.00267 -5.65395,-15.55768 C 144.5572,67.39696 144.52935,67.348541 129.64825,77.786172 115.28949,87.857015 79.496716,90.967436 68.758286,83.092615 65.990233,81.061563 52.661995,77.271982 39.129791,74.663752 25.598021,72.058522 15.985668,66.256745 17.754474,61.786718 18.435786,60.05561 17.583087,59.215767 16.061937,58.77442 Z m 380.123213,56.56605 -8.97949,1.71826 c 3.17941,-0.70273 6.08673,-1.23406 8.97949,-1.71826 z"
       id="text6264"
       inkscape:connector-curvature="0" />
  </g>
</svg>
