<?xml version="1.0" encoding="UTF-8" standalone="no"?>
<!-- Created with Inkscape (http://www.inkscape.org/) -->

<svg
   xmlns:dc="http://purl.org/dc/elements/1.1/"
   xmlns:cc="http://creativecommons.org/ns#"
   xmlns:rdf="http://www.w3.org/1999/02/22-rdf-syntax-ns#"
   xmlns:svg="http://www.w3.org/2000/svg"
   xmlns="http://www.w3.org/2000/svg"
   xmlns:sodipodi="http://sodipodi.sourceforge.net/DTD/sodipodi-0.dtd"
   xmlns:inkscape="http://www.inkscape.org/namespaces/inkscape"
   width="330.58157mm"
   height="236.31723mm"
   viewBox="0 0 1171.352 837.34448"
   id="svg4722"
   version="1.1"
   inkscape:version="0.91 r13725"
   sodipodi:docname="logo.svg"
   inkscape:export-filename="C:\xampp\htdocs\Walkland\logo.png"
   inkscape:export-xdpi="90"
   inkscape:export-ydpi="90">
  <defs
     id="defs4724">
    <filter
       style="color-interpolation-filters:sRGB"
       inkscape:label="Drop Shadow"
       id="filter6297">
      <feFlood
         flood-opacity="0.498039"
         flood-color="rgb(0,0,0)"
         result="flood"
         id="feFlood6299" />
      <feComposite
         in="flood"
         in2="SourceGraphic"
         operator="in"
         result="composite1"
         id="feComposite6301" />
      <feGaussianBlur
         in="composite1"
         stdDeviation="3"
         result="blur"
         id="feGaussianBlur6303" />
      <feOffset
         dx="2"
         dy="2"
         result="offset"
         id="feOffset6305" />
      <feComposite
         in="SourceGraphic"
         in2="offset"
         operator="over"
         result="composite2"
         id="feComposite6307" />
    </filter>
    <filter
       style="color-interpolation-filters:sRGB"
       inkscape:label="Drop Shadow"
       id="filter5057">
      <feFlood
         flood-opacity="0.784314"
         flood-color="rgb(0,0,0)"
         result="flood"
         id="feFlood5059" />
      <feComposite
         in="flood"
         in2="SourceGraphic"
         operator="in"
         result="composite1"
         id="feComposite5061" />
      <feGaussianBlur
         in="composite1"
         stdDeviation="20"
         result="blur"
         id="feGaussianBlur5063" />
      <feOffset
         dx="20"
         dy="20"
         result="offset"
         id="feOffset5065" />
      <feComposite
         in="SourceGraphic"
         in2="offset"
         operator="over"
         result="composite2"
         id="feComposite5067" />
    </filter>
    <filter
       style="color-interpolation-filters:sRGB"
       inkscape:label="Drop Shadow"
       id="filter5236">
      <feFlood
         flood-opacity="0.784314"
         flood-color="rgb(0,0,0)"
         result="flood"
         id="feFlood5238" />
      <feComposite
         in="flood"
         in2="SourceGraphic"
         operator="in"
         result="composite1"
         id="feComposite5240" />
      <feGaussianBlur
         in="composite1"
         stdDeviation="20"
         result="blur"
         id="feGaussianBlur5242" />
      <feOffset
         dx="20"
         dy="20"
         result="offset"
         id="feOffset5244" />
      <feComposite
         in="SourceGraphic"
         in2="offset"
         operator="over"
         result="composite2"
         id="feComposite5246" />
    </filter>
  </defs>
  <sodipodi:namedview
     id="base"
     pagecolor="#ffffff"
     bordercolor="#666666"
     borderopacity="1.0"
     inkscape:pageopacity="0.0"
     inkscape:pageshadow="2"
     inkscape:zoom="0.35"
     inkscape:cx="78.792625"
     inkscape:cy="354.40349"
     inkscape:document-units="px"
     inkscape:current-layer="layer1"
     showgrid="false"
     fit-margin-top="0"
     fit-margin-left="0"
     fit-margin-right="0"
     fit-margin-bottom="0"
     inkscape:window-width="1440"
     inkscape:window-height="837"
     inkscape:window-x="-8"
     inkscape:window-y="-8"
     inkscape:window-maximized="1" />
  <metadata
     id="metadata4727">
    <rdf:RDF>
      <cc:Work
         rdf:about="">
        <dc:format>image/svg+xml</dc:format>
        <dc:type
           rdf:resource="http://purl.org/dc/dcmitype/StillImage" />
        <dc:title></dc:title>
      </cc:Work>
    </rdf:RDF>
  </metadata>
  <g
     inkscape:label="Layer 1"
     inkscape:groupmode="layer"
     id="layer1"
     transform="translate(-499.66866,650.50712)">
    <path
       style="font-style:normal;font-variant:normal;font-weight:normal;font-stretch:normal;font-size:211.24569702px;line-height:125%;font-family:Gnuolane;-inkscape-font-specification:Gnuolane;letter-spacing:0px;word-spacing:0px;fill:#ffffff;fill-opacity:1;stroke:none;stroke-width:1px;stroke-linecap:butt;stroke-linejoin:miter;stroke-opacity:1;filter:url(#filter5236)"
       d="m 597.38648,-580.71109 106.36055,365.01853 c 3.48882,1.8808 5.05558,0.89848 7.765,-3.78417 3.45143,-5.96783 3.24573,-6.54797 -1.39501,-3.8119 -3.30505,1.94744 -5.9603,1.0554 -6.71886,-2.25974 -0.68998,-3.01122 -0.15046,-5.56373 1.15427,-5.68346 1.31979,-0.12896 5.06548,-0.96511 8.32582,-1.8722 4.75659,-1.32193 4.72607,-2.0635 -0.12897,-3.72892 -4.89825,-1.6766 -5.14866,-4.91716 -1.30474,-16.88398 2.6155,-8.14225 6.17138,-13.95811 7.88645,-12.93323 1.7153,1.02744 2.66429,-0.0645 2.1237,-2.42591 -0.54168,-2.36207 0.89203,-4.66288 3.1851,-5.10158 3.32332,-0.63411 7.05912,16.86571 4.53477,21.23711 -0.34177,0.5954 -0.69858,2.81819 -0.78886,4.94854 -0.0645,2.13014 -0.41485,4.36045 -0.72652,4.94876 -0.31168,0.58895 -0.15047,5.86508 0.31597,11.74156 0.48793,5.87604 -0.59971,13.27112 -2.42656,16.42635 -2.45406,4.2433 -1.8421,5.99082 2.33563,6.7094 4.21256,0.72653 4.10101,2.70985 -0.44064,7.80435 -5.72966,6.42932 -5.65378,6.82482 1.2424,6.72336 6.98432,-0.10746 7.06557,0.27514 1.75828,7.69344 -3.06452,4.28435 -3.63177,7.41314 -1.26175,6.95895 6.89555,-1.31978 7.34049,9.33478 0.63625,15.23425 -5.20605,4.58227 -4.79808,4.77186 2.76015,1.21877 14.19326,-6.66986 11.60098,8.09452 -3.382,19.2684 -1.64435,1.22521 -2.38979,1.87005 -3.53375,2.75843 l 0.57391,2.00976 c 2.53296,-1.20155 6.03275,-2.95747 10.63136,-5.309 7.28502,-3.72506 8.82642,-3.28312 8.84189,2.57808 0.0157,3.8996 -2.80507,7.44367 -6.27864,7.87378 -3.47335,0.4299 -5.79479,3.06517 -5.1564,5.85004 0.74158,3.23476 3.64983,3.78201 8.05326,1.50894 9.97618,-5.14522 11.21407,5.78834 1.73033,15.23425 l -7.55285,7.51331 0.043,0.0644 10.34331,-4.47759 c 11.58465,-5.02914 12.95043,-3.68572 8.94788,8.802358 -1.70884,5.32878 -1.36492,7.271274 0.92428,5.281496 6.6879,-5.809838 10.84758,3.690662 5.36898,12.25421 -3.13567,4.901253 -3.44648,8.110647 -0.75877,7.596271 2.5581,-0.490082 5.2011,1.547633 5.88443,4.532839 1.09193,4.770777 -7.21668,12.706885 -15.81806,17.147934 l 1.22736,4.185905 c 0.6212,-0.436341 1.17147,-0.752318 1.80557,-1.218758 17.26615,-12.714193 18.58508,-13.14624 20.11035,-6.487568 1.34558,5.866152 -10.68121,17.590726 -18.48749,19.476469 l 1.25959,4.338519 c 2.3036,0.522322 4.00836,-0.391208 5.99061,-3.160604 4.84107,-6.768506 13.98025,-8.668225 15.24221,-3.160384 0.95437,4.173008 -5.47323,12.630585 -16.65269,21.874651 -0.008,0.0069 -0.0155,0.01505 -0.043,0.04299 l 1.33483,4.616016 c 4.36904,-1.829213 7.79402,-4.941876 8.4782,-8.816539 1.25745,-7.120813 12.95215,-9.531672 14.45313,-2.980261 1.6895,7.37832 -10.63972,21.1236274 -17.04691,19.0053093 -3.42197,-1.1327772 -4.14635,-0.5008319 -1.89584,1.6637024 1.251,1.203709 1.13492,3.1911243 0.10747,5.1983093 l 1.24241,4.2695188 c 3.00368,-2.3343392 6.57935,-5.5132085 9.99445,-9.0102025 6.83708,-7.0004441 12.67981,-10.4187663 14.07418,-8.2342463 2.67675,4.1932142 -7.17563,21.592857 -10.94948,19.3374025 -2.61635,-1.5626757 -8.07689,4.0906835 -9.90374,8.9416385 l 1.22735,4.213848 c 0.95652,-0.743721 2.16991,-2.35218 3.39705,-4.726929 2.35153,-4.552178 4.68158,-6.795379 5.17166,-4.976486 0.48793,1.818464 3.72655,-0.275133 7.20378,-4.6439604 7.51158,-9.439671 16.70707,-7.72352727 15.53045,2.8970744 -0.57821,5.227115 1.08764,7.161006 5.47473,6.321203 9.63979,-1.844257 9.69654,8.030902 0.0645,16.828739 -5.73999,5.257638 -12.24003,8.551293 -18.48772,9.786816 -4.32884,0.855495 -8.52614,0.689984 -12.26925,-0.472887 l 3.16941,10.854249 c 8.89564,-2.961559 19.17318,-8.297438 31.9854,-16.564997 14.00582,-9.03772 14.21411,-9.060935 13.78658,-1.152124 -0.2386,4.419339 -0.0168,7.9561 0.48577,7.859588 0.50513,-0.08598 9.00935,-4.557336 18.89698,-9.911056 15.42835,-8.354399 16.78703,-10.034435 9.58498,-11.879982 -7.7504,-1.986123 -35.24122,-18.4200021 -35.94389,-21.4866697 -0.65989,-2.8914851 3.04862,-1.70239383 9.66086,3.1051433 3.80738,2.7685333 12.89003,6.3289404 20.18645,7.9015024 24.69542,5.322982 33.51475,8.80708 31.18127,12.323421 -1.27679,1.928087 1.20801,0.853345 5.52095,-2.370236 9.46052,-7.076316 24.16922,-10.352774 25.25149,-5.628208 0.43205,1.878649 -3.37534,7.999949 -8.44747,13.612681 -9.20495,10.185545 -9.20452,10.199087 0.12897,5.253769 10.5789,-5.591453 26.68434,-8.707774 31.16623,-6.030162 1.64005,0.980165 0.25793,4.555831 -3.07892,7.943202 -5.31202,5.392841 -4.30692,5.615957 8.08378,1.829211 15.34903,-4.690173 18.74091,-2.180866 9.61571,7.08341 -4.95069,5.025923 -3.50022,5.357803 9.99424,2.342937 10.71088,-2.39302 15.80236,-1.975376 15.83353,1.276794 0.0154,1.74753 1.75398,2.762946 4.3828,3.091172 l 8.41738,-32.770171 c -4.3209,-0.866242 -11.19752,-2.779284 -18.38153,-5.226256 -10.37363,-3.532891 -21.84219,-6.2614469 -25.47913,-6.0576754 -8.40576,0.470737 -13.25736,-9.7524257 -8.52334,-17.9374413 4.18118,-7.2291463 10.29409,-9.3150033 11.52661,-3.9369973 0.46428,2.022666 -1.86361,4.2022392 -5.18714,4.8378415 -3.32202,0.6319503 -5.66582,2.8136757 -5.20218,4.8380619 1.14353,4.9870188 5.61273,3.56556311 12.89153,-4.0891794 5.46743,-5.750514 5.31739,-6.811928 -1.47025,-10.86822 -4.13947,-2.473414 -11.0722,-4.822797 -15.42405,-5.225824 -4.35163,-0.404106 -10.90541,-4.453947 -14.55953,-8.996448 -3.65434,-4.543368 -6.20792,-8.241981 -5.67227,-8.206736 0.53737,0.04299 11.46363,5.01668 24.281,11.061888 18.68181,8.811167 25.44838,10.153308 34.12435,6.764859 14.15951,-5.529978 16.38938,2.595718 4.32217,15.7475515 -10.46648,11.4070961 -8.57858,11.7933585 5.61167,1.1521204 5.24839,-3.9363499 12.12158,-7.6025069 16.09103,-8.7054059 l 7.15883,-27.876879 c -2.3029,0.930727 -5.0018,2.548861 -8.2052,5.004431 -3.80415,2.915564 -7.27062,3.80781 -7.68913,1.981827 -0.41485,-1.803419 7.65366,-8.528077 17.95683,-15.01264 l 4.0644,-15.789248 c -8.2579,-2.845058 -18.59818,-9.302106 -19.5188,-13.321427 -0.95222,-4.169141 -0.55887,-4.052851 17.8506,5.157039 1.3499,0.677088 2.1899,1.186518 3.3061,1.786223 l 3.6099,-14.083849 c -2.6538,-0.08598 -4.8338,-0.958669 -7.2498,-2.661494 -10.80288,-7.61132 -16.6828,-14.29492 -10.8893,-12.37888 6.0278,1.99258 2.4077,-13.15699 -4.45889,-18.64462 -2.57379,-2.05705 -3.92904,-5.6454 -3.00282,-7.98468 0.92642,-2.33929 -1.16717,-7.34544 -4.64075,-11.13154 -3.47377,-3.7861 -5.51858,-8.00231 -4.55002,-9.3567 0.96942,-1.35203 4.4763,1.42081 7.79553,6.15461 7.75599,11.06684 15.45355,13.56905 16.87995,5.48979 0.7501,-4.24523 4.1188,-6.16214 10.207,-5.79458 7.1993,0.43419 7.6365,-0.0101 2.1525,-2.13444 -3.8061,-1.47454 -9.9867,-1.12418 -13.7406,0.78886 -5.94375,3.02647 -6.39879,2.42462 -3.5488,-4.6719 2.7449,-6.83472 1.61,-9.20711 -7.00687,-14.76331 -6.37581,-4.11066 -12.05517,-5.15811 -14.96902,-2.7724 -2.58195,2.1151 -3.70334,2.28039 -2.48716,0.37187 1.21661,-1.9066 -0.30093,-6.21996 -3.382,-9.57896 -9.13939,-9.96136 -1.95603,-7.87937 18.66956,5.40616 10.63719,6.85213 18.91309,10.5559 18.38129,8.23446 -0.5309,-2.32166 -3.054,-4.89846 -5.5966,-5.73869 -2.5417,-0.8426 -3.7371,-3.74741 -2.669,-6.44609 1.0683,-2.69889 0.316,-9.49148 -1.6508,-15.09583 -3.23907,-9.21268 -2.7105,-9.95082 5.4599,-7.76286 4.9705,1.33053 11.3936,1.82706 14.2713,1.10914 2.8775,-0.71793 -0.3031,-2.03556 -7.0675,-2.92481 -9.0422,-1.19081 -12.1966,-3.54858 -11.9051,-8.94121 0.2171,-4.03372 -0.9222,-6.19438 -2.53323,-4.79614 -1.60996,1.39932 -4.68372,-0.32027 -6.83986,-3.81233 -2.1568,-3.49226 -6.61332,-5.82789 -9.90354,-5.19809 -7.74824,1.48315 -7.3119,2.56971 5.2628,13.18278 6.49144,5.47882 9.14949,10.04906 6.94584,11.96296 -3.40285,2.9564 -5.72837,0.79531 -6.03597,-5.62778 -0.0644,-1.62931 -3.07505,-3.39231 -6.67328,-3.92324 -3.59759,-0.53307 -5.89066,-2.63828 -5.08031,-4.68545 0.81036,-2.04845 -0.46858,-3.3562 -2.86677,-2.89706 -2.50221,0.47933 -2.40849,-3.71045 0.2257,-9.85604 l 4.58012,-10.70163 13.81646,9.0936 c 7.60078,5.00422 16.18494,8.59987 19.06404,7.98469 3.3989,-0.72652 2.6174,-1.91519 -2.2445,-3.3964 -8.006,-2.44052 -9.92937,-17.20855 -2.4264,-18.64462 2.3255,-0.44279 2.9263,-1.58847 1.3327,-2.53661 -1.5928,-0.95007 -0.1075,-9.88848 3.2911,-19.8507 5.6624,-16.56886 5.0687,-19.64069 -3.2303,-16.75931 -1.6078,0.55887 -3.7388,-2.58475 -4.7473,-6.98647 -1.8314,-7.99994 -1.8292,-8.00124 10.48,-1.13707 7.4753,4.16806 10.8394,4.78454 8.5689,1.56482 -2.0592,-2.91642 -1.4186,-7.97652 1.4101,-11.22869 2.8283,-3.25174 4.766,-7.54985 4.3073,-9.55123 -0.4578,-1.99902 -3.5028,0.95652 -6.764,6.57097 -4.9741,8.56183 -6.1877,9.18066 -7.5378,3.79814 -0.8877,-3.52838 0.1935,-6.77044 2.4115,-7.19433 2.2149,-0.42344 3.4149,-3.42842 2.6693,-6.68166 -0.877,-3.83318 1.0231,-5.56609 5.399,-4.92103 3.721,0.54812 5.3385,-0.37186 3.5946,-2.05275 -1.7432,-1.6723 1.2317,-8.47348 6.597,-15.11002 5.3671,-6.6361 13.1316,-19.37287 17.2595,-28.30656 6.7879,-14.69128 18.8639,-25.86774 24.3872,-22.56743 2.0055,1.19942 -22.2065,50.10447 -33.927,68.52039 -2.916,4.58292 -4.0247,9.56843 -2.4569,11.07629 1.567,1.50894 0.3568,4.21471 -2.6993,6.01598 -3.0562,1.80342 -4.046,5.42917 -2.1841,8.06809 1.8614,2.63828 1.2789,5.20304 -1.3048,5.6972 -2.5823,0.49224 -3.3,2.23955 -1.5927,3.88132 1.7067,1.64436 -0.3461,6.36915 -4.5806,10.49379 -6.5396,6.37257 -6.6281,7.29405 -0.533,6.12689 4.7357,-0.90494 6.4652,0.3912 5.0805,3.82608 -1.1543,2.86247 -1.5928,7.63668 -0.9737,10.61845 0.6233,2.98176 -2.8889,8.55194 -7.7956,12.36512 l -8.9177,6.93101 11.1319,-4.56056 c 9.1323,-3.74311 14.0346,-2.87772 27.375,4.82388 0.01,0.005 0.01,0.0103 0.016,0.0142 l 1.2725,-4.94875 c -5.5603,-3.79879 -11.4916,-9.43473 -12.2992,-12.96096 -0.6835,-2.97725 2.3107,-2.77971 8.5232,0.54167 2.8493,1.52399 4.9661,2.1828 6.385,2.25954 l 0.9522,-3.72915 c -1.2252,-1.67444 -3.4279,-3.68679 -6.8854,-5.75266 -12.5205,-7.48106 -10.1838,-13.96842 2.4876,-6.90285 2.5654,1.42726 4.6846,3.06516 6.4454,4.68523 l 1.3628,-5.30944 c -4.6302,-1.95603 -11.5694,-8.33592 -12.755,-12.9472 -0.6771,-2.63635 0.8039,-4.12658 3.3063,-3.29924 2.502,0.82754 3.7917,-1.85501 2.8513,-5.96074 -1.1349,-4.9522 0.3697,-7.15048 4.4892,-6.54303 4.5333,0.66849 5.154,-1.04035 2.275,-6.32099 -2.3414,-4.29595 -2.0248,-7.59821 0.7889,-8.1373 2.6036,-0.49653 3.2822,-2.30725 1.5003,-4.01975 -1.7819,-1.71314 -1.4165,-7.41378 0.8211,-12.65616 2.2372,-5.24259 7.1989,-19.00939 11.026,-30.608 3.8272,-11.59819 10.8964,-28.09097 15.7123,-36.63753 1.582,-2.80636 3.0282,-4.99303 4.4591,-7.12511 l 0.3934,-1.52398 0.1504,0.63625 c 5.6381,-8.18696 9.8565,-10.92497 10.9048,-6.34893 0.3031,1.32623 -2.9433,10.85489 -7.2042,21.2369 l 20.6107,82.68763 c 1.2209,0.17197 3.0573,0.93933 6.0973,2.56455 8.2308,4.39956 13.877,2.47256 12.3453,-4.21385 -0.374,-1.62286 -3.4506,-1.31978 -6.8401,0.67709 -4.1437,2.44311 -5.5259,2.03771 -4.2314,-1.2338 1.0575,-2.67525 -0.01,-4.49736 -2.3509,-4.04813 -2.3456,0.44925 -4.8742,-1.87219 -5.6265,-5.15617 -1.1199,-4.89137 -0.065,-5.35695 5.7174,-2.55101 3.8998,1.88509 6.8027,1.97967 6.4308,0.21924 -0.3697,-1.77332 1.6465,-1.07044 4.489,1.55193 4.5932,4.24373 5.1044,4.14958 4.5801,-0.87269 -0.3246,-3.10772 -0.7502,-7.34908 -0.9393,-9.42614 -0.1935,-2.07639 0.6964,-6.56925 1.956,-9.98069 1.2661,-3.41101 1.0877,-4.70307 -0.3804,-2.85538 -3.0456,3.83146 -14.9256,-0.89633 -16.1975,-6.44608 -0.503,-2.1914 1.7948,-2.40764 5.6873,-0.52663 5.0543,2.44203 6.8029,1.74538 7.6591,-3.10535 0.6384,-3.61952 -0.3654,-4.99454 -2.366,-3.25755 -1.9065,1.65511 -4.0956,0.24074 -4.8683,-3.13309 -0.9565,-4.17343 0.8705,-5.79006 5.7327,-5.07343 6.2337,0.91783 6.2532,0.40411 0.1074,-4.07542 -5.4835,-4.00555 -6.0065,-5.68129 -2.3358,-7.65173 2.5862,-1.38856 3.1703,-4.01329 1.2897,-5.82231 -1.883,-1.80771 -1.3542,-5.07256 1.1671,-7.26375 2.5227,-2.19139 3.8704,-8.74431 2.988,-14.55523 -2.0291,-13.35646 3.3838,-37.50907 10.1613,-45.30161 6.8893,-7.921 8.8333,-0.20851 4.7925,19.0605 -1.61,7.68505 -2.3058,20.56798 -1.5455,28.62532 0.7609,8.05734 1.0919,14.71322 0.7437,14.77706 -0.346,0.0644 0.1935,5.71956 1.1973,12.57298 1.0124,6.85384 -0.3955,14.4456 -3.1243,16.87044 -3.4839,3.09096 -3.4632,4.14313 0.064,3.5071 2.7761,-0.49868 5.5767,1.4294 6.2338,4.29703 0.6555,2.86827 -0.877,6.48929 -3.4126,8.04035 -3.3351,2.04416 -3.0204,2.61098 1.1221,2.03772 4.3548,-0.60186 4.3359,1.46809 -0.086,8.66349 -3.2122,5.20498 -3.8553,7.81811 -1.4251,5.80855 2.634,-2.17872 4.8673,-1.63791 5.5506,1.34558 0.6298,2.75134 -0.6341,7.52534 -2.821,10.60426 -3.1845,4.4892 -2.6823,4.83613 2.5177,1.78837 6.6395,-3.89121 10.8454,1.6594 5.0657,6.68146 -1.7475,1.51969 -1.3735,6.05661 0.8189,10.07786 2.3335,4.28219 1.9711,9.08544 -0.8813,11.61645 -3.8241,3.39576 -3.2571,4.03824 2.6542,2.95296 7.0729,-1.30044 7.2474,-0.76307 3.0787,8.95476 -3.463,8.07302 -3.2818,9.66859 0.7739,7.2775 2.8564,-1.68305 6.7955,-1.50894 8.7662,0.38906 1.9711,1.89584 0.8383,5.06354 -2.5175,7.04192 -4.8411,2.85151 -4.8563,4.00556 -0.064,5.58651 9.0945,3.00756 1.4531,11.28866 -13.422,14.54104 -6.8311,1.49604 -11.187,3.89895 -9.6914,5.33739 1.496,1.438 7.8407,0.61045 14.12,-1.84426 11.2916,-4.40988 11.4574,-4.29166 14.3471,11.35336 2.1959,11.88944 1.1887,16.60627 -4.0494,18.99091 -3.8325,1.74538 -6.6133,4.69769 -6.1879,6.557 0.4277,1.87005 3.9656,0.93502 7.9167,-2.0936 7.5924,-5.81908 8.6837,-4.92189 10.5555,8.77505 l 1.1844,8.64995 13.7861,-10.03637 c 7.5892,-5.52159 20.1475,-13.35195 27.8907,-17.39706 7.7435,-4.04512 13.6959,-8.97797 13.2402,-10.96495 -0.4557,-1.98612 -2.642,-2.03126 -4.8686,-0.086 -2.5074,2.17872 -3.3303,1.68305 -2.1523,-1.29184 1.0446,-2.63999 -0.316,-4.37355 -3.0332,-3.85424 -2.715,0.52018 -4.0043,-0.32887 -2.882,-1.90014 1.1242,-1.56913 -4.8843,-6.39815 -13.3309,-10.72936 -9.3225,-4.78089 -16.2441,-11.4546 -17.6232,-16.9676 -1.2488,-4.99518 -0.6405,-8.53152 1.3478,-7.87356 1.9882,0.65559 2.7902,-2.64494 1.7883,-7.3334 -1.8013,-8.4307 -1.7282,-8.45757 6.3238,-2.39774 8.1412,6.12602 8.1328,6.13226 3.4276,-0.6513 -7.21,-10.39683 -13.0338,-30.16263 -9.1149,-30.91258 1.9217,-0.36542 6.0005,1.86575 9.0695,4.97648 5.1197,5.18821 5.473,5.14888 4.2771,-0.58251 -0.7158,-3.43617 -3.3526,-6.92155 -5.854,-7.74867 -2.5017,-0.82756 -4.9205,-3.17414 -5.3839,-5.19832 -0.4622,-2.02696 1.1993,-2.98993 3.7002,-2.16324 2.5025,0.8254 3.7195,-2.08929 2.7151,-6.47381 -1.3477,-5.87991 0.065,-7.69386 5.323,-6.91704 6.2328,0.91783 6.253,0.3912 0.1074,-4.08918 -5.4569,-3.98622 -5.9854,-5.68689 -2.3506,-7.63776 2.5734,-1.37997 4.1453,-4.85375 3.4882,-7.7216 -0.6557,-2.86805 0.1934,-5.48741 1.8485,-5.80811 1.6745,-0.32027 4.2242,-5.65207 5.6721,-11.85226 0.065,-0.30737 0.2858,-0.77811 0.3804,-1.10913 l -53.9765,-224.74716 -161.7173,0 -86.59929,354.88509 c 0.37831,0.55456 0.68569,1.24025 0.89634,2.15012 0.65344,2.85237 -1.09839,7.19454 -3.91271,10.24401 l -0.8211,3.34073 c 0.19345,-0.086 0.24289,-0.12896 0.43849,-0.2257 7.6053,-3.86929 10.69411,3.24358 4.91394,11.32521 -2.97167,4.15495 -2.31694,5.0601 2.9723,4.04769 13.89706,-2.65977 11.76929,37.99213 -2.72941,52.12176 -6.99614,6.81795 -6.64405,6.92263 6.93079,2.14734 16.47773,-5.7948 20.15163,-1.16933 8.38686,10.54902 -7.69666,7.66527 -7.68871,7.66893 3.23046,2.9248 10.10945,-4.39225 10.72141,-4.11283 8.2351,3.64596 -1.4767,4.61128 -4.78195,9.65096 -7.34049,11.21407 -2.55809,1.56267 -0.58036,2.21161 4.38323,1.42511 8.14677,-1.28754 8.85007,-0.36541 7.14295,9.49577 -1.04035,6.010166 -1.6723,11.749504 -1.39501,12.753104 0.27943,1.001658 -4.65385,5.762117 -10.95012,10.576963 -6.29649,4.81463 -9.63463,8.421674 -7.41615,8.012201 2.21805,-0.412699 8.03176,-3.976115 12.90658,-7.92923 4.87417,-3.953115 9.91321,-7.454408 11.20762,-7.776616 4.74843,-1.186518 19.08011,27.464596 16.28858,32.56188 -1.52184,2.779283 -1.59277,7.861308 -0.12897,11.284149 1.438,3.422837 2.34207,6.328724 2.00116,6.474029 -7.17046,3.054207 -14.69838,5.369629 -20.51961,6.514872 l 0,-0.0144 c -5.82188,1.145674 -9.93793,1.141375 -10.29818,-0.429895 -0.50083,-2.189255 0.48793,-4.072846 2.19914,-4.172582 6.38977,-0.367556 19.97687,-9.092958 19.23078,-12.350715 -0.43849,-1.906591 -3.78932,-1.074743 -7.68934,1.913037 -3.80395,2.915559 -10.23241,5.818657 -14.28633,6.445656 -4.05458,0.627652 -0.39336,-3.468837 8.14418,-9.093605 8.53753,-5.624552 15.00877,-12.349857 14.37746,-14.956968 -0.74372,-3.069035 -1.88725,-3.184894 -3.23046,-0.318124 -1.14137,2.43429 -9.4229,8.016284 -18.41183,12.406602 -18.43978,9.006129 -24.57333,7.759209 -38.4461,-7.804346 -6.98346,-7.834219 -7.21926,-9.001173 -1.81846,-9.301886 3.39769,-0.193457 8.95346,1.534726 12.34513,3.82629 5.23012,3.533539 4.93736,3.627476 -1.98613,0.634103 -11.0075,-4.753586 -8.81933,1.113429 3.83726,10.28549 6.68426,4.842792 10.90498,5.811564 12.10289,2.786382 1.01241,-2.554875 6.56001,-6.73885 12.32987,-9.301896 5.76986,-2.561968 11.26544,-6.643623 12.22411,-9.065448 1.15212,-2.903525 -0.63194,-2.891485 -5.27805,0.06452 -19.4221,12.264739 -28.13052,7.146601 -35.54946,-20.917925 -1.72818,-6.537225 -4.99282,-11.538641 -7.26482,-11.103805 -2.32037,0.442797 -2.45041,-4.768627 -0.28804,-11.893517 2.52887,-8.32646 2.35111,-11.3755 -0.53092,-8.872 -3.12535,2.71265 -4.03695,1.81846 -3.17027,-3.09096 0.67063,-3.79813 -1.30474,-9.64688 -4.3828,-13.00265 -0.22785,-0.24935 -0.33962,-0.45139 -0.54812,-0.69429 l -5.80876,23.84315 c 1.30688,0.80606 2.81259,1.84856 4.53497,3.17415 3.17329,2.43966 4.74499,3.707 4.58013,3.93678 -0.15047,0.22569 -2.06136,-0.58036 -5.77867,-2.25933 -1.53689,-0.69643 -2.75435,-1.37997 -4.01868,-2.06565 l -6.49123,26.601368 -18.68481,-84.656348 c -0.15047,-0.004 -0.32458,-0.043 -0.50083,0 -2.38765,0.45784 -3.58212,-1.07905 -2.65398,-3.4237 0.27944,-0.70073 1.09194,-0.95867 2.18367,-0.97157 l -2.35046,-10.64596 c -0.38261,-0.58896 -0.73513,-1.18651 -0.86624,-1.76043 -0.21925,-0.94577 -0.21925,-1.82276 -0.10748,-2.6473 l -23.5534,-106.69716 c -3.60812,12.81888 -5.72924,24.51487 -4.2463,27.54414 1.19511,2.44094 -0.54812,6.04026 -3.86735,7.99822 -4.85161,2.86226 -4.82323,3.99009 0.0644,5.76685 4.90341,1.77548 4.90771,3.48668 0.0154,8.67768 -4.57883,4.85848 -4.69125,6.72445 -0.4084,7.45785 4.22244,0.72438 4.02491,2.85151 -0.78671,8.22049 -6.33668,7.06707 -6.25436,7.19754 3.03313,5.41992 l 9.52437,-1.81416 -7.52234,11.25599 c -5.4599,8.18072 -5.76921,10.22487 -1.12202,7.48558 7.9864,-4.70802 9.79584,1.53258 3.13953,10.84006 -4.54852,6.35946 -4.41891,6.89555 1.33483,5.79436 8.5328,-1.63576 10.27453,8.22521 2.57787,14.56942 -5.89323,4.85805 -5.85648,5.03129 0.88129,3.85338 8.08615,-1.41221 11.79487,7.77103 4.85289,12.01862 -3.68701,2.25588 -3.57997,2.68729 0.49868,2.14734 8.67811,-1.14568 7.95374,9.35069 -1.34773,19.49022 -9.86591,10.75302 -8.78085,11.42129 5.23228,3.21628 13.44287,-7.87142 15.17944,2.4287 2.18409,12.94698 -7.3435,5.94333 -7.71772,6.96004 -1.51753,4.10315 11.91265,-5.48806 16.05126,1.0597 7.88624,12.47625 -5.05129,7.062566 -5.28386,8.819338 -0.834,6.19611 8.435,-4.97241 10.48797,5.223461 2.39645,11.894163 -5.73997,4.731017 -5.67549,4.998626 0.72653,3.880893 5.38983,-0.941467 7.39724,1.803419 9.16024,12.475824 1.80127,10.895309 0.0645,15.401049 -8.4019,22.221365 -5.85777,4.706291 -12.14437,8.120535 -13.98347,7.582516 -1.83781,-0.539518 -6.13785,1.330534 -9.55467,4.158822 -5.07644,4.202024 -4.03565,4.50553 5.68732,1.648654 6.54389,-1.921636 15.37032,-6.150958 19.62522,-9.412372 16.55941,-12.69184 23.76534,-6.503049 8.59922,7.388211 -5.07514,4.648899 -13.45683,9.258469 -18.60894,10.244647 -5.61144,1.070444 -8.0668,3.271301 -6.1271,5.489356 0.4385,0.507277 0.58466,0.788858 0.45354,0.846897 -0.39121,0.171957 -3.18962,-1.569123 -7.38605,-4.685232 -5.59576,-4.153234 -9.44613,-9.390661 -8.55388,-11.644612 4.17,-10.534625 -1.20371,-21.628753 -14.95374,-30.843158 -19.97688,-13.388497 -30.20283,-25.455264 -11.34455,-13.39086 17.60041,11.25986 19.75655,11.420641 17.42587,1.246705 -0.95222,-4.168283 -3.04969,-6.426529 -4.67083,-5.017754 -1.62071,1.405759 -8.39803,-1.958185 -15.0451,-7.47182 -9.37111,-7.771895 -10.04217,-9.011505 -2.98779,-5.531057 5.00401,2.468894 13.41644,5.583498 18.68461,6.917257 8.98828,2.275226 9.16798,1.936685 3.00326,-5.517296 -3.61328,-4.368179 -7.70354,-6.966479 -9.08479,-5.766639 -1.37997,1.19726 -5.56673,-1.17147 -9.312,-5.26753 -6.12065,-6.69585 -6.04262,-7.08276 0.83616,-3.78438 9.5983,4.60377 14.19024,0.79316 13.95272,-11.58872 -0.19345,-9.63937 -5.91753,-12.62543 -7.05202,-3.67347 -0.6341,5.01195 -10.48905,0.22784 -29.55928,-14.34737 -6.22447,-4.75832 -3.23497,-3.94517 7.87141,2.13443 13.88395,7.60057 18.79315,8.61578 21.73322,4.50511 2.93985,-4.11068 1.41221,-6.61375 -6.76421,-11.13154 -5.80877,-3.20832 -10.32805,-4.52294 -10.04003,-2.91062 0.72653,4.07693 -14.97674,-12.42401 -16.12177,-16.93964 -0.51158,-2.01407 7.37639,1.77332 17.53205,8.40018 10.21908,6.6692 22.59903,11.48232 27.72405,10.78503 5.09342,-0.69213 7.84884,-2.61399 6.1271,-4.26973 -1.72389,-1.65295 -5.74127,-2.50996 -8.93283,-1.90015 -6.55442,1.25315 -10.94625,-11.55863 -5.5663,-16.23247 1.92809,-1.67445 3.11804,-4.69899 2.65418,-6.72337 -0.46429,-2.02266 -2.02696,-2.65677 -3.47313,-1.40147 -4.0823,3.54773 -6.78291,-16.32855 -3.5789,-26.32451 1.57557,-4.91458 2.40915,-10.93614 1.84856,-13.37689 -0.55886,-2.44052 1.59707,-7.41592 4.80775,-11.06166 3.2109,-3.64531 3.82501,-5.15275 1.34773,-3.34117 -6.11765,4.47824 -7.21281,-2.30489 -1.44445,-8.94077 4.58184,-5.26817 -0.37831,-20.98907 -5.27763,-16.73159 -1.38642,1.20372 -3.03894,-0.0645 -3.67046,-2.81388 -0.6298,-2.75478 1.2682,-4.64869 4.21664,-4.2145 2.94845,0.4342 6.29154,-1.57127 7.4312,-4.44965 1.17791,-2.9766 -0.10748,-5.47537 -3.00326,-5.78039 -2.78874,-0.29448 -5.39757,-1.99042 -5.80855,-3.78459 -0.41055,-1.79267 2.11724,-2.84398 5.61144,-2.32897 4.65148,0.68568 5.39391,-1.11558 2.80615,-6.76464 -2.55638,-5.5777 -1.80986,-7.46924 2.68406,-6.80612 3.41725,0.50083 7.0329,-1.16287 8.03821,-3.7012 1.17147,-2.96306 0.21925,-3.21649 -2.66901,-0.70933 -3.02024,2.62322 -4.21772,2.09575 -3.63994,-1.59492 0.47289,-3.02647 2.92201,-5.47581 5.44443,-5.46162 2.52307,0.0153 3.00605,-2.20107 1.07689,-4.93478 -1.23595,-1.75398 -0.45998,-6.51359 1.50034,-12.12955 l -57.17648,-258.94523 -186.74136,0 z m 810.46672,0 -52.9907,235.83691 c 0.3117,4.46813 -0.129,7.74094 -1.5606,8.01241 -0.065,0.0142 -0.1289,-0.043 -0.2278,-0.043 l -0.6513,2.86935 c 5.1388,0.87699 7.3594,5.38317 9.4336,19.11622 1.5068,9.98221 3.8728,17.92691 5.2626,17.66016 6.948,-1.33483 8.5771,-13.71865 3.9736,-30.20583 -5.2461,-18.78649 -2.3359,-37.26045 6.7186,-42.59827 3.9213,-2.31134 6.2397,2.25224 10.4497,20.62689 2.9726,12.976 3.8239,24.96797 1.8959,26.64327 -1.9281,1.67445 -3.94,1.19512 -4.4587,-1.06829 -0.518,-2.26383 -2.4109,-2.84376 -4.2162,-1.27679 -1.8056,1.56912 -2.3064,5.95729 -1.1091,9.74511 2.1215,6.70145 2.4411,6.626 11.7535,-2.59227 8.0486,-7.9662 8.9679,-12.1117 5.7787,-26.03283 -4.8346,-21.10148 0.6492,-39.65433 12.4514,-42.14107 1.6722,-0.35251 3.9752,8.95132 5.1258,20.68234 1.539,15.69768 3.1597,20.40398 6.1426,17.81299 2.2292,-1.93669 2.7789,-9.12112 1.2123,-15.95541 -4.0909,-17.85512 -0.589,-32.18357 9.2664,-37.95472 4.7067,-2.75607 10.3681,-8.13731 12.5726,-11.94898 6.524,-11.27953 10.8102,-9.23575 15.2572,7.24977 l 4.1861,15.52551 -1.3498,-16.93922 c -1.0146,-12.66583 0.7544,-18.46557 7.0524,-22.99757 4.633,-3.33356 10.0274,-8.30227 11.981,-11.0342 5.6028,-7.83328 9.1465,-6.85884 13.4526,3.70113 3.8624,9.47166 3.9373,9.42072 1.971,-1.81588 -2.1976,-12.56142 4.8033,-24.88324 10.8438,-19.07431 1.9237,1.84809 2.7556,5.24073 1.8507,7.5272 -0.9028,2.28648 0.3805,3.76085 2.8663,3.28529 2.4848,-0.47565 3.1518,-4.29032 1.4724,-8.46978 -1.8808,-4.67408 -0.3589,-9.76516 3.9583,-13.23842 3.8594,-3.10555 8.6994,-8.56644 10.7528,-12.12934 3.3188,-5.75822 3.9086,-5.86702 5.3084,-1.012 0.8661,3.00401 2.9288,0.015 4.58,-6.64001 1.6509,-6.65575 3.4237,-10.91602 3.9433,-9.46779 0.3912,1.09062 3.8269,-2.02958 8.3413,-7.3747 l 22.2641,-74.30119 -165.5543,0 z m 127.5934,126.65855 c -2.4122,0.89613 -6.275,3.81482 -9.8126,7.58263 -4.5949,4.89363 -6.4309,8.56512 -4.095,8.1648 2.3361,-0.40002 5.8008,-2.91094 7.7045,-5.57262 1.3842,-1.93603 2.6867,-2.78972 4.0038,-2.814 l 2.1993,-7.36081 z m -27.4055,14.87409 c -0.5223,-0.0946 -1.0683,-0.0946 -1.6228,0.0142 -2.2146,0.42388 -3.6483,2.4252 -3.1845,4.44971 0.4643,2.02438 2.6531,3.33481 4.8682,2.91109 2.2148,-0.42388 3.6487,-2.42531 3.1851,-4.4498 -0.3461,-1.51818 -1.6723,-2.64051 -3.2455,-2.92493 z m 22.5524,1.31699 c -1.0446,0.63431 -2.0699,1.27163 -3.3366,1.88531 -10.9652,5.30987 -11.2328,5.84851 -2.2751,4.49133 1.61,-0.24354 2.7626,-0.35316 3.8218,-0.4299 l 1.7885,-5.94684 z m -18.7609,10.60455 c -3.7532,-0.28374 -5.8324,1.10268 -7.613,4.58843 -1.724,3.37164 -8.1515,10.28008 -14.287,15.35932 -6.2801,5.19895 -9.8008,11.16355 -8.053,13.64018 1.9925,2.82357 0.3417,4.47308 -4.5954,4.60248 -4.233,0.10748 -10.3638,3.83769 -13.6344,8.27573 -5.7527,7.80564 -5.3309,7.90795 12.6789,3.47915 12.7768,-3.14361 16.7976,-3.13265 12.8456,0.0144 -3.1671,2.52157 -12.2577,5.00422 -20.2011,5.53106 -9.128,0.60615 -16.0758,3.25668 -18.8822,7.18035 -5.7894,8.09495 -8.6793,8.41996 -17.3499,1.95388 -6.4122,-4.78067 -6.4597,-4.51972 -0.5331,2.46739 6.0998,7.18831 8.2669,7.31083 26.8445,1.49819 14.1558,-4.43008 18.65,-4.86428 15.0145,-1.45735 -2.8549,2.67697 -12.7948,6.34012 -22.0971,8.15128 -17.4966,3.40972 -35.9999,13.4577 -34.761,18.86644 0.3891,1.6981 10.6732,1.18222 22.8554,-1.15212 12.1822,-2.33176 22.5094,-2.68384 22.9464,-0.77596 0.4622,2.01621 -12.4302,5.26774 -30.8027,7.76243 -23.7509,3.22552 -29.8585,5.02184 -24.6144,7.22227 6.0237,2.52715 6.0089,2.83022 -0.1075,2.25954 -3.9047,-0.36112 -9.9192,2.30273 -13.3614,5.91903 -5.5388,5.81865 -2.6651,5.90377 24.9789,0.72437 18.052,-3.38457 31.5884,-4.30348 32.0764,-2.17657 0.4621,2.02482 -0.4751,4.15066 -2.0786,4.72694 -12.4257,4.47027 -20.7347,5.81069 -21.2786,3.43809 -0.3546,-1.54332 -10.5264,-0.84044 -22.6125,1.58202 -13.5371,2.70728 -20.7013,5.62843 -18.6544,7.5965 2.0571,1.97752 -0.6878,3.05012 -7.2192,2.81389 -6.6681,-0.24074 -12.8889,2.27071 -16.9255,6.83407 -5.114,5.78082 -5.1357,6.57892 -0.086,4.01996 8.1913,-4.16763 78.5736,-2.54972 79.5772,1.82921 1.266,5.52482 -22.8136,8.35117 -34.746,4.07542 -6.0977,-2.18495 -12.6288,-2.6357 -14.5141,-1.00165 -1.883,1.64005 -11.6877,2.0205 -21.7787,0.85979 -18.4997,-2.13014 -32.6625,2.58346 -16.8646,5.61423 7.227,1.38642 7.0222,1.64866 -1.3348,1.77548 -6.8829,0.10747 -12.3256,1.60137 -15.6665,3.95075 l -2.2598,10.09182 c 2.8285,4.70759 9.2477,4.7048 16.0915,-0.54166 3.9737,-3.04582 7.5213,-4.23685 7.8862,-2.64753 0.3655,1.59062 7.4856,1.74968 15.8336,0.34607 20.747,-3.48796 84.5643,-10.19092 86.599,-9.09339 0.9049,0.49008 -4.9183,4.00019 -12.9367,7.79059 -19.8849,9.39927 -57.8261,16.27783 -65.7456,11.92147 -5.1822,-2.85022 -5.6951,-2.76037 -2.5783,0.48793 5.53,5.75825 -2.5874,6.46157 -11.7082,1.01241 -4.9041,-2.92975 -7.3033,-2.99573 -6.658,-0.19345 0.7652,3.33879 -0.6771,3.57888 -6.021,1.00165 -3.8665,-1.87004 -9.5518,-1.91304 -12.6334,-0.086 -3.0815,1.81631 -5.9252,1.8851 -6.3244,0.12897 -0.2343,-1.02315 -1.6078,-2.0635 -3.4428,-2.8975 l -1.1844,5.32298 c 1.4294,1.22736 1.2359,1.60782 -0.3331,1.44231 l -2.0936,9.31543 c 5.9616,-1.68305 9.7694,-1.33483 10.359,1.2338 0.5653,2.47126 3.3618,3.11181 6.218,1.42511 2.856,-1.68305 6.6572,-2.1785 8.4477,-1.10699 1.7905,1.07045 6.299,1.37783 10.0248,0.69214 3.7256,-0.68569 6.8306,0.64914 6.9005,2.9665 0.065,2.56369 4.0569,2.70814 10.1765,0.37187 6.4394,-2.45622 9.4203,-2.26169 8.3109,0.54381 -1.079,2.7249 1.1371,3.06323 5.8847,0.90064 4.1902,-1.90875 7.993,-1.84211 8.4479,0.12897 0.4535,1.98182 4.8138,2.44524 9.6907,1.02745 14.7472,-4.29231 44.404,-4.89545 45.0285,-0.91568 0.763,4.86321 -18.7588,10.07011 -19.8524,5.29546 -0.4966,-2.17204 -3.0087,-1.90443 -6.2181,0.6513 -7.3564,5.85691 -34.5497,7.82305 -32.38,2.34251 1.0833,-2.73716 -2.0506,-2.87773 -8.6145,-0.37401 -5.6824,2.16775 -11.6328,2.69524 -13.2249,1.16501 -1.5928,-1.53042 -6.0461,-0.38045 -9.8883,2.56456 -3.842,2.94458 -6.9617,3.97977 -6.9463,2.30123 0.065,-6.09593 -9.1647,-14.63174 -12.588,-11.65858 -2.1677,1.88509 -1.1155,3.97053 2.7453,5.46206 4.5894,1.77332 3.998,2.34809 -2.2139,2.14733 -4.3727,-0.12897 -14.966,0.086 -24.2817,0.49868 l -8.8266,39.3132 c 1.3305,-0.26869 2.9444,-0.73942 5.111,-1.56697 7.9607,-3.03594 9.7189,-2.51748 8.8116,2.62 -0.9436,5.34254 0.8835,5.6353 10.8745,1.73249 8.0109,-3.12901 11.4193,-3.22617 10.2519,-0.27944 -1.0984,2.77929 1.0791,3.13868 5.8697,0.95438 4.3174,-1.96679 8.0411,-1.66155 8.5842,0.70717 0.5996,2.62194 4.5143,2.60109 10.4947,-0.0645 6.2553,-2.77863 9.8834,-2.69846 10.5558,0.23645 0.5653,2.46459 3.5219,3.01013 6.5821,1.2037 3.0553,-1.80126 5.8382,-2.02696 6.1877,-0.49868 0.748,3.26228 10.821,2.48803 41.6463,-3.2023 3.1137,-0.57391 6.66,-1.52398 10.3741,-2.66149 l 13.8164,-46.14705 c -0.6126,-0.84045 -1.1457,-2.00977 -1.4573,-3.36867 -0.3934,-1.72389 1.1585,-3.64316 4.1252,-5.54481 l 58.7846,-196.12184 c -3.0506,1.29249 -6.9954,1.46595 -11.0718,0.37423 -1.6767,-0.44881 -3.1168,-0.73727 -4.3677,-0.83185 z m -15.3632,5.40625 c -2.4111,-0.18701 -6.7896,2.31888 -7.9623,5.28152 -0.7008,1.77117 0.086,2.36894 1.9409,1.74753 0.6148,-0.2171 1.3478,-0.53952 2.17,-1.0253 3.1614,-1.86361 5.5961,-4.04211 5.4143,-4.83785 -0.1505,-0.74523 -0.7588,-1.10183 -1.5627,-1.16438 z m -17.0622,0.74888 c -0.1934,0.15046 -0.1934,2.24621 -0.065,6.33496 0.2236,8.98355 -0.065,9.15486 -4.9594,2.86956 -4.3027,-5.53127 -4.7762,-5.58307 -2.7145,-0.24934 1.5713,4.06811 3.8369,5.79608 5.7327,5.60026 2.4369,-0.25364 4.2683,-3.67089 3.2453,-9.31543 -0.6577,-3.62274 -1.0425,-5.39585 -1.2274,-5.2398 z m 36.3534,4.72693 c 1.8937,0.12896 2.8861,1.07904 2.3208,2.50909 -0.7545,1.90659 -3.0727,3.78739 -5.1566,4.18634 -2.085,0.3998 -4.1184,-0.65559 -4.5044,-2.34273 -0.387,-1.68734 1.9473,-3.56878 5.1718,-4.18634 0.8039,-0.15046 1.539,-0.21709 2.1677,-0.17195 z m -75.5884,27.72426 c -0.1934,0.15046 -0.3267,0.68783 -0.3804,1.62285 -0.1935,3.73688 1.1199,9.5291 2.9424,12.87821 0.4557,0.8383 0.8147,1.27249 1.0597,1.34558 0.7395,0.21925 0.5202,-2.82314 -0.6985,-8.1373 -1.2188,-5.31417 -2.3469,-8.18094 -2.9275,-7.70741 z m -26.9196,43.791 c -2.3393,-0.0645 -6.3144,3.84543 -7.0525,8.02596 -0.4836,2.72899 -0.5696,4.11196 0,4.21407 0.5696,0.10746 1.7948,-1.07045 3.9129,-3.50711 2.7868,-3.20445 4.9219,-6.4579 4.7469,-7.22205 -0.2364,-1.0296 -0.8275,-1.49388 -1.6078,-1.51108 z m -287.5213,16.98093 c 3.7451,-0.71793 14.0742,9.27309 12.2394,11.83849 -0.2816,0.39551 -0.5868,0.61476 -0.8963,0.69429 -0.9243,0.23214 -1.8959,-0.8899 -2.4115,-3.03572 -1.0339,-4.28435 -1.7239,-4.09433 -3.8977,1.0683 -2.1323,5.06891 -3.011,4.67748 -4.5954,-2.00977 -1.0768,-4.54874 -1.2768,-8.39266 -0.4385,-8.55323 z m -395.45857,11.87998 c 1.04895,-0.17196 2.12154,-0.043 3.09376,0.55457 5.48483,3.27731 4.71123,7.97114 -1.51754,9.16303 -3.32246,0.6341 -6.40353,-0.41055 -6.83988,-2.315 -0.7953,-3.48108 2.11509,-6.8921 5.26259,-7.4026 z m 617.31007,3.57652 -1.1371,5.01819 c 1.8507,1.14567 4.2674,1.77762 6.0209,1.44231 2.2146,-0.42345 2.5304,-2.21656 0.6965,-3.9787 -1.3864,-1.33268 -3.6187,-2.28017 -5.581,-2.48137 z m 6.5065,10.29947 c -2.5981,-0.17196 -4.297,3.32719 -4.1711,9.92524 0.086,5.06656 0.4879,7.21217 2.1388,7.05612 0.9887,-0.086 2.4355,-1.01241 4.5345,-2.61979 3.7253,-2.8556 4.9772,-7.12512 2.942,-10.00865 -2.0033,-2.8414 -3.8856,-4.25619 -5.4442,-4.35292 z m -625.72746,8.42834 c 2.03341,0.38046 3.19606,1.94743 2.80551,4.1584 -0.51803,2.9306 3.60296,6.32334 9.23655,7.5967 9.3208,2.10649 9.49577,2.4315 2.13873,3.99203 -4.40988,0.93502 -16.58391,1.45089 -27.05663,1.15212 -10.1834,-0.29019 -22.46705,-0.22785 -28.04238,0.10747 l -1.42941,-6.23802 c 3.19048,-0.043 6.62321,-0.009 10.3431,0.15047 18.19345,0.78671 21.93248,0.0645 22.71876,-4.39419 0.51802,-2.93448 3.66959,-5.85176 6.99184,-6.48758 0.8426,-0.17195 1.61426,-0.17195 2.29006,-0.0644 z m 614.79216,0.92858 -3.6397,16.21872 c 3.2336,-3.70292 5.22,-7.40605 4.7772,-10.0641 -0.3676,-2.2187 -0.7609,-4.0305 -1.1392,-6.15462 z m -220.6985,2.23159 2.3204,9.27395 c 0.5309,0.34392 1.0189,0.55886 1.5455,0.94363 4.2611,3.09568 4.8372,5.22797 2.0484,7.65173 -0.5244,0.45569 -0.8619,0.96511 -1.0769,1.49819 l 1.1092,4.44964 c 0.9414,1.44446 2.2496,3.03056 4.3527,4.94855 9.8874,9.01902 10.6793,11.19171 4.4741,12.3793 -2.5841,0.49439 -3.8379,-0.33101 -2.7756,-1.81415 1.2231,-1.71315 -0.8748,-4.34218 -3.7461,-6.27973 l 3.2913,13.21094 c 5.2123,3.34181 9.0257,4.11691 10.6616,1.82707 3.8891,-5.43734 0.7201,-27.52995 -4.1861,-29.15217 -2.0291,-0.67063 -3.2786,0.63411 -2.7601,2.89708 0.518,2.26384 -1.4123,3.33708 -4.2919,2.38464 -3.6587,-1.20801 -3.4312,-3.5546 0.7265,-7.77705 5.6005,-5.68538 5.3518,-6.34377 -4.0041,-11.03373 -2.9035,-1.45735 -5.6245,-3.43294 -7.6893,-5.4066 z m 124.833,3.14706 c -0.4062,0.31382 -0.7523,0.62766 -1.1972,0.94363 -6.8085,4.78819 -6.9233,5.53728 -0.7588,4.57453 1.266,-0.19345 2.3511,-0.24504 3.2608,-0.10748 l -1.3048,-5.40638 z m -249.2868,7.29127 c 1.56697,0.25364 2.873,1.29184 3.2002,2.71695 0.4384,1.90659 -0.7846,4.82623 -2.71463,6.50154 -0.48149,0.41915 -0.98662,0.65989 -1.4724,0.73512 -1.45735,0.2171 -2.80959,-1.05754 -3.35148,-3.42391 -0.72437,-3.1563 0.49868,-6.07789 2.71459,-6.50133 0.55457,-0.10747 1.09839,-0.10747 1.62286,-0.043 z m 216.1186,0.83185 c -1.9647,0.43419 -2.7608,1.79696 -2.2449,4.0477 0.4621,2.02696 3.7663,3.12104 7.3254,2.44009 4.2467,-0.81251 6.083,0.93072 5.3539,5.05967 -0.6104,3.45959 -0.5524,8.74732 0.129,11.75488 0.9114,3.98062 -1.3585,5.2441 -8.3871,4.6302 -9.5669,-0.8383 -9.5699,-0.79531 -0.1934,5.53105 9.8364,6.62879 6.2219,10.5127 -4.0641,4.36625 -3.8082,-2.27502 -5.5368,-2.11294 -4.9444,0.47289 1.2811,5.58865 9.1462,9.29866 14.7113,8.40039 1.855,-0.29662 3.4572,-1.11558 4.4741,-2.53703 2.0291,-2.83388 6.836,-5.76319 10.692,-6.50111 3.8562,-0.73728 7.6431,-2.93706 8.4174,-4.89331 0.7738,-1.95603 -3.1664,-1.80126 -8.7661,0.33317 -8.4578,3.2253 -9.9783,2.70083 -8.9635,-3.0499 3.1345,-17.7528 1.827,-26.47304 -4.2614,-28.55589 -4.1953,-1.43586 -7.3316,-1.93238 -9.297,-1.49604 z m -204.198,2.38442 c 1.8873,-0.46858 2.5729,0.73082 2.0635,3.6178 -0.6964,3.9314 -3.5453,6.52991 -5.8846,6.62643 -1.3993,0.0645 -2.6237,-0.78672 -3.0785,-2.77262 -0.4149,-1.80772 1.6594,-4.70566 4.6104,-6.44588 0.8963,-0.53092 1.6616,-0.86839 2.2901,-1.02745 z m 389.4534,5.37866 c 0.9888,0.17196 0.9651,0.65129 -0.3031,1.42941 -1.2661,0.77595 -3.0284,1.38426 -4.8533,1.73248 -1.8249,0.34822 -3.7158,0.43849 -5.217,0.19344 -3.0024,-0.49222 -0.9264,-1.75397 4.6102,-2.81367 2.7687,-0.53092 4.7738,-0.70287 5.7636,-0.54166 z m -412.68824,3.10514 c 2.31005,-0.32887 5.44271,1.52613 7.71965,5.80812 2.61851,4.92468 6.32469,7.42023 8.37179,5.64196 2.1173,-1.83995 2.8814,-1.19296 1.8056,1.52614 -0.5739,1.44875 -2.0506,2.24814 -3.9735,2.52285 -5.7684,0.82325 -15.52103,-3.05506 -16.69831,-8.19254 -1.02315,-4.46233 0.46644,-6.97573 2.77542,-7.30545 z m 265.33314,0.70933 c -0.086,3.81082 -0.2579,6.97852 -0.2278,10.83984 0.086,12.66563 -15.7487,29.68846 -23.705,25.45119 -2.0807,-1.10269 -2.057,-0.24504 0.065,1.91304 2.7475,2.82034 6.6692,2.33025 13.9377,-1.73249 8.9261,-4.98874 9.4332,-4.90641 4.2315,0.72438 -6.1557,6.65846 -6.4936,17.46907 -0.3805,12.15727 1.9281,-1.67445 4.1113,-0.4428 4.8379,2.7307 0.9866,4.30434 2.9228,4.57496 7.6134,1.09408 0.6363,-0.47288 4.2302,-3.05656 5.4752,-3.96472 l -3.2001,-13.29391 c -3.6853,-2.0979 -4.167,-4.05586 -1.8637,-7.76265 l -6.7644,-28.15416 z m -558.04061,0.043 c 4.02469,-0.17196 6.84374,0.27943 7.0978,1.38642 0.38906,1.69165 -4.48275,3.3734 -10.23712,4.39419 l -1.22737,-5.39241 c 1.55838,-0.19345 3.02627,-0.33102 4.36754,-0.38906 z m 285.07917,13.9594 c 3.63994,-0.69858 18.1094,13.81215 19.21531,19.2684 0.28158,1.38427 0.15046,2.15034 -0.31598,2.32896 -0.81679,0.29449 -2.68276,-1.07259 -5.55103,-4.10378 -3.86327,-4.0808 -8.02876,-6.01986 -9.25095,-4.31101 -1.22306,1.70884 -3.04475,-0.47934 -4.04963,-4.86557 -1.01241,-4.38646 -1.02961,-8.12914 -0.0645,-8.317 z m -168.16294,3.54858 c 5.37177,-0.77382 17.00779,4.75423 14.75685,7.9015 -1.12418,1.57128 -4.94488,1.4638 -8.49304,-0.25149 -5.15876,-2.49275 -5.58672,-1.90659 -2.13874,2.98026 2.96758,4.20569 2.64559,5.5777 -1.01455,4.36668 -2.92695,-0.96727 -4.92039,-0.009 -4.42859,2.13444 0.49009,2.14303 2.81067,3.52666 5.1564,3.0772 2.34552,-0.44925 3.49206,1.16717 2.53274,3.59028 -0.4127,1.0425 -1.12418,1.63576 -2.07855,1.77547 -1.58632,0.23215 -3.84715,-0.77166 -6.56711,-2.99401 -3.79448,-3.09848 -5.34834,-6.51358 -3.44282,-7.58274 1.90659,-1.07044 2.95038,-4.19665 2.32058,-6.94477 -0.6298,-2.74854 0.0645,-6.03059 1.53258,-7.30545 0.45354,-0.3955 1.09624,-0.63624 1.8636,-0.74802 z m 354.14598,9.62002 c -2.671,0.0644 -6.2604,0.50727 -10.1308,1.37352 -6.9383,1.54762 -13.8136,1.4552 -19.5944,0.21709 l 1.2746,5.12889 c 13.4455,0.69428 33.8823,-2.02267 33.0621,-5.60049 -0.1935,-0.791 -1.9389,-1.15857 -4.6102,-1.10913 z m -125.8338,6.70961 c -0.4321,0.12897 -0.9651,0.46859 -1.5928,1.0124 -2.1323,1.85286 -3.3381,6.26898 -2.6845,9.80058 3.8579,20.84183 3.269,28.33837 -2.6539,34.35025 -5.7579,5.84467 -5.7256,6.55378 0.1934,5.42014 3.3375,-0.63624 5.8786,1.2768 7.5984,4.22804 l 6.0055,-23.39971 c -1.0855,-1.35632 -1.7454,-2.30704 -1.4853,-2.35605 0.2558,-0.0645 0.9737,0.27084 1.8958,0.76306 l 2.2142,-8.60825 c -7.5191,-5.78319 -7.1404,-6.06003 0.5159,-2.03771 l 1.7475,-6.75067 c -3.4774,-1.51969 -6.7244,-2.50716 -8.5238,-2.16345 -1.8055,0.34606 -2.7498,-2.34874 -2.1086,-5.98847 0.5675,-3.20574 0.1505,-4.66352 -1.1242,-4.26952 z m 163.9312,3.1189 c 1.7669,0.36111 5.5369,2.5465 12.0726,6.72316 6.3612,4.06553 9.8728,7.67064 7.8104,7.99844 -5.5535,0.88129 -17.5836,-5.4541 -19.9436,-10.49335 -1.4681,-3.13481 -1.7045,-4.59173 0.065,-4.22825 z m -63.273,0.0135 c -0.9802,0.19346 -1.4015,1.99473 -0.9394,4.02018 0.4643,2.02267 2.766,3.3186 5.1111,2.86914 2.3457,-0.44924 2.7582,-2.25739 0.9243,-4.01975 -1.8314,-1.76258 -4.1191,-3.05722 -5.096,-2.86957 z m -342.39262,7.76285 c 2.39281,-0.0644 6.65029,2.06136 10.52538,5.75267 5.68538,5.41691 7.84433,8.62845 6.67307,9.13509 -0.90923,0.39336 -3.84457,-0.8426 -8.68993,-3.96451 -5.42552,-3.49829 -10.06152,-7.26182 -10.31323,-8.3587 -0.3912,-1.71743 0.36757,-2.53295 1.80557,-2.56455 z m 342.36202,2.0936 10.0401,40.29724 c 2.7382,-0.83616 4.9053,-2.5364 5.3386,-4.99025 0.5095,-2.89191 6.9575,-7.53351 14.3167,-10.31344 7.446,-2.8126 11.9058,-6.46822 10.0553,-8.248 -2.0356,-1.95603 -4.8454,-1.54547 -7.2343,1.0554 -2.1474,2.33885 -7.0901,4.80861 -10.9803,5.48935 -5.3657,0.94148 -7.786,-1.87005 -10.0247,-11.64418 -1.6229,-7.08577 -3.8285,-11.6573 -4.8987,-10.16082 -0.6427,0.89848 -3.2625,0.17195 -6.6127,-1.48315 z m 65.5634,4.61623 c 2.9957,-0.22569 17.4759,7.32157 17.9419,9.35692 0.4214,1.83781 -0.2987,2.76101 -1.6959,2.86935 -2.3328,0.19345 -6.5673,-1.89585 -10.6014,-5.73891 -3.694,-3.51935 -6.2289,-6.4448 -5.642,-6.48736 z m -496.90567,4.5468 c -0.92858,0.0645 -2.04201,0.38906 -3.32116,0.85979 l 3.65498,12.5315 c 5.39219,1.59492 5.94332,0.35252 4.83848,-6.4319 -0.8297,-5.08955 -2.1843,-7.15198 -5.1723,-6.95874 z m 450.75497,0.31813 c -2.2148,0.42345 -3.6483,2.43923 -3.1847,4.46362 0.4643,2.02266 2.6533,3.32095 4.8684,2.89707 2.2148,-0.4213 3.6485,-2.42483 3.1849,-4.44986 -0.4643,-2.02266 -2.6534,-3.33449 -4.8686,-2.91083 z m 106.5276,0.94147 c -5.8521,1.31548 -10.9448,2.63957 -13.5285,3.74269 -1.3327,0.57175 -2.3453,5.34103 -2.2447,10.6049 0.1505,8.49734 1.5434,9.31372 12.3303,7.24978 l 8.2504,-1.58202 -4.8075,-20.01685 z m -63.668,2.95253 c 1.9302,-0.0644 5.4094,1.52614 10.8136,4.79658 7.6643,4.64094 8.0535,5.72687 3.0486,8.67746 -0.9049,0.53308 -1.7539,0.88774 -2.5177,1.05539 -2.2887,0.50084 -3.8781,-0.62764 -4.4893,-3.29902 -0.7115,-3.09268 -2.6091,-4.48726 -4.2158,-3.09096 -1.6079,1.39717 -3.4802,0.12897 -4.1561,-2.82829 -0.7931,-3.46626 -0.4148,-5.22905 1.5176,-5.30901 z m -409.86638,1.6637 c 1.77978,0.33962 5.57017,3.10901 12.10246,8.42877 12.58866,10.24961 14.09846,12.82769 8.18975,13.95875 -2.21462,0.42345 -4.59732,-1.71958 -5.29289,-4.75488 -1.65941,-7.24332 -8.14548,-5.85777 -9.53963,2.03772 -0.64699,3.65864 3.7358,9.07792 10.72249,13.25222 6.49703,3.88174 10.50732,8.18437 8.91778,9.56477 -0.19346,0.17195 -0.48149,0.27083 -0.84905,0.29018 -2.56885,0.15046 -8.98914,-3.27689 -15.43953,-8.37245 -13.91597,-10.99462 -17.75194,-16.28621 -9.91814,-13.69609 4.63815,1.53258 4.99819,-3.33492 1.07903,-14.61047 -1.51538,-4.35786 -1.74752,-6.44007 0.043,-6.09959 z m 181.60001,7.2917 c 0.56962,-0.57391 5.92398,3.05119 16.12156,10.90927 6.89554,5.31374 9.89773,7.93031 9.23612,8.13731 -0.39766,0.12897 -2.10005,-0.62335 -5.09557,-2.16324 -5.96503,-3.06087 -13.23222,-8.14548 -16.13682,-11.31123 -3.08515,-3.36288 -4.46598,-5.22776 -4.12529,-5.57298 z m -144.68563,0.8168 c -0.41055,-0.24719 -1.33698,0.75232 -2.91191,2.93899 -2.18086,3.02368 -2.74296,6.22921 -1.2424,7.12532 0.37616,0.2257 0.76307,0.2343 1.15427,0.0645 1.16717,-0.50299 2.29522,-2.61915 2.80551,-5.55857 0.49008,-2.83237 0.60615,-4.32842 0.19346,-4.57453 z m 442.4435,11.49178 -2.7902,4.78283 c -3.1172,5.35113 -3.5592,7.16788 -0.9866,4.03371 1.0038,-1.2209 2.8713,-2.4805 5.0048,-3.67346 l -1.2273,-5.14308 z m -104.8135,0.59756 c -0.5224,-0.086 -1.0834,-0.086 -1.6379,0.0134 -2.2149,0.42345 -3.6333,2.42548 -3.1699,4.44965 0.4643,2.02266 2.6536,3.33492 4.8684,2.91126 2.2152,-0.4213 3.6485,-2.42527 3.1849,-4.44965 -0.3461,-1.51969 -1.6723,-2.64064 -3.2455,-2.92502 z m -146.384,5.2398 c -0.7265,0.009 -1.683,0.086 -2.8665,0.27729 -4.282,0.65344 -6.4566,1.97107 -4.8381,2.93877 0.8082,0.48363 2.0915,0.604 3.5035,0.38906 1.41,-0.21925 2.945,-0.75448 4.2768,-1.56698 2.2075,-1.34557 2.1065,-2.0635 -0.064,-2.03771 z m 134.1147,2.31521 c -0.7931,-0.086 -1.6357,-0.0645 -2.4876,0.086 -0.5674,0.10747 -0.9372,0.32242 -1.3778,0.49867 l 6.7487,27.11425 c 1.5498,-1.39287 2.6703,-2.50008 2.5938,-2.84184 -0.3095,-1.37137 4.9419,-3.73602 11.6627,-5.25334 6.7206,-1.51968 13.9097,-5.18047 15.9851,-8.13751 2.945,-4.19601 1.2295,-4.39785 -7.8104,-0.88774 -10.0293,3.89551 -10.4755,3.78717 -3.3519,-0.87054 11.6027,-7.59069 9.3399,-10.47014 -4.4589,-5.68345 -7.7154,2.67675 -12.0302,2.48867 -12.7245,-0.54167 -0.4342,-1.89369 -2.3892,-3.22122 -4.7772,-3.49334 z m 95.8657,4.42171 c -1.5089,0.12897 -2.3221,1.26819 -1.9109,3.06344 0.6771,2.96629 -0.8684,3.50236 -4.8684,1.6766 -3.2272,-1.47025 -10.6485,-1.49819 -16.5007,-0.0645 -5.8524,1.4294 -10.0793,1.13492 -9.3728,-0.6513 1.352,-3.41811 -24.6724,3.79319 -29.8168,8.26176 -1.6465,1.4294 -2.9059,6.85706 -2.8059,12.06054 0.129,8.11279 1.0833,8.76086 6.5669,4.56034 9.8472,-7.54727 15.9474,-7.43162 15.5306,0.29018 -0.3116,5.7935 1.5562,6.3513 10.7679,3.25732 6.4003,-2.15012 11.533,-2.0377 12.0571,0.2515 0.5008,2.19075 3.2472,2.60861 6.0968,0.92858 7.5255,-4.43611 13.2131,2.85623 8.8419,11.33938 -3.175,6.16193 -3.0402,6.40783 0.849,1.59492 6.9996,-8.66264 23.1375,-10.71281 21.7328,-2.75865 -0.9802,5.54803 -0.016,5.59403 6.9465,0.25149 3.7979,-2.91083 6.9811,-4.2304 9.7062,-4.13088 l -7.7192,-32.14488 c -0.5159,-0.40196 -1.0425,-0.69643 -1.5455,-1.20371 -3.7891,-3.8435 -5.3569,-4.07134 -4.671,-0.70718 0.7802,3.82479 -0.5439,4.30606 -5.323,1.99472 -3.4895,-1.6852 -7.5402,-1.55623 -9.0089,0.29233 -1.4703,1.84641 -1.8916,1.18221 -0.9394,-1.49819 0.9479,-2.67783 -0.3546,-5.56394 -2.897,-6.40461 -0.6341,-0.21709 -1.2102,-0.28802 -1.7132,-0.25149 z m 199.7236,4.29724 c -3.9561,0.95652 -7.6378,1.90014 -12.3754,2.92524 -21.3764,4.62977 -40.7581,10.06344 -43.0723,12.07387 -2.664,2.31391 -3.5081,1.88939 -2.3052,-1.15214 1.1757,-2.97058 -0.9631,-4.24136 -5.5965,-3.35448 -4.1173,0.78671 -10.3904,-0.17196 -13.9527,-2.13443 -5.0524,-2.7795 -5.6331,-2.67847 -2.6239,0.45783 2.5857,2.69438 1.6423,3.68723 -2.8663,3.02196 -3.7001,-0.54596 -6.0728,-2.66622 -5.2626,-4.71295 0.8104,-2.04846 -0.2966,-3.37963 -2.457,-2.9665 -2.1614,0.41485 -4.1696,2.41279 -4.474,4.44964 -0.4493,3.00476 -24.8913,1.56052 -41.3582,-1.20371 l -6.931,30.85734 c 0.017,0.003 0.065,-0.004 0.065,0 1.7776,0.19346 3.0927,1.39932 2.9272,2.70277 -0.1504,1.30473 3.9647,0.75017 9.1755,-1.23381 5.2108,-1.98827 9.8445,-1.99257 10.2977,-0.0144 0.4536,1.97968 5.6171,1.77977 11.4656,-0.4428 9.9433,-3.78008 10.3599,-3.52085 6.4005,4.10315 -3.3235,6.39923 -3.2545,6.94005 0.3483,2.48137 5.2358,-6.47941 24.3826,-11.2934 22.1125,-5.55878 -0.8232,2.07425 2.2013,2.09789 6.7186,0.0645 4.6219,-2.10435 7.5366,-2.05706 6.6729,0.12897 -2.35,5.9373 29.9475,-2.49813 59.0573,-13.68168 l 8.0232,-26.78214 z m -106.7702,4.00621 c -0.7266,0.009 -1.6831,0.086 -2.8661,0.27944 -4.282,0.65128 -6.4719,1.97107 -4.8532,2.93855 0.8083,0.48364 2.0915,0.60401 3.5032,0.38906 1.4123,-0.2171 2.9601,-0.75447 4.2917,-1.56697 2.2078,-1.34558 2.1066,-2.06351 -0.065,-2.03987 z m -309.3753,10.09161 c -3.4099,1.76473 -7.1459,2.58282 -9.2967,1.8722 -3.1677,-1.04895 -3.6599,-0.27083 -1.2897,2.01192 1.696,1.63576 5.3432,1.90229 9.3574,0.88774 l 1.2273,-4.76885 z m 142.0768,7.90129 -7.5072,8.80257 c -1.5369,1.80556 -4.0366,3.66874 -6.8246,5.44786 l 8.4625,33.976254 c 5.4055,-3.088814 8.5951,-3.319664 11.8299,-1.304734 4.1904,2.612478 3.6528,5.291163 -2.1992,10.826945 -2.3657,2.237613 -4.3045,4.668889 -5.5658,6.750452 l 0.9393,3.784168 c 1.4595,-0.99736 3.399,-2.904809 5.4902,-5.614023 6.914,-8.958619 25.0408,-15.701122 26.3894,-9.814331 0.3698,1.620717 -1.0876,5.563297 -3.2457,8.760657 -3.241,4.803454 -2.6381,4.700277 3.5187,-0.526626 4.0986,-3.479587 10.9529,-5.800382 15.2265,-5.170373 7.3633,1.083346 7.4312,1.508947 1.3198,7.929019 -5.7501,6.041766 -5.1158,6.015119 5.8087,-0.217095 9.7407,-5.548463 13.1063,-6.146879 16.4707,-2.911264 2.3279,2.238476 6.8595,2.521345 10.0553,0.636249 3.1956,-1.885101 7.4149,-1.885101 9.3726,0 1.9582,1.882944 8.1992,2.542199 13.8771,1.457348 9.1577,-1.75183 9.8612,-1.173621 6.203,5.198314 -3.7569,6.542387 -3.3762,6.602996 4.3071,0.735123 6.0994,-4.658149 9.907,-5.557062 13.7561,-3.257757 2.9265,1.747531 9.7094,2.344011 15.0749,1.317631 8.6283,-1.6508 9.2739,-1.042497 5.6267,5.309016 -3.7115,6.4635 -3.3699,6.610309 3.382,1.455196 5.563,-4.247592 8.9539,-4.864282 13.1035,-2.384638 3.3656,2.011915 20.4661,0.578209 42.9052,-3.590495 21.1006,-3.920659 32.5894,-6.894904 42.966,-11.754672 l 13.3159,-44.470024 c -1.6788,0.6212 -3.3661,1.29398 -5.035,1.8722 -12.5154,4.33143 -35.4184,9.60475 -55.8421,13.4188 -20.4237,3.81426 -38.3603,6.163 -40.9031,4.64396 -1.87,-1.11559 -7.4412,-0.23859 -12.3759,1.95388 -5.4455,2.41903 -9.3417,2.36637 -9.9188,-0.15047 -0.5826,-2.53853 -4.4909,-2.58905 -10.0701,-0.10747 -1.0275,0.45784 -2.0786,0.78672 -3.1243,1.07904 l -6.6275,29.484906 -7.4772,-31.162366 c -1.7153,0.0645 -3.5879,0.47719 -5.2623,1.34558 -4.0686,2.10865 -3.3793,-0.17195 1.8635,-6.19653 0.6277,-0.71793 1.1865,-1.17362 1.7884,-1.81416 l -1.1543,-4.76821 c -4.337,4.91716 -13.4196,10.7283 -20.4592,11.74091 0,0 -0.015,0 -0.015,0 -11.7448,1.6723 -38.5048,-2.7653 -37.1575,-6.16837 0.748,-1.88939 -1.8679,-1.96893 -5.7935,-0.19345 -3.9277,1.78837 -15.7479,1.29614 -26.2678,-1.09409 -10.5197,-2.39044 -21.4959,-3.89745 -24.4024,-3.34094 -7.1328,1.36492 -7.4417,-2.19119 -1.1242,-12.93323 l 5.2931,-8.99645 z m -147.0365,11.39506 c -3.3471,0.47503 -7.4342,1.19081 -12.9212,2.41172 -23.1067,5.14759 -25.89888,7.3233 -16.48565,12.94763 6.30745,3.76848 13.56175,22.35227 8.00765,20.51575 -6.7281,-2.22493 -2.6918,5.43626 4.7622,9.038147 2.1843,1.057551 3.6857,1.515388 4.7169,1.536883 l 3.6549,-14.2644 c -0.043,-0.009 -0.065,-0.004 -0.086,-0.0135 -3.042,-1.00596 -7.0072,-6.38612 -8.7964,-11.96274 -2.9065,-9.06029 -1.8077,-10.5746 10.2371,-14.19498 2.291,-0.68783 4.1256,-1.30688 5.8694,-1.90014 l 1.0619,-4.11669 z m -95.97142,14.55501 c -0.72653,0.008 -1.68304,0.086 -2.86634,0.27944 -4.28177,0.65344 -6.45662,1.98612 -4.83827,2.95231 0.81036,0.48578 2.09359,0.59111 3.50366,0.37401 1.41221,-0.21924 2.94522,-0.75446 4.2764,-1.56697 2.20794,-1.34558 2.10649,-2.06351 -0.0645,-2.03771 z m 91.66452,2.21805 c -4.5685,1.34558 -5.8511,3.08774 -3.1546,4.69921 0.5266,0.31167 1.1564,0.46214 1.8185,0.52662 l 1.3348,-5.22604 z m -175.36693,6.58452 c -0.4127,-0.24289 -1.87865,0.44709 -4.5195,1.99472 -3.65541,2.14088 -5.4124,4.62139 -3.91292,5.51729 0.37401,0.2257 0.84045,0.29449 1.36277,0.2171 1.57557,-0.25793 3.66143,-1.82491 5.27806,-4.10336 1.55622,-2.19527 2.20085,-3.37383 1.78836,-3.6178 z m 74.76937,7.97093 c -0.93073,0.17196 -0.24934,1.23811 1.82062,3.2296 1.83135,1.762574 5.48225,2.76639 8.11386,2.232239 2.87408,-0.586802 2.04417,-1.934539 -2.07855,-3.382429 -4.3914,-1.54118 -6.92692,-2.25739 -7.85593,-2.07855 z m -23.70472,4.26931 c 2.95919,-0.56532 14.30137,8.987636 12.93688,10.895732 -0.086,0.128971 -0.22784,0.217099 -0.4084,0.251487 -1.23595,0.283732 -4.3641,-1.582021 -7.52255,-4.588712 -3.61005,-3.439396 -5.85971,-6.393647 -5.00464,-6.556787 z m -153.29991,6.29347 c -0.97371,0.193458 -2.5222,2.204942 -3.42756,4.491129 -0.90279,2.286628 0.28158,3.790187 2.62366,3.340944 2.34573,-0.449239 3.87595,-2.466958 3.4123,-4.491129 -0.46429,-2.024812 -1.63361,-3.52816 -2.6084,-3.340944 z m 202.95406,0.597558 c -1.57772,-0.08598 -5.07536,0.490082 -9.03923,1.566972 -5.28407,1.435857 -8.56633,3.614357 -7.29449,4.83763 0.56317,0.543823 1.96249,0.601857 3.73087,0.346066 5.30578,-0.763069 13.95251,-4.365813 13.48263,-6.418361 -0.0645,-0.193453 -0.35466,-0.298777 -0.87914,-0.333164 z m 473.54983,12.586727 c -2.0033,1.029605 -4.0376,2.087156 -5.9301,2.952966 -24.5419,11.230624 -24.7001,11.264585 -22.4762,4.865356 1.4273,-4.115616 0.9178,-4.012007 -2.5783,0.49868 -2.6755,3.453577 -9.7508,6.375155 -17.6686,8.026392 l 0,-0.0142 c -7.9185,1.650805 -16.6864,2.031263 -22.7647,0.406252 -6.4212,-1.719585 -10.206,-0.941477 -13.4222,2.758867 -3.0893,3.552019 -5.5687,4.117978 -7.9772,1.801262 -1.9217,-1.846405 -5.3075,-3.015511 -7.5226,-2.592277 -2.2146,0.423449 -2.5396,2.194627 -0.7265,3.936997 1.8872,1.814164 0.4084,2.745101 -3.4426,2.176348 -3.6997,-0.548117 -6.1798,-2.354325 -5.5208,-4.019748 0.6578,-1.663697 -1.3606,-2.539189 -4.4889,-1.940984 -3.1278,0.601857 -4.2883,2.431066 -2.5782,4.075425 1.7089,1.644354 -1.1607,1.855008 -6.3854,0.457836 -5.2235,-1.399313 -9.8324,-3.989012 -10.2366,-5.752661 -0.4064,-1.762575 -4.1497,-1.657251 -8.3113,0.236443 -4.8325,2.200206 -8.9657,1.435853 -11.4658,-2.106495 -3.1778,-4.503598 -4.8593,-4.465338 -8.8872,0.171957 -3.9862,4.582698 -6.0992,4.822371 -10.7833,1.203714 -5.4889,-4.23792 -12.7136,-4.967244 -29.756,-2.966505 -4.5008,0.528778 -6.8841,-1.293989 -6.264,-4.810115 0.8598,-4.86643 0.1935,-4.759601 -4.7164,0.760921 -5.0748,5.719769 -5.567,5.588655 -4.4439,-1.079041 1.0684,-6.351513 0.488,-6.605363 -3.7609,-1.717443 -5.1637,5.937951 -19.7755,6.329802 -17.4564,0.472885 0.6341,-1.607809 -2.7253,-1.91089 -7.5982,-0.928569 l 10.1004,40.533026 c 3.0175,-1.003806 5.5089,-1.57127 6.4459,-1.012404 1.3735,0.821099 -0.5675,5.161339 -4.2618,9.7866 l 0.8362,3.340729 3.0632,-2.16324 c 14.4454,-10.190064 21.2001,-11.641392 19.8984,-4.269519 -0.733,4.154091 1.8851,4.952626 9.6912,2.952745 5.9512,-1.523986 10.7283,-0.874839 10.7983,1.470245 0.065,2.508233 3.9555,2.748974 9.6001,0.597558 5.2108,-1.986126 9.8119,-2.182799 10.2218,-0.429895 0.4127,1.751825 7.4355,2.244275 15.6063,1.079037 8.1707,-1.162871 16.6429,-0.404101 18.8214,1.691643 2.1787,2.09575 5.6026,2.370668 7.6132,0.623353 2.0098,-1.747532 5.2772,-1.607815 7.2646,0.305227 1.9861,1.91089 5.8909,2.125838 8.6752,0.485783 2.7842,-1.642207 6.4258,-1.663703 8.0985,-0.06448 1.6723,1.609962 5.5032,1.483142 8.493,-0.279433 3.7527,-2.212466 5.9991,-0.728677 7.2647,4.796145 0.9543,4.177307 0.7974,6.1913696 -1.4251,6.8895264 -1.3348,0.4212969 -3.4205,0.3697083 -6.4612,0.042991 -5.3399,-0.601857 -13.7996,-0.3976547 -18.8062,0.4578413 -5.0059,0.8533439 -9.358,0.4148508 -9.6757,-0.9715653 -0.3138,-1.3842691 -5.0735,-0.8490499 -10.5707,1.1929589 -6.2752,2.3298294 -9.3645,2.1172446 -8.2964,-0.5825088 2.1656,-5.4706495 -1.4401,-4.7742185 -10.2372,1.9689299 -5.5338,4.2417882 -7.2018,4.0919686 -8.3109,-0.7480247 -1.0468,-4.5745307 -3.6563,-5.0519317 -10.6922,-1.9280864 -5.1175,2.2730789 -10.7094,2.7835824 -12.436,1.1241841 -1.7239,-1.6594034 -6.5919,-1.7066929 -10.7986,-0.085981 -4.2063,1.6099617 -8.0103,1.3670729 -8.4473,-0.5438224 -0.4385,-1.9087382 -5.3221,-2.598508 -10.8591,-1.5368779 -5.5374,1.0596934 -9.9486,0.3482131 -9.8129,-1.5820211 0.1935,-2.79218 -3.0909,-4.090253 -6.3545,-2.772406 l 11.6328,46.646167 c 2.1677,0.447092 4.2682,0.99951 5.9755,1.732484 4.9802,2.150344 12.4391,3.273664 16.5764,2.481794 4.4746,-0.855495 6.7864,0.421299 5.7024,3.160386 -1.2252,3.097192 0.7803,3.244431 6.1576,0.472887 4.3942,-2.266201 8.3413,-2.601306 8.7661,-0.750171 0.9737,4.238568 16.0966,2.652894 71.3117,-7.513305 39.5066,-7.274069 42.7102,-7.377674 32.3948,-1.012407 -7.4275,4.583344 -27.397,10.168349 -47.1517,14.167033 -19.7546,3.99847 -39.2973,6.397724 -45.8476,4.64396 -6.6477,-1.779772 -8.75,-1.487443 -6.3092,0.859794 3.9927,3.839623 -1.453,6.134627 -6.87,2.897289 -1.8399,-1.098386 -6.5486,-1.704541 -10.4647,-1.345576 -3.9166,0.358963 -10.89,0.0022 -15.4999,-0.806057 -6.4595,-1.130628 -7.4364,-0.401953 -4.216,3.18833 2.2977,2.56068 0.065,1.87005 -5.0051,-1.551928 -0.129,-0.08598 -0.3074,-0.150464 -0.4557,-0.25149 l 14.863,59.607334 142.456,0 38.8407,-129.611083 c -2.1864,0.328875 -4.941,0.629798 -9.0091,0.816805 -9.1521,0.417002 -25.251,2.388937 -35.7768,4.38022 -14.3059,2.7068423 -19.4679,2.2283685 -20.4135,-1.900145 -1.5348,-6.698653 11.7886,-9.229238 43.6178,-8.275511 10.6298,0.318119 18.3215,1.115581 22.4763,2.02266 l 18.3664,-61.284362 z m -567.70131,5.877554 c -1.43586,0.150467 -3.3216,0.46214 -5.68732,0.915683 -9.46288,1.80986 -10.89746,2.948872 -5.61144,4.463613 2.05275,0.58896 4.4146,0.625504 6.67264,0.193457 2.25846,-0.432047 4.41397,-1.341278 6.0364,-2.633336 3.13265,-2.494478 2.896,-3.401337 -1.41222,-2.938991 z m -104.14658,3.534828 c -0.88989,0.128971 -2.11724,0.438493 -3.73086,0.872692 -0.70288,0.193447 -1.19296,0.296624 -1.85071,0.472885 l 1.19726,4.089175 c 1.33698,-0.601852 2.53855,-1.261749 3.36696,-2.009769 3.17543,-2.865264 3.68078,-3.845212 1.01455,-3.424125 z m 120.19226,1.674447 c -2.06135,0.401954 -4.94489,2.483728 -7.32544,5.475806 -3.17414,3.988591 -7.61583,6.646854 -9.85796,5.905065 -2.24212,-0.739422 -3.52666,1.057546 -2.85129,4.006424 0.79316,3.468189 1.78192,5.040328 4.00406,4.408161 2.22299,-0.629803 5.6785,-3.470773 11.48082,-8.816318 5.26516,-4.851391 8.10699,-9.715463 6.29369,-10.798793 -0.45355,-0.270841 -1.05754,-0.311679 -1.74753,-0.193458 z m -54.82603,1.218753 c 0.48579,0.193458 0.90924,0.797462 1.13708,1.788375 0.45354,1.97967 5.34319,6.511647 10.87445,10.077852 5.5302,3.566642 8.386,6.816874 6.33926,7.208298 -2.0463,0.391204 -7.7706,-2.994662 -12.72451,-7.513089 -4.9537,-4.518432 -8.18889,-9.378842 -7.17369,-10.798793 0.50728,-0.709333 1.05969,-0.945776 1.54548,-0.760917 z m -7.35553,9.703413 c 1.22736,-0.171952 3.14878,0.769525 4.89868,2.522856 2.33369,2.335633 7.70891,7.47655 11.93608,11.422787 5.02635,4.69211 6.603,7.08341 5.70215,7.374236 -1.15857,0.37186 -6.41922,-2.736082 -13.77088,-8.940781 -6.24038,-5.267315 -10.61265,-10.592228 -9.72148,-11.83828 0.22355,-0.311674 0.54598,-0.487935 0.95438,-0.543817 z m 3.45788,17.743566 c 2.42161,0.376159 11.26694,6.443504 23.18927,16.412816 3.73452,3.123197 5.60285,4.692967 5.15662,4.782385 -0.44495,0.08598 -3.20639,-1.28969 -8.72067,-4.047479 -6.07295,-3.040446 -13.4145,-8.117745 -16.31888,-11.283933 -3.90562,-4.257048 -4.75918,-6.089487 -3.30634,-5.863789 z m 80.47216,0.236447 c 1.17147,0.107472 2.27781,1.412211 2.74489,3.451852 1.61641,7.054606 -11.99455,18.075224 -30.13512,24.397286 -15.34796,5.348776 -15.40105,5.4390561 -3.50344,6.1823453 9.36422,0.5868129 14.36264,-1.5949175 22.27918,-9.7169573 5.61252,-5.758896 11.58164,-9.640648 13.28532,-8.622651 4.81399,2.876225 -1.95173,15.8833959 -8.99366,17.2861504 -3.46475,0.68998 -7.35338,2.7418811 -8.64436,4.5470157 -1.6852,2.35626585 -5.93623,4.04145846 -9.87323,4.6299869 -3.93699,0.5889599 -7.5722,0.064491 -8.03821,-1.95388073 -0.74372,-3.25130607 -15.47198,-6.30658647 -24.26595,-5.03194057 -2.23762,0.3245708 -4.47845,-1.0575463 -4.97433,-3.0776334 -0.49654,-2.0183613 -3.09827,-5.8403623 -5.77867,-8.4973363 -2.67977,-2.656763 0.77595,-1.794821 7.68977,1.925939 l 12.57277,6.7646388 20.83816,-15.0680958 c 11.45761,-8.293571 22.0795,-15.899945 23.6138,-16.897952 0.38476,-0.251497 0.79102,-0.352517 1.18437,-0.31813 z m 12.1175,32.0492299 c 2.37862,-0.064486 1.37137,1.3219354 -2.79068,5.6976362 -7.69192,8.0876524 1.19512,10.0464743 13.5136,2.98026019 4.89136,-2.80550409 8.68606,-3.37512069 9.14497,-1.37351899 0.80176,3.5017245 -14.94514,10.2495996 -23.9777,11.6721277 -3.01121,0.475036 -5.27548,0.358964 -5.93,-0.6641906 -1.13707,-1.7819243 -8.70133,-1.3455782 -16.80424,0.9737166 -11.14206,3.1836 -13.48392,2.97682 -9.58497,-0.8168043 2.83581,-2.7597245 9.12198,-5.8066174 13.96799,-6.7646385 4.8458,-0.9586731 9.55961,-3.60490164 10.46476,-5.8917355 0.90493,-2.2861919 4.71748,-4.6979139 8.47778,-5.350281 1.55408,-0.2708352 2.72555,-0.4406452 3.51849,-0.4599934 z m -62.95473,8.10935827 c 1.10699,-0.2321437 4.64826,0.88558932 10.46454,3.39640023 4.98058,2.1503428 7.03269,4.3512008 4.54982,4.8933025 -2.48265,0.5459693 -7.345,-1.0682965 -10.79815,-3.576529 -3.98621,-2.8962155 -5.32126,-4.48038291 -4.21621,-4.71317373 z m -40.9337,18.60313983 -8.99365,6.626214 c -4.94489,3.644664 -11.54617,6.63954 -14.66571,6.653727 -1.13708,0.0045 -1.86791,0.268685 -2.39625,0.62335 l 0.98662,3.368242 c 1.55407,1.354175 2.96456,2.180866 4.47414,2.106494 2.90245,-0.128969 6.26425,-3.154798 12.23916,-9.925027 l 8.35634,-9.454075 z m 71.66036,10.049912 c -7.21346,1.29184 -17.30528,9.61722 -14.02861,11.57497 0.31597,0.193454 0.86624,0.193454 1.59277,-0.01397 l 0,-0.0144 c 2.18086,-0.573913 5.93042,-2.720172 9.60002,-5.614022 5.15726,-4.067254 6.34807,-6.560225 2.83582,-5.932791 z m -51.06443,17.313885 c -0.4213,-0.06448 -1.51754,0.883437 -3.41252,2.869776 -2.68879,2.814748 -11.77659,5.985667 -20.2015,7.055466 -8.42469,1.072591 -14.96986,3.478079 -14.54427,5.336953 0.78887,3.450137 12.34686,2.913411 27.76919,-1.29184 4.73295,-1.29184 10.02025,-0.988762 11.75381,0.677088 4.15775,3.998254 -13.42461,22.99131 -20.33778,21.971594 -2.95575,-0.436345 -5.85046,1.900144 -6.43061,5.184771 -0.8211,4.650193 0.81036,5.015605 7.38563,1.6637 4.64547,-2.368301 11.50662,-7.239892 15.24221,-10.840277 3.7358,-3.599956 12.29827,-7.555436 19.01842,-8.774624 L 850.9654,66.912288 842.35112,77.0873 c -4.74348,5.595966 -11.59517,12.845745 -15.22695,16.107803 -3.63176,3.261842 -0.42559,2.226435 7.12812,-2.314995 15.449,-9.285125 33.74347,-13.891039 34.91257,-8.788809 0.42345,1.855004 -1.30259,4.645894 -3.83704,6.196532 -2.53489,1.549778 2.21289,1.640056 10.55568,0.219247 17.83771,-3.057426 20.94629,1.730335 6.49123,9.994456 -8.50271,4.860416 -7.08384,4.883626 8.43221,0.107474 15.55431,-4.784752 18.88429,-4.743911 20.03491,0.279433 0.90923,3.969239 4.81398,5.373069 11.45008,4.103149 11.49953,-2.20107 14.94945,3.33858 4.97456,7.98468 -3.65585,1.7024 -1.18652,2.1108 5.47516,0.91569 6.6621,-1.19511 18.80111,-1.85071 26.98053,-1.4681 2.53145,0.12897 4.27339,0.25579 5.91496,0.4041 l 7.08233,-27.585612 c -1.8894,-0.614753 -3.58039,-1.203712 -4.73166,-1.719588 -14.8583,-6.641045 -104.89718,-32.724818 -117.4319,-34.017733 -8.11537,-0.838299 -18.38302,0.350367 -22.8101,2.633978 -6.163,3.178442 -7.54297,2.837319 -5.89948,-1.470247 0.83401,-2.181081 1.08549,-3.303972 0.66634,-3.382428 z m -25.60057,24.231132 -8.8419,4.18655 1.16717,3.992236 7.6743,-8.178786 z m -4.73209,18.311883 7.34049,25.187657 69.44617,0 c -3.27904,-0.56961 -5.66024,-1.41866 -5.88442,-2.3984 -0.37401,-1.62931 -4.95499,-3.14577 -10.17674,-3.38221 -9.4027,-0.42345 -9.42785,-0.50298 -2.83624,-7.804348 6.56968,-7.277293 6.55571,-7.301582 -0.90924,-2.065654 -7.20292,5.051932 -25.15798,6.612242 -30.5448,2.661922 -1.38857,-1.018857 -8.07454,-2.91986 -14.86283,-4.228251 -6.78807,-1.306886 -11.61,-4.217287 -10.7227,-6.459629 0.34177,-0.868392 -0.086,-1.28969 -0.84904,-1.511087 z m 190.68481,28.375767 -4.50447,0.86194 c 1.59492,-0.35251 3.05335,-0.61905 4.50447,-0.86194 z"
       id="text6264"
       inkscape:connector-curvature="0"
       inkscape:export-filename="C:\Users\Mitchell Longair\Desktop\logo.png"
       inkscape:export-xdpi="90"
       inkscape:export-ydpi="90" />
  </g>
</svg>
