<?xml version="1.0" encoding="UTF-8" standalone="no"?>
<!-- Created with Inkscape (http://www.inkscape.org/) -->

<svg
   xmlns:dc="http://purl.org/dc/elements/1.1/"
   xmlns:cc="http://creativecommons.org/ns#"
   xmlns:rdf="http://www.w3.org/1999/02/22-rdf-syntax-ns#"
   xmlns:svg="http://www.w3.org/2000/svg"
   xmlns="http://www.w3.org/2000/svg"
   xmlns:sodipodi="http://sodipodi.sourceforge.net/DTD/sodipodi-0.dtd"
   xmlns:inkscape="http://www.inkscape.org/namespaces/inkscape"
   width="504.78961mm"
   height="122.13905mm"
   viewBox="0 0 1788.6246 432.77615"
   id="svg5314"
   version="1.1"
   inkscape:version="0.91 r13725"
   sodipodi:docname="walkland.svg">
  <defs
     id="defs5316">
    <filter
       style="color-interpolation-filters:sRGB"
       inkscape:label="Drop Shadow"
       id="filter6297-39-5-0-6">
      <feFlood
         flood-opacity="0.498039"
         flood-color="rgb(0,0,0)"
         result="flood"
         id="feFlood6299-1-9-4-7" />
      <feComposite
         in="flood"
         in2="SourceGraphic"
         operator="in"
         result="composite1"
         id="feComposite6301-58-4-8-0" />
      <feGaussianBlur
         in="composite1"
         stdDeviation="3"
         result="blur"
         id="feGaussianBlur6303-9-7-7-7" />
      <feOffset
         dx="2"
         dy="2"
         result="offset"
         id="feOffset6305-32-2-7-4" />
      <feComposite
         in="SourceGraphic"
         in2="offset"
         operator="over"
         result="composite2"
         id="feComposite6307-37-3-8-7" />
    </filter>
    <filter
       style="color-interpolation-filters:sRGB"
       inkscape:label="Drop Shadow"
       id="filter6247-1-2-4-4">
      <feFlood
         flood-opacity="0.498039"
         flood-color="rgb(0,0,0)"
         result="flood"
         id="feFlood6249-8-7-8-0" />
      <feComposite
         in="flood"
         in2="SourceGraphic"
         operator="in"
         result="composite1"
         id="feComposite6251-99-3-1-3" />
      <feGaussianBlur
         in="composite1"
         stdDeviation="3"
         result="blur"
         id="feGaussianBlur6253-24-2-2-5" />
      <feOffset
         dx="2"
         dy="2"
         result="offset"
         id="feOffset6255-38-6-8-0" />
      <feComposite
         in="SourceGraphic"
         in2="offset"
         operator="over"
         result="composite2"
         id="feComposite6257-1-6-9-1" />
    </filter>
    <filter
       style="color-interpolation-filters:sRGB"
       inkscape:label="Drop Shadow"
       id="filter6154">
      <feFlood
         flood-opacity="0.784314"
         flood-color="rgb(0,0,0)"
         result="flood"
         id="feFlood6156" />
      <feComposite
         in="flood"
         in2="SourceGraphic"
         operator="in"
         result="composite1"
         id="feComposite6158" />
      <feGaussianBlur
         in="composite1"
         stdDeviation="2"
         result="blur"
         id="feGaussianBlur6160" />
      <feOffset
         dx="2"
         dy="2"
         result="offset"
         id="feOffset6162" />
      <feComposite
         in="SourceGraphic"
         in2="offset"
         operator="over"
         result="fbSourceGraphic"
         id="feComposite6164" />
      <feColorMatrix
         result="fbSourceGraphicAlpha"
         in="fbSourceGraphic"
         values="0 0 0 -1 0 0 0 0 -1 0 0 0 0 -1 0 0 0 0 1 0"
         id="feColorMatrix6166" />
      <feFlood
         id="feFlood6168"
         flood-opacity="0.784314"
         flood-color="rgb(0,0,0)"
         result="flood"
         in="fbSourceGraphic" />
      <feComposite
         id="feComposite6170"
         in2="fbSourceGraphic"
         in="flood"
         operator="in"
         result="composite1" />
      <feGaussianBlur
         id="feGaussianBlur6172"
         in="composite1"
         stdDeviation="2"
         result="blur" />
      <feOffset
         id="feOffset6174"
         dx="2"
         dy="2"
         result="offset" />
      <feComposite
         id="feComposite6176"
         in2="offset"
         in="fbSourceGraphic"
         operator="over"
         result="composite2" />
    </filter>
    <filter
       style="color-interpolation-filters:sRGB"
       inkscape:label="Drop Shadow"
       id="filter6298">
      <feFlood
         flood-opacity="0.784314"
         flood-color="rgb(0,0,0)"
         result="flood"
         id="feFlood6300" />
      <feComposite
         in="flood"
         in2="SourceGraphic"
         operator="in"
         result="composite1"
         id="feComposite6302" />
      <feGaussianBlur
         in="composite1"
         stdDeviation="1"
         result="blur"
         id="feGaussianBlur6304" />
      <feOffset
         dx="1"
         dy="1"
         result="offset"
         id="feOffset6306" />
      <feComposite
         in="SourceGraphic"
         in2="offset"
         operator="over"
         result="composite2"
         id="feComposite6308" />
    </filter>
  </defs>
  <sodipodi:namedview
     id="base"
     pagecolor="#ffffff"
     bordercolor="#666666"
     borderopacity="1.0"
     inkscape:pageopacity="0.0"
     inkscape:pageshadow="2"
     inkscape:zoom="0.98994949"
     inkscape:cx="296.38846"
     inkscape:cy="148.66782"
     inkscape:document-units="px"
     inkscape:current-layer="layer1"
     showgrid="false"
     fit-margin-top="0"
     fit-margin-left="0"
     fit-margin-right="0"
     fit-margin-bottom="0"
     inkscape:window-width="1440"
     inkscape:window-height="837"
     inkscape:window-x="-8"
     inkscape:window-y="-8"
     inkscape:window-maximized="1" />
  <metadata
     id="metadata5319">
    <rdf:RDF>
      <cc:Work
         rdf:about="">
        <dc:format>image/svg+xml</dc:format>
        <dc:type
           rdf:resource="http://purl.org/dc/dcmitype/StillImage" />
        <dc:title></dc:title>
      </cc:Work>
    </rdf:RDF>
  </metadata>
  <g
     inkscape:label="Layer 1"
     inkscape:groupmode="layer"
     id="layer1"
     transform="translate(687.03365,70.183784)">
    <g
       transform="matrix(10.966362,0,0,10.966362,-3791.5569,-1044.8033)"
       id="g6309-85-8-3"
       style="filter:url(#filter6298)">
      <path
         style="font-style:normal;font-variant:normal;font-weight:normal;font-stretch:normal;font-size:211.24569702px;line-height:125%;font-family:Gnuolane;-inkscape-font-specification:Gnuolane;letter-spacing:0px;word-spacing:0px;fill:#ffffff;fill-opacity:1;stroke:none;stroke-width:1px;stroke-linecap:butt;stroke-linejoin:miter;stroke-opacity:1"
         d="m 296.69174,92.586648 4.94819,16.981682 c 0.16231,0.0875 0.2352,0.0418 0.36125,-0.17605 0.16057,-0.27764 0.151,-0.30463 -0.0649,-0.17734 -0.15376,0.0906 -0.27729,0.0491 -0.31258,-0.10513 -0.0321,-0.14009 -0.007,-0.25884 0.0537,-0.26441 0.0614,-0.006 0.23566,-0.0449 0.38734,-0.0871 0.22129,-0.0615 0.21987,-0.096 -0.006,-0.17348 -0.22788,-0.078 -0.23953,-0.22876 -0.0607,-0.78549 0.12168,-0.3788 0.28711,-0.64937 0.3669,-0.60169 0.0798,0.0478 0.12395,-0.003 0.0988,-0.11286 -0.0252,-0.10989 0.0415,-0.21693 0.14818,-0.23734 0.15461,-0.0295 0.32841,0.78464 0.21097,0.98801 -0.0159,0.0277 -0.0325,0.13111 -0.0367,0.23022 -0.003,0.0991 -0.0193,0.20286 -0.0338,0.23023 -0.0145,0.0274 -0.007,0.27286 0.0147,0.54625 0.0227,0.27337 -0.0279,0.61741 -0.11289,0.7642 -0.11417,0.19741 -0.0857,0.27871 0.10866,0.31214 0.19598,0.0338 0.19079,0.12607 -0.0205,0.36308 -0.26656,0.29911 -0.26303,0.31751 0.0578,0.31279 0.32493,-0.005 0.32871,0.0128 0.0818,0.35792 -0.14257,0.19932 -0.16896,0.34488 -0.0587,0.32375 0.3208,-0.0614 0.3415,0.43428 0.0296,0.70874 -0.2422,0.21318 -0.22322,0.222 0.12841,0.0567 0.66031,-0.3103 0.53971,0.37658 -0.15734,0.89642 -0.0765,0.057 -0.11118,0.087 -0.1644,0.12833 l 0.0267,0.0935 c 0.11784,-0.0559 0.28066,-0.13759 0.4946,-0.24699 0.33892,-0.1733 0.41063,-0.15274 0.41135,0.11994 7.3e-4,0.18142 -0.1305,0.3463 -0.2921,0.36631 -0.16159,0.02 -0.26959,0.1426 -0.23989,0.27216 0.0345,0.15049 0.1698,0.17595 0.37466,0.0702 0.46412,-0.23937 0.52171,0.26929 0.0805,0.70874 l -0.35138,0.34954 0.002,0.003 0.4812,-0.20831 c 0.53895,-0.23397 0.60249,-0.17147 0.41628,0.40951 -0.0795,0.24791 -0.0635,0.33828 0.043,0.24571 0.31114,-0.27029 0.50466,0.1717 0.24978,0.5701 -0.14588,0.22802 -0.16034,0.37733 -0.0353,0.3534 0.11901,-0.0228 0.24197,0.072 0.27376,0.21088 0.0508,0.22195 -0.33574,0.59116 -0.7359,0.79777 l 0.0571,0.19474 c 0.0289,-0.0203 0.0545,-0.035 0.084,-0.0567 0.80327,-0.5915 0.86463,-0.6116 0.93559,-0.30182 0.0626,0.27291 -0.49692,0.81837 -0.86009,0.9061 l 0.0586,0.20184 c 0.10717,0.0243 0.18648,-0.0182 0.2787,-0.14704 0.22522,-0.31489 0.6504,-0.40327 0.70911,-0.14703 0.0444,0.19414 -0.25463,0.58761 -0.77473,1.01767 -3.6e-4,3.2e-4 -7.2e-4,7e-4 -0.002,0.002 l 0.0621,0.21475 c 0.20326,-0.0851 0.3626,-0.22991 0.39443,-0.41017 0.0585,-0.33128 0.60257,-0.44344 0.6724,-0.13865 0.0786,0.34326 -0.49499,0.98273 -0.79307,0.88418 -0.1592,-0.0527 -0.1929,-0.0233 -0.0882,0.0774 0.0582,0.056 0.0528,0.14846 0.005,0.24184 l 0.0578,0.19863 c 0.13974,-0.1086 0.30609,-0.25649 0.46497,-0.41918 0.31808,-0.32568 0.5899,-0.48471 0.65477,-0.38308 0.12453,0.19508 -0.33383,1.00456 -0.5094,0.89963 -0.12172,-0.0727 -0.37576,0.19031 -0.46075,0.41599 l 0.0571,0.19604 c 0.0445,-0.0346 0.10095,-0.10943 0.15804,-0.21991 0.1094,-0.21178 0.2178,-0.31614 0.2406,-0.23152 0.0227,0.0846 0.17337,-0.0128 0.33514,-0.21605 0.34946,-0.43916 0.77726,-0.35932 0.72252,0.13478 -0.0269,0.24318 0.0506,0.33315 0.2547,0.29408 0.44847,-0.0858 0.45111,0.37362 0.003,0.78292 -0.26704,0.2446 -0.56944,0.39783 -0.8601,0.45531 -0.20139,0.0398 -0.39666,0.0321 -0.5708,-0.022 l 0.14745,0.50497 c 0.41385,-0.13778 0.89199,-0.38602 1.48805,-0.77065 0.65159,-0.42046 0.66128,-0.42154 0.64139,-0.0536 -0.0111,0.2056 -7.8e-4,0.37014 0.0226,0.36565 0.0235,-0.004 0.41914,-0.21202 0.87914,-0.46109 0.71777,-0.38867 0.78098,-0.46683 0.44592,-0.55269 -0.36057,-0.0924 -1.63952,-0.85695 -1.67221,-0.99962 -0.0307,-0.13452 0.14183,-0.0792 0.44945,0.14446 0.17713,0.1288 0.59968,0.29444 0.93913,0.3676 1.1489,0.24764 1.5592,0.40973 1.45064,0.57332 -0.0594,0.0897 0.0562,0.0397 0.25685,-0.11027 0.44013,-0.32921 1.12442,-0.48164 1.17477,-0.26184 0.0201,0.0874 -0.15703,0.37218 -0.393,0.6333 -0.42824,0.47386 -0.42822,0.47449 0.006,0.24442 0.49216,-0.26013 1.24143,-0.40511 1.44994,-0.28054 0.0763,0.0456 0.012,0.21195 -0.14324,0.36954 -0.24713,0.25089 -0.20037,0.26127 0.37608,0.0851 0.71408,-0.2182 0.87188,-0.10146 0.44735,0.32954 -0.23032,0.23382 -0.16284,0.24926 0.46496,0.109 0.4983,-0.11133 0.73517,-0.0919 0.73662,0.0594 7.2e-4,0.0813 0.0816,0.12854 0.2039,0.14381 l 0.3916,-1.52456 c -0.20102,-0.0403 -0.52094,-0.1293 -0.85516,-0.24314 -0.48261,-0.16436 -1.01616,-0.2913 -1.18536,-0.28182 -0.39106,0.0219 -0.61677,-0.45371 -0.39653,-0.8345 0.19452,-0.33632 0.47891,-0.43336 0.53625,-0.18316 0.0216,0.0941 -0.0867,0.1955 -0.24132,0.22507 -0.15455,0.0294 -0.26359,0.1309 -0.24202,0.22508 0.0532,0.23201 0.26112,0.16588 0.59975,-0.19024 0.25436,-0.26753 0.24738,-0.31691 -0.0684,-0.50562 -0.19258,-0.11507 -0.51511,-0.22437 -0.71757,-0.24312 -0.20245,-0.0188 -0.50735,-0.20721 -0.67735,-0.41854 -0.17001,-0.21137 -0.28881,-0.38344 -0.26389,-0.3818 0.025,0.002 0.53332,0.23339 1.12962,0.51463 0.86913,0.40992 1.18393,0.47236 1.58756,0.31472 0.65874,-0.25727 0.76248,0.12076 0.20108,0.73262 -0.48693,0.53069 -0.3991,0.54866 0.26107,0.0536 0.24417,-0.18313 0.56393,-0.35369 0.7486,-0.405 l 0.33305,-1.29691 c -0.10714,0.0433 -0.2327,0.11858 -0.38173,0.23282 -0.17698,0.13564 -0.33825,0.17715 -0.35772,0.0922 -0.0193,-0.0839 0.35607,-0.39675 0.8354,-0.69843 l 0.18909,-0.73456 c -0.38418,-0.13236 -0.86524,-0.43276 -0.90807,-0.61975 -0.0443,-0.19396 -0.026,-0.18855 0.83046,0.23992 0.0628,0.0315 0.10188,0.0552 0.15381,0.0831 l 0.16794,-0.65522 c -0.12346,-0.004 -0.22488,-0.0446 -0.33728,-0.12382 -0.50258,-0.3541 -0.77613,-0.66504 -0.5066,-0.5759 0.28043,0.0927 0.11201,-0.6121 -0.20744,-0.8674 -0.11974,-0.0957 -0.18279,-0.26264 -0.1397,-0.37147 0.0431,-0.10883 -0.0543,-0.34173 -0.2159,-0.51787 -0.16161,-0.17614 -0.25674,-0.37229 -0.21168,-0.4353 0.0451,-0.0629 0.20825,0.0661 0.36267,0.28633 0.36083,0.51486 0.71894,0.63127 0.7853,0.2554 0.0349,-0.1975 0.19162,-0.28668 0.47486,-0.26958 0.33493,0.0202 0.35527,-4.7e-4 0.10014,-0.0993 -0.17707,-0.0686 -0.46461,-0.0523 -0.63925,0.0367 -0.27652,0.1408 -0.29769,0.1128 -0.1651,-0.21735 0.1277,-0.31797 0.0749,-0.42834 -0.32598,-0.68683 -0.29662,-0.19124 -0.56084,-0.23997 -0.6964,-0.12898 -0.12012,0.0984 -0.17229,0.10609 -0.11571,0.0173 0.0566,-0.0887 -0.014,-0.28937 -0.15734,-0.44564 -0.42519,-0.46343 -0.091,-0.36657 0.86856,0.25151 0.49487,0.31878 0.87989,0.49109 0.85515,0.38309 -0.0247,-0.10801 -0.14208,-0.22789 -0.26037,-0.26698 -0.11825,-0.0392 -0.17386,-0.17434 -0.12417,-0.29989 0.0497,-0.12556 0.0147,-0.44157 -0.0768,-0.7023 -0.15069,-0.4286 -0.1261,-0.46294 0.25401,-0.36115 0.23124,0.0619 0.53006,0.085 0.66394,0.0516 0.13387,-0.0334 -0.0141,-0.0947 -0.3288,-0.13607 -0.42067,-0.0554 -0.56742,-0.16509 -0.55386,-0.41597 0.0101,-0.18766 -0.0429,-0.28818 -0.11785,-0.22313 -0.0749,0.0651 -0.2179,-0.0149 -0.31821,-0.17736 -0.10034,-0.16247 -0.30767,-0.27113 -0.46074,-0.24183 -0.36047,0.069 -0.34017,0.11955 0.24484,0.6133 0.302,0.25489 0.42566,0.46751 0.32314,0.55655 -0.15831,0.13754 -0.2665,0.037 -0.28081,-0.26182 -0.003,-0.0758 -0.14306,-0.15782 -0.31046,-0.18252 -0.16737,-0.0248 -0.27405,-0.12274 -0.23635,-0.21798 0.0377,-0.0953 -0.0218,-0.15614 -0.13337,-0.13478 -0.11641,0.0223 -0.11205,-0.17262 0.0105,-0.45853 l 0.21308,-0.49787 0.64278,0.42306 c 0.35361,0.23281 0.75297,0.40009 0.88691,0.37147 0.15813,-0.0338 0.12177,-0.0891 -0.10442,-0.15801 -0.37246,-0.11354 -0.46194,-0.80059 -0.11288,-0.8674 0.10819,-0.0206 0.13614,-0.0739 0.062,-0.11801 -0.0741,-0.0442 -0.005,-0.46004 0.15311,-0.92351 0.26343,-0.77083 0.23581,-0.91374 -0.15028,-0.77969 -0.0748,0.026 -0.17394,-0.12025 -0.22086,-0.32503 -0.0852,-0.37218 -0.0851,-0.37224 0.48756,-0.0529 0.34777,0.19391 0.50428,0.22259 0.39865,0.0728 -0.0958,-0.13568 -0.066,-0.37109 0.0656,-0.52239 0.13158,-0.15128 0.22173,-0.35124 0.20039,-0.44435 -0.0213,-0.093 -0.16296,0.0445 -0.31468,0.3057 -0.23141,0.39832 -0.28787,0.42711 -0.35068,0.1767 -0.0413,-0.16415 0.009,-0.31498 0.11219,-0.3347 0.10304,-0.0197 0.15887,-0.1595 0.12418,-0.31085 -0.0408,-0.17833 0.0476,-0.25895 0.25118,-0.22894 0.17311,0.0255 0.24836,-0.0173 0.16723,-0.0955 -0.0811,-0.0778 0.0573,-0.39421 0.30691,-0.70296 0.24969,-0.30873 0.61092,-0.90128 0.80296,-1.3169 0.31579,-0.68348 0.8776,-1.20344 1.13456,-1.0499 0.0933,0.0558 -1.03311,2.331 -1.57838,3.18776 -0.13566,0.21321 -0.18724,0.44515 -0.1143,0.5153 0.0729,0.0702 0.0166,0.19608 -0.12558,0.27988 -0.14218,0.0839 -0.18823,0.25258 -0.10161,0.37535 0.0866,0.12274 0.0595,0.24206 -0.0607,0.26505 -0.12014,0.0229 -0.15353,0.10419 -0.0741,0.18057 0.0794,0.0765 -0.0161,0.29631 -0.2131,0.4882 -0.30424,0.29647 -0.30836,0.33934 -0.0248,0.28504 0.22032,-0.0421 0.30078,0.0182 0.23636,0.178 -0.0537,0.13317 -0.0741,0.35528 -0.0453,0.494 0.029,0.13872 -0.1344,0.39786 -0.36267,0.57526 l -0.41488,0.32245 0.51789,-0.21217 c 0.42486,-0.17414 0.65293,-0.13388 1.27356,0.22442 3.5e-4,2e-4 3.7e-4,4.8e-4 7.3e-4,6.6e-4 l 0.0592,-0.23023 c -0.25868,-0.17673 -0.53462,-0.43893 -0.57219,-0.60298 -0.0318,-0.13851 0.1075,-0.12932 0.39652,0.0252 0.13256,0.0709 0.23104,0.10155 0.29705,0.10512 l 0.0443,-0.17349 c -0.057,-0.0779 -0.15948,-0.17152 -0.32033,-0.26763 -0.58249,-0.34804 -0.47378,-0.64985 0.11573,-0.32114 0.11935,0.0664 0.21794,0.1426 0.29986,0.21797 l 0.0634,-0.24701 c -0.21541,-0.091 -0.53824,-0.38781 -0.5934,-0.60234 -0.0315,-0.12265 0.0374,-0.19198 0.15382,-0.15349 0.1164,0.0385 0.1764,-0.0863 0.13265,-0.27731 -0.0528,-0.23039 0.0172,-0.33266 0.20885,-0.3044 0.2109,0.0311 0.23978,-0.0484 0.10584,-0.29407 -0.10893,-0.19986 -0.0942,-0.35349 0.0367,-0.37857 0.12113,-0.0231 0.1527,-0.10734 0.0698,-0.18701 -0.0829,-0.0797 -0.0659,-0.34491 0.0382,-0.5888 0.10408,-0.2439 0.33491,-0.88437 0.51296,-1.42397 0.17805,-0.53958 0.50693,-1.30687 0.73098,-1.70448 0.0736,-0.13056 0.14088,-0.23229 0.20745,-0.33148 l 0.0183,-0.0709 0.007,0.0296 c 0.2623,-0.38088 0.45855,-0.50826 0.50732,-0.29537 0.0141,0.0617 -0.13693,0.505 -0.33516,0.988 l 0.95887,3.84686 c 0.0568,0.008 0.14223,0.0437 0.28366,0.11931 0.38292,0.20468 0.6456,0.11503 0.57434,-0.19604 -0.0174,-0.0755 -0.16053,-0.0614 -0.31822,0.0315 -0.19278,0.11366 -0.25708,0.0948 -0.19686,-0.0574 0.0492,-0.12446 -2.4e-4,-0.20923 -0.10937,-0.18833 -0.10912,0.0209 -0.22676,-0.0871 -0.26176,-0.23988 -0.0521,-0.22756 -0.003,-0.24922 0.26599,-0.11868 0.18143,0.0877 0.31648,0.0921 0.29918,0.0102 -0.0172,-0.0825 0.0766,-0.0498 0.20884,0.0722 0.21369,0.19743 0.23747,0.19305 0.21308,-0.0406 -0.0151,-0.14458 -0.0349,-0.3419 -0.0437,-0.43853 -0.009,-0.0966 0.0324,-0.30562 0.091,-0.46433 0.0589,-0.15869 0.0506,-0.2188 -0.0177,-0.13284 -0.14169,0.17825 -0.69438,-0.0417 -0.75355,-0.29989 -0.0234,-0.10195 0.0835,-0.11201 0.26459,-0.0245 0.23514,0.11361 0.31649,0.0812 0.35632,-0.14447 0.0297,-0.16839 -0.017,-0.23236 -0.11007,-0.15155 -0.0887,0.077 -0.19054,0.0112 -0.22649,-0.14576 -0.0445,-0.19416 0.0405,-0.26937 0.2667,-0.23603 0.29001,0.0427 0.29092,0.0188 0.005,-0.1896 -0.25511,-0.18635 -0.27944,-0.26431 -0.10867,-0.35598 0.12032,-0.0646 0.14749,-0.18671 0.06,-0.27087 -0.0876,-0.0841 -0.063,-0.23599 0.0543,-0.33793 0.11736,-0.10195 0.18006,-0.40681 0.13901,-0.67715 -0.0944,-0.62138 0.15742,-1.745027 0.47273,-2.107558 0.32051,-0.368506 0.41095,-0.0097 0.22296,0.886748 -0.0749,0.35753 -0.10727,0.95688 -0.0719,1.33173 0.0354,0.37485 0.0508,0.6845 0.0346,0.68747 -0.0161,0.003 0.009,0.26609 0.0557,0.58493 0.0471,0.31886 -0.0184,0.67205 -0.14535,0.78486 -0.16208,0.1438 -0.16112,0.19275 0.003,0.16316 0.12915,-0.0232 0.25944,0.0665 0.29001,0.19991 0.0305,0.13344 -0.0408,0.3019 -0.15876,0.37406 -0.15516,0.0951 -0.14052,0.12147 0.0522,0.0948 0.2026,-0.028 0.20172,0.0683 -0.004,0.40305 -0.14944,0.24215 -0.17936,0.36372 -0.0663,0.27023 0.12254,-0.10136 0.22644,-0.0762 0.25823,0.0626 0.0293,0.128 -0.0295,0.3501 -0.13124,0.49334 -0.14815,0.20885 -0.12479,0.22499 0.11713,0.0832 0.30889,-0.18103 0.50456,0.0772 0.23567,0.31084 -0.0813,0.0707 -0.0639,0.28177 0.0381,0.46885 0.10856,0.19922 0.0917,0.42268 -0.041,0.54043 -0.17791,0.15798 -0.15153,0.18787 0.12348,0.13738 0.32905,-0.0605 0.33717,-0.0355 0.14323,0.4166 -0.16111,0.37558 -0.15268,0.44981 0.036,0.33857 0.13289,-0.0783 0.31615,-0.0702 0.40783,0.0181 0.0917,0.0882 0.039,0.23557 -0.11712,0.32761 -0.22522,0.13266 -0.22593,0.18635 -0.003,0.2599 0.4231,0.13992 0.0676,0.52518 -0.62443,0.67649 -0.3178,0.0696 -0.52045,0.18139 -0.45087,0.24831 0.0696,0.0669 0.36477,0.0284 0.6569,-0.0858 0.52532,-0.20516 0.53303,-0.19966 0.66747,0.52819 0.10216,0.55313 0.0553,0.77257 -0.18839,0.88351 -0.1783,0.0812 -0.30767,0.21855 -0.28788,0.30505 0.0199,0.087 0.18449,0.0435 0.36831,-0.0974 0.35322,-0.27072 0.40399,-0.22898 0.49107,0.40824 l 0.0551,0.40242 0.64137,-0.46692 c 0.35307,-0.25688 0.93732,-0.62117 1.29755,-0.80936 0.36025,-0.18819 0.63717,-0.41768 0.61597,-0.51012 -0.0212,-0.0924 -0.12291,-0.0945 -0.2265,-0.004 -0.11665,0.10136 -0.15493,0.0783 -0.10013,-0.0601 0.0486,-0.12282 -0.0147,-0.20347 -0.14111,-0.17931 -0.12631,0.0242 -0.18629,-0.0153 -0.13408,-0.0884 0.0523,-0.073 -0.22723,-0.29766 -0.62019,-0.49916 -0.43371,-0.22242 -0.75572,-0.5329 -0.81988,-0.78938 -0.0581,-0.23239 -0.0298,-0.39691 0.0627,-0.3663 0.0925,0.0305 0.12981,-0.12305 0.0832,-0.34117 -0.0838,-0.39222 -0.0804,-0.39347 0.2942,-0.11155 0.37875,0.285 0.37836,0.28529 0.15946,-0.0303 -0.33543,-0.48369 -0.60637,-1.40325 -0.42405,-1.43814 0.0894,-0.017 0.27916,0.0868 0.42194,0.23152 0.23818,0.24137 0.25462,0.23954 0.19898,-0.0271 -0.0333,-0.15986 -0.15597,-0.32201 -0.27234,-0.36049 -0.11639,-0.0385 -0.22892,-0.14767 -0.25048,-0.24184 -0.0215,-0.0943 0.0558,-0.1391 0.17215,-0.10064 0.11642,0.0384 0.17304,-0.0972 0.12631,-0.30118 -0.0627,-0.27355 0.003,-0.35794 0.24764,-0.3218 0.28997,0.0427 0.29091,0.0182 0.005,-0.19024 -0.25387,-0.18545 -0.27846,-0.26457 -0.10936,-0.35533 0.11972,-0.0642 0.19285,-0.22581 0.16228,-0.35923 -0.0305,-0.13343 0.009,-0.25529 0.086,-0.27021 0.0779,-0.0149 0.19652,-0.26295 0.26388,-0.5514 0.003,-0.0143 0.0133,-0.0362 0.0177,-0.0516 l -2.51114,-10.455865 -7.52354,0 -4.02884,16.510245 c 0.0176,0.0258 0.0319,0.0577 0.0417,0.10003 0.0304,0.1327 -0.0511,0.33471 -0.18203,0.47658 l -0.0382,0.15542 c 0.009,-0.004 0.0113,-0.006 0.0204,-0.0105 0.35382,-0.18001 0.49752,0.1509 0.22861,0.52688 -0.13825,0.1933 -0.10779,0.23541 0.13828,0.18831 0.64653,-0.12374 0.54754,1.7675 -0.12698,2.42485 -0.32548,0.31719 -0.3091,0.32206 0.32244,0.0999 0.76659,-0.26959 0.93751,-0.0544 0.39018,0.49077 -0.35807,0.35661 -0.3577,0.35678 0.15029,0.13607 0.47032,-0.20434 0.49879,-0.19134 0.38312,0.16962 -0.0687,0.21453 -0.22247,0.44899 -0.3415,0.52171 -0.11901,0.0727 -0.027,0.10289 0.20392,0.0663 0.37901,-0.0599 0.41173,-0.017 0.33231,0.44177 -0.0484,0.27961 -0.0778,0.54662 -0.0649,0.59331 0.013,0.0466 -0.21651,0.26807 -0.50943,0.49207 -0.29293,0.22399 -0.44823,0.3918 -0.34502,0.37275 0.10319,-0.0192 0.37366,-0.18498 0.60045,-0.36889 0.22676,-0.18391 0.46119,-0.3468 0.52141,-0.36179 0.22091,-0.0552 0.88766,1.27773 0.75779,1.51487 -0.0708,0.1293 -0.0741,0.36573 -0.006,0.52497 0.0669,0.15924 0.10896,0.29443 0.0931,0.30119 -0.33359,0.14209 -0.68381,0.24981 -0.95463,0.30309 l 0,-6.7e-4 c -0.27085,0.0533 -0.46234,0.0531 -0.4791,-0.02 -0.0233,-0.10185 0.0227,-0.18948 0.10231,-0.19412 0.29727,-0.0171 0.92938,-0.42303 0.89467,-0.57459 -0.0204,-0.0887 -0.17629,-0.05 -0.35773,0.089 -0.17697,0.13564 -0.47604,0.2707 -0.66464,0.29987 -0.18863,0.0292 -0.0183,-0.16138 0.37889,-0.42306 0.39719,-0.26167 0.69825,-0.57455 0.66888,-0.69584 -0.0346,-0.14278 -0.0878,-0.14817 -0.15029,-0.0148 -0.0531,0.11325 -0.43838,0.37294 -0.85657,0.57719 -0.85787,0.41899 -1.14322,0.36098 -1.78862,-0.36308 -0.32489,-0.36447 -0.33586,-0.41876 -0.0846,-0.43275 0.15807,-0.009 0.41654,0.0714 0.57433,0.17801 0.24332,0.16439 0.2297,0.16876 -0.0924,0.0295 -0.5121,-0.22115 -0.4103,0.0518 0.17852,0.47851 0.31097,0.2253 0.50733,0.27037 0.56306,0.12963 0.0471,-0.11886 0.30519,-0.31351 0.57362,-0.43275 0.26843,-0.11919 0.5241,-0.30908 0.5687,-0.42175 0.0536,-0.13508 -0.0294,-0.13452 -0.24555,0.003 -0.90357,0.57059 -1.30871,0.33248 -1.65386,-0.97316 -0.0804,-0.30413 -0.23228,-0.53681 -0.33798,-0.51658 -0.10795,0.0206 -0.114,-0.22185 -0.0134,-0.55332 0.11765,-0.38737 0.10938,-0.52922 -0.0247,-0.41275 -0.1454,0.1262 -0.18781,0.0846 -0.14749,-0.1438 0.0312,-0.1767 -0.0607,-0.4488 -0.2039,-0.60492 -0.0106,-0.0116 -0.0158,-0.021 -0.0255,-0.0323 l -0.27024,1.10925 c 0.0608,0.0375 0.13085,0.086 0.21098,0.14767 0.14763,0.1135 0.22075,0.17246 0.21308,0.18315 -0.007,0.0105 -0.0959,-0.027 -0.26884,-0.10511 -0.0715,-0.0324 -0.12814,-0.0642 -0.18696,-0.0961 l -0.30199,1.23757 -0.86927,-3.93845 c -0.007,-1.6e-4 -0.0151,-0.002 -0.0233,0 -0.11108,0.0213 -0.16665,-0.0502 -0.12347,-0.15928 0.013,-0.0326 0.0508,-0.0446 0.10159,-0.0452 l -0.10935,-0.49528 c -0.0178,-0.0274 -0.0342,-0.0552 -0.0403,-0.0819 -0.0102,-0.044 -0.0102,-0.0848 -0.005,-0.12316 l -1.09577,-4.96385 c -0.16786,0.59637 -0.26654,1.1405 -0.19755,1.28143 0.0556,0.11356 -0.0255,0.28101 -0.17992,0.3721 -0.22571,0.13316 -0.22439,0.18563 0.003,0.26829 0.22812,0.0826 0.22832,0.16221 7.2e-4,0.40371 -0.21302,0.22603 -0.21825,0.31284 -0.019,0.34696 0.19644,0.0337 0.18725,0.13266 -0.0366,0.38244 -0.2948,0.32878 -0.29097,0.33485 0.14111,0.25215 l 0.4431,-0.0844 -0.34996,0.52366 c -0.25401,0.38059 -0.2684,0.47569 -0.0522,0.34825 0.37155,-0.21903 0.45573,0.0713 0.14606,0.50431 -0.21161,0.29586 -0.20558,0.3208 0.0621,0.26957 0.39697,-0.0761 0.478,0.38266 0.11993,0.67781 -0.27417,0.22601 -0.27246,0.23407 0.041,0.17927 0.37619,-0.0657 0.54873,0.36153 0.22577,0.55914 -0.17153,0.10495 -0.16655,0.12502 0.0232,0.0999 0.40373,-0.0533 0.37003,0.43502 -0.0627,0.90674 -0.45899,0.50026 -0.40851,0.53135 0.24342,0.14963 0.6254,-0.3662 0.70619,0.11299 0.10161,0.60233 -0.34164,0.2765 -0.35905,0.3238 -0.0706,0.19089 0.55421,-0.25532 0.74675,0.0493 0.36689,0.58043 -0.235,0.32857 -0.24582,0.4103 -0.0388,0.28826 0.39242,-0.23133 0.48793,0.24301 0.11149,0.55335 -0.26704,0.2201 -0.26404,0.23255 0.0338,0.18055 0.25075,-0.0438 0.34414,0.0839 0.42616,0.58041 0.0838,0.50688 0.003,0.7165 -0.39088,1.0338 -0.27252,0.21895 -0.56499,0.37779 -0.65055,0.35276 -0.0855,-0.0251 -0.28555,0.0619 -0.44451,0.19348 -0.23617,0.19549 -0.18775,0.20961 0.26459,0.0767 0.30444,-0.0894 0.71507,-0.28616 0.91302,-0.43789 0.77039,-0.59046 1.10563,-0.30254 0.40006,0.34372 -0.23611,0.21628 -0.62605,0.43073 -0.86574,0.47661 -0.26106,0.0498 -0.37529,0.15219 -0.28505,0.25538 0.0204,0.0236 0.0272,0.0367 0.0211,0.0394 -0.0182,0.008 -0.14839,-0.073 -0.34362,-0.21797 -0.26033,-0.19322 -0.43946,-0.43688 -0.39795,-0.54174 0.194,-0.4901 -0.056,-1.00623 -0.69569,-1.43491 -0.92938,-0.62287 -1.40512,-1.18425 -0.52778,-0.62298 0.81882,0.52384 0.91913,0.53132 0.8107,0.058 -0.0443,-0.19392 -0.14188,-0.29898 -0.2173,-0.23344 -0.0754,0.0654 -0.3907,-0.0911 -0.69994,-0.34761 -0.43597,-0.36157 -0.46719,-0.41924 -0.139,-0.25732 0.2328,0.11486 0.62417,0.25976 0.86926,0.32181 0.41816,0.10585 0.42652,0.0901 0.13972,-0.25668 -0.1681,-0.20322 -0.35839,-0.3241 -0.42265,-0.26828 -0.0642,0.0557 -0.25898,-0.0545 -0.43322,-0.24506 -0.28475,-0.31151 -0.28112,-0.32951 0.0389,-0.17606 0.44654,0.21418 0.66017,0.0369 0.64912,-0.53914 -0.009,-0.44845 -0.2753,-0.58737 -0.32808,-0.1709 -0.0295,0.23317 -0.48798,0.0106 -1.37518,-0.66748 -0.28958,-0.22137 -0.1505,-0.18354 0.3662,0.0993 0.64592,0.3536 0.87431,0.40083 1.01109,0.20959 0.13677,-0.19124 0.0657,-0.30769 -0.31469,-0.51787 -0.27024,-0.14926 -0.48049,-0.21042 -0.46709,-0.13541 0.0338,0.18967 -0.69676,-0.578 -0.75003,-0.78808 -0.0238,-0.0937 0.34317,0.0825 0.81564,0.3908 0.47542,0.31027 1.05137,0.53419 1.2898,0.50175 0.23696,-0.0322 0.36515,-0.12161 0.28505,-0.19864 -0.0802,-0.0769 -0.2671,-0.11677 -0.41558,-0.0884 -0.30493,0.0583 -0.50925,-0.53774 -0.25896,-0.75518 0.0897,-0.0779 0.14506,-0.21861 0.12348,-0.31279 -0.0216,-0.0941 -0.0943,-0.1236 -0.16158,-0.0652 -0.18992,0.16505 -0.31556,-0.75965 -0.1665,-1.22469 0.0733,-0.22864 0.11208,-0.50878 0.086,-0.62233 -0.026,-0.11354 0.0743,-0.34501 0.22367,-0.51462 0.14938,-0.16959 0.17795,-0.23972 0.0627,-0.15544 -0.28461,0.20834 -0.33556,-0.10723 -0.0672,-0.41595 0.21316,-0.24509 -0.0176,-0.97647 -0.24553,-0.7784 -0.0645,0.056 -0.14138,-0.003 -0.17076,-0.13091 -0.0293,-0.12816 0.059,-0.21627 0.19617,-0.19607 0.13717,0.0202 0.2927,-0.0731 0.34572,-0.20701 0.0548,-0.13848 -0.005,-0.25473 -0.13972,-0.26892 -0.12974,-0.0137 -0.25111,-0.0926 -0.27023,-0.17607 -0.0191,-0.0834 0.0985,-0.13231 0.26106,-0.10835 0.2164,0.0319 0.25094,-0.0519 0.13055,-0.31471 -0.11893,-0.25949 -0.0842,-0.34749 0.12487,-0.31664 0.15898,0.0233 0.32719,-0.0541 0.37396,-0.17219 0.0545,-0.13785 0.0102,-0.14964 -0.12417,-0.033 -0.14051,0.12204 -0.19622,0.0975 -0.16934,-0.0742 0.022,-0.1408 0.13594,-0.25475 0.25329,-0.25409 0.11738,7.1e-4 0.13985,-0.1024 0.0501,-0.22958 -0.0575,-0.0816 -0.0214,-0.30303 0.0698,-0.5643 l -2.66001,-12.046857 -8.68773,0 z m 37.70518,0 -2.46528,10.971792 c 0.0145,0.20787 -0.006,0.36013 -0.0726,0.37276 -0.003,6.6e-4 -0.006,-0.002 -0.0106,-0.002 l -0.0303,0.13349 c 0.23907,0.0408 0.34238,0.25044 0.43888,0.88934 0.0701,0.4644 0.18017,0.83401 0.24483,0.8216 0.32324,-0.0621 0.39903,-0.63823 0.18486,-1.40526 -0.24406,-0.874 -0.10867,-1.73346 0.31257,-1.98179 0.18243,-0.10753 0.29029,0.10478 0.48615,0.95962 0.13829,0.60368 0.1779,1.16158 0.0882,1.23952 -0.0897,0.0779 -0.1833,0.0556 -0.20743,-0.0497 -0.0241,-0.10532 -0.11216,-0.1323 -0.19615,-0.0594 -0.084,0.073 -0.1073,0.27715 -0.0516,0.45337 0.0987,0.31177 0.11357,0.30826 0.54681,-0.1206 0.37444,-0.37061 0.41721,-0.56347 0.26884,-1.21112 -0.22492,-0.9817 0.0302,-1.84483 0.57927,-1.96052 0.0778,-0.0164 0.18494,0.41644 0.23847,0.9622 0.0716,0.7303 0.147,0.94925 0.28577,0.82871 0.10371,-0.0901 0.12928,-0.42434 0.0564,-0.74229 -0.19032,-0.83067 -0.0274,-1.49727 0.4311,-1.76576 0.21897,-0.12822 0.48235,-0.37857 0.58491,-0.5559 0.30352,-0.524755 0.50292,-0.429673 0.70981,0.33728 l 0.19475,0.72229 -0.0628,-0.78806 c -0.0472,-0.58925 0.0351,-0.85907 0.3281,-1.069911 0.21554,-0.155087 0.4665,-0.386245 0.55739,-0.513342 0.26066,-0.364427 0.42552,-0.319093 0.62585,0.172187 0.17969,0.440648 0.18318,0.438278 0.0917,-0.08448 -0.10224,-0.584393 0.22346,-1.157638 0.50448,-0.887391 0.0895,0.08598 0.1282,0.243814 0.0861,0.350186 -0.042,0.106374 0.0177,0.174966 0.13335,0.152843 0.1156,-0.02213 0.14663,-0.199599 0.0685,-0.394039 -0.0875,-0.217451 -0.0167,-0.454303 0.18415,-0.615888 0.17955,-0.144478 0.40472,-0.398535 0.50025,-0.564292 0.1544,-0.267887 0.18184,-0.272949 0.24696,-0.04708 0.0403,0.139756 0.13626,7.02e-4 0.21308,-0.308912 0.0768,-0.309645 0.15928,-0.507843 0.18345,-0.440469 0.0182,0.05074 0.17804,-0.09442 0.38806,-0.34309 l 1.03579,-3.4567 -7.70205,0 z m 5.936,5.89251 c -0.11222,0.04169 -0.29193,0.177477 -0.45651,0.352765 -0.21377,0.227665 -0.29918,0.398473 -0.19051,0.379849 0.10868,-0.01861 0.26987,-0.135425 0.35843,-0.259253 0.0644,-0.09007 0.125,-0.129786 0.18627,-0.130916 l 0.10232,-0.342445 z m -1.27498,0.691984 c -0.0243,-0.0044 -0.0497,-0.0044 -0.0755,6.61e-4 -0.10303,0.01972 -0.16973,0.112827 -0.14815,0.207013 0.0216,0.09418 0.12343,0.155145 0.22648,0.135432 0.10304,-0.01972 0.16975,-0.112832 0.14818,-0.207017 -0.0161,-0.07063 -0.0778,-0.122844 -0.15099,-0.136076 z m 1.0492,0.06127 c -0.0486,0.02951 -0.0963,0.05916 -0.15523,0.08771 -0.51013,0.24703 -0.52258,0.272089 -0.10584,0.208949 0.0749,-0.01133 0.12852,-0.01643 0.1778,-0.02 l 0.0832,-0.276664 z m -0.87281,0.493353 c -0.17461,-0.0132 -0.27134,0.0513 -0.35418,0.213467 -0.0802,0.156858 -0.37923,0.478258 -0.66467,0.714558 -0.29217,0.24187 -0.45596,0.51936 -0.37465,0.63458 0.0927,0.13136 0.0159,0.2081 -0.21379,0.21412 -0.19693,0.005 -0.48215,0.17854 -0.63431,0.38501 -0.26763,0.36314 -0.24801,0.3679 0.58986,0.16186 0.59441,-0.14625 0.78147,-0.14574 0.59761,6.7e-4 -0.14734,0.11731 -0.57026,0.23281 -0.93981,0.25732 -0.42466,0.0282 -0.74789,0.15151 -0.87845,0.33405 -0.26934,0.3766 -0.40379,0.39172 -0.80717,0.0909 -0.29831,-0.22241 -0.30052,-0.21027 -0.0248,0.11479 0.28378,0.33442 0.3846,0.34012 1.24888,0.0697 0.65857,-0.2061 0.86765,-0.2263 0.69852,-0.0678 -0.13282,0.12454 -0.59525,0.29496 -1.02802,0.37922 -0.81399,0.15863 -1.67482,0.62609 -1.61718,0.87772 0.0181,0.079 0.49655,0.055 1.0633,-0.0536 0.56675,-0.10848 1.0472,-0.12486 1.06753,-0.0361 0.0215,0.0938 -0.57829,0.24507 -1.43303,0.36113 -1.10496,0.15006 -1.3891,0.23363 -1.14513,0.336 0.28024,0.11757 0.27955,0.13167 -0.005,0.10512 -0.18166,-0.0168 -0.46147,0.10713 -0.62161,0.27537 -0.25768,0.2707 -0.12399,0.27466 1.16209,0.0337 0.83983,-0.15746 1.46958,-0.20021 1.49228,-0.10126 0.0215,0.0942 -0.0221,0.1931 -0.0967,0.21991 -0.57808,0.20797 -0.96464,0.27033 -0.98994,0.15995 -0.0165,-0.0718 -0.48972,-0.0391 -1.052,0.0736 -0.62978,0.12595 -0.96308,0.26185 -0.86785,0.35341 0.0957,0.092 -0.032,0.1419 -0.33586,0.13091 -0.31022,-0.0112 -0.59963,0.10564 -0.78742,0.31794 -0.23792,0.26894 -0.23893,0.30607 -0.004,0.18702 0.38108,-0.19389 3.65546,-0.11862 3.70215,0.0851 0.0589,0.25703 -1.06135,0.38852 -1.61648,0.1896 -0.28368,-0.10165 -0.58753,-0.12262 -0.67524,-0.0466 -0.0876,0.0763 -0.54374,0.094 -1.0132,0.04 -0.86066,-0.0991 -1.51955,0.12019 -0.78459,0.26119 0.33622,0.0645 0.32669,0.0767 -0.0621,0.0826 -0.32021,0.005 -0.57342,0.0745 -0.72885,0.1838 l -0.10513,0.4695 c 0.13159,0.21901 0.43023,0.21888 0.74862,-0.0252 0.18487,-0.1417 0.34991,-0.19711 0.36689,-0.12317 0.017,0.074 0.34825,0.0814 0.73662,0.0161 0.96521,-0.16227 3.93417,-0.47411 4.02883,-0.42305 0.0421,0.0228 -0.22881,0.1861 -0.60185,0.36244 -0.9251,0.43728 -2.69023,0.75729 -3.05867,0.55462 -0.24109,-0.1326 -0.26495,-0.12842 -0.11995,0.0227 0.25727,0.26789 -0.12037,0.30061 -0.5447,0.0471 -0.22815,-0.1363 -0.33977,-0.13937 -0.30975,-0.009 0.0356,0.15533 -0.0315,0.1665 -0.28011,0.0466 -0.17988,-0.087 -0.44438,-0.089 -0.58774,-0.004 -0.14336,0.0845 -0.27566,0.0877 -0.29423,0.006 -0.0109,-0.0476 -0.0748,-0.096 -0.16017,-0.1348 l -0.0551,0.24764 c 0.0665,0.0571 0.0575,0.0748 -0.0155,0.0671 l -0.0974,0.43338 c 0.27735,-0.0783 0.4545,-0.0621 0.48193,0.0574 0.0263,0.11497 0.1564,0.14477 0.28928,0.0663 0.13287,-0.0783 0.30971,-0.10135 0.39301,-0.0515 0.0833,0.0498 0.29305,0.0641 0.46638,0.0322 0.17333,-0.0319 0.31778,0.0302 0.32103,0.13801 0.003,0.11927 0.18874,0.12599 0.47344,0.0173 0.29958,-0.11427 0.43826,-0.10522 0.38665,0.0253 -0.0502,0.12677 0.0529,0.14251 0.27377,0.0419 0.19494,-0.0888 0.37186,-0.0857 0.39302,0.006 0.0211,0.0922 0.22395,0.11376 0.45084,0.0478 0.68608,-0.19969 2.0658,-0.22775 2.09485,-0.0426 0.0355,0.22625 -0.87271,0.46849 -0.92359,0.24636 -0.0231,-0.10105 -0.13997,-0.0886 -0.28928,0.0303 -0.34224,0.27248 -1.60735,0.36395 -1.50641,0.10898 0.0504,-0.12734 -0.0954,-0.13388 -0.40077,-0.0174 -0.26436,0.10085 -0.54119,0.12539 -0.61526,0.0542 -0.0741,-0.0712 -0.28128,-0.0177 -0.46003,0.11931 -0.17874,0.13699 -0.32388,0.18515 -0.32316,0.10706 0.003,-0.2836 -0.42637,-0.68071 -0.58563,-0.54239 -0.10085,0.0877 -0.0519,0.18472 0.12772,0.25411 0.21351,0.0825 0.186,0.10924 -0.103,0.0999 -0.20343,-0.006 -0.69626,0.004 -1.12965,0.0232 l -0.41064,1.82896 c 0.0619,-0.0125 0.13698,-0.0344 0.23778,-0.0729 0.37035,-0.14124 0.45215,-0.11712 0.40994,0.12189 -0.0439,0.24855 0.0411,0.26217 0.50591,0.0806 0.37269,-0.14557 0.53126,-0.15009 0.47695,-0.013 -0.0511,0.1293 0.0502,0.14602 0.27307,0.0444 0.20086,-0.0915 0.3741,-0.0773 0.39936,0.0329 0.0279,0.12198 0.21002,0.12101 0.48825,-0.003 0.29101,-0.12927 0.4598,-0.12554 0.49108,0.011 0.0263,0.11466 0.16385,0.14004 0.30622,0.056 0.14214,-0.0838 0.27161,-0.0943 0.28787,-0.0232 0.0348,0.15177 0.50342,0.11575 1.9375,-0.14898 0.14486,-0.0267 0.30984,-0.0709 0.48263,-0.12382 l 0.64278,-2.14689 c -0.0285,-0.0391 -0.0533,-0.0935 -0.0678,-0.15672 -0.0183,-0.0802 0.0539,-0.16949 0.19192,-0.25796 l 2.73482,-9.124136 c -0.14192,0.06013 -0.32544,0.0682 -0.51509,0.01741 -0.078,-0.02088 -0.145,-0.0343 -0.2032,-0.0387 z m -0.71474,0.251514 c -0.11217,-0.0087 -0.31587,0.107881 -0.37043,0.245711 -0.0326,0.0824 0.004,0.11021 0.0903,0.0813 0.0286,-0.0101 0.0627,-0.0251 0.10095,-0.0477 0.14708,-0.0867 0.26035,-0.18805 0.25189,-0.22507 -0.007,-0.03467 -0.0353,-0.05126 -0.0727,-0.05417 z m -0.79378,0.03484 c -0.009,0.007 -0.009,0.1045 -0.003,0.29472 0.0104,0.41794 -0.003,0.42591 -0.23073,0.1335 -0.20017,-0.25733 -0.2222,-0.25974 -0.12628,-0.0116 0.0731,0.18926 0.1785,0.26965 0.2667,0.26054 0.11337,-0.0118 0.19857,-0.17078 0.15098,-0.43338 -0.0306,-0.16854 -0.0485,-0.25103 -0.0571,-0.24377 z m 1.69126,0.21991 c 0.0881,0.006 0.13427,0.0502 0.10797,0.11673 -0.0351,0.0887 -0.14295,0.1762 -0.2399,0.19476 -0.097,0.0186 -0.1916,-0.0305 -0.20956,-0.10899 -0.018,-0.0785 0.0906,-0.16603 0.24061,-0.19476 0.0374,-0.007 0.0716,-0.0101 0.10085,-0.008 z m -3.51658,1.28981 c -0.009,0.007 -0.0152,0.032 -0.0177,0.0755 -0.009,0.17385 0.0521,0.44332 0.13689,0.59913 0.0212,0.039 0.0379,0.0592 0.0493,0.0626 0.0344,0.0102 0.0242,-0.13134 -0.0325,-0.37857 -0.0567,-0.24723 -0.10918,-0.3806 -0.13619,-0.35857 z m -1.25238,2.03728 c -0.10883,-0.003 -0.29376,0.1789 -0.3281,0.37339 -0.0225,0.12696 -0.0265,0.1913 0,0.19605 0.0265,0.005 0.0835,-0.0498 0.18204,-0.16316 0.12965,-0.14908 0.22898,-0.30044 0.22084,-0.33599 -0.011,-0.0479 -0.0385,-0.0695 -0.0748,-0.0703 z m -13.37629,0.79 c 0.17423,-0.0334 0.65477,0.43141 0.56941,0.55076 -0.0131,0.0184 -0.0273,0.0286 -0.0417,0.0323 -0.043,0.0108 -0.0882,-0.0414 -0.11219,-0.14123 -0.0481,-0.19932 -0.0802,-0.19048 -0.18133,0.0497 -0.0992,0.23582 -0.14008,0.21761 -0.21379,-0.0935 -0.0501,-0.21162 -0.0594,-0.39045 -0.0204,-0.39792 z m -18.39784,0.55269 c 0.0488,-0.008 0.0987,-0.002 0.14393,0.0258 0.25517,0.15247 0.21918,0.37084 -0.0706,0.42629 -0.15457,0.0295 -0.29791,-0.0191 -0.31821,-0.1077 -0.037,-0.16195 0.0984,-0.32064 0.24483,-0.34439 z m 28.71899,0.16639 -0.0529,0.23346 c 0.0861,0.0533 0.19853,0.0827 0.28011,0.0671 0.10303,-0.0197 0.11772,-0.10312 0.0324,-0.1851 -0.0645,-0.062 -0.16835,-0.10608 -0.25964,-0.11544 z m 0.3027,0.47916 c -0.12087,-0.008 -0.19991,0.15479 -0.19405,0.46175 0.004,0.23571 0.0227,0.33553 0.0995,0.32827 0.046,-0.004 0.11331,-0.0471 0.21096,-0.12188 0.17331,-0.13285 0.23155,-0.33148 0.13687,-0.46563 -0.0932,-0.13219 -0.18077,-0.19801 -0.25328,-0.20251 z m -29.11059,0.39211 c 0.0946,0.0177 0.14869,0.0906 0.13052,0.19346 -0.0241,0.13634 0.16762,0.29418 0.42971,0.35342 0.43363,0.098 0.44177,0.11312 0.0995,0.18572 -0.20516,0.0435 -0.77153,0.0675 -1.25875,0.0536 -0.47376,-0.0135 -1.04523,-0.0106 -1.30461,0.005 l -0.0665,-0.29021 c 0.14843,-0.002 0.30813,-4e-4 0.48119,0.007 0.84641,0.0366 1.02036,0.003 1.05694,-0.20443 0.0241,-0.13652 0.17072,-0.27224 0.32528,-0.30182 0.0392,-0.008 0.0751,-0.008 0.10654,-0.003 z m 28.60185,0.0432 -0.16933,0.75454 c 0.15044,-0.17227 0.24285,-0.34455 0.22225,-0.46821 -0.0171,-0.10322 -0.0354,-0.18751 -0.053,-0.28633 z m -10.26751,0.10382 0.10795,0.43145 c 0.0247,0.016 0.0474,0.026 0.0719,0.0439 0.19824,0.14402 0.22504,0.24322 0.0953,0.35598 -0.0244,0.0212 -0.0401,0.0449 -0.0501,0.0697 l 0.0516,0.20701 c 0.0438,0.0672 0.10466,0.14099 0.2025,0.23022 0.45999,0.41959 0.49683,0.52067 0.20815,0.57592 -0.12022,0.023 -0.17855,-0.0154 -0.12913,-0.0844 0.0569,-0.0797 -0.0407,-0.20201 -0.17428,-0.29215 l 0.15312,0.61461 c 0.24249,0.15547 0.4199,0.19153 0.49601,0.085 0.18093,-0.25296 0.0335,-1.28077 -0.19475,-1.35624 -0.0944,-0.0312 -0.15253,0.0295 -0.12841,0.13478 0.0241,0.10532 -0.0657,0.15525 -0.19967,0.11094 -0.17021,-0.0562 -0.15963,-0.16537 0.0338,-0.36181 0.26055,-0.2645 0.24898,-0.29513 -0.18628,-0.51332 -0.13508,-0.0678 -0.26167,-0.15971 -0.35773,-0.25153 z m 5.80758,0.14641 c -0.0189,0.0146 -0.035,0.0292 -0.0557,0.0439 -0.31675,0.22276 -0.32209,0.25761 -0.0353,0.21282 0.0589,-0.009 0.10938,-0.0114 0.1517,-0.005 l -0.0607,-0.25152 z m -11.59752,0.33921 c 0.0729,0.0118 0.13366,0.0601 0.14888,0.1264 0.0204,0.0887 -0.0365,0.22453 -0.12629,0.30247 -0.0224,0.0195 -0.0459,0.0307 -0.0685,0.0342 -0.0678,0.0101 -0.13071,-0.0492 -0.15592,-0.15929 -0.0337,-0.14684 0.0232,-0.28276 0.12629,-0.30246 0.0258,-0.005 0.0511,-0.005 0.0755,-0.002 z m 10.05444,0.0387 c -0.0914,0.0202 -0.12844,0.0836 -0.10444,0.18831 0.0215,0.0943 0.17522,0.1452 0.3408,0.11352 0.19757,-0.0378 0.283,0.0433 0.24908,0.23539 -0.0284,0.16095 -0.0257,0.40695 0.006,0.54687 0.0424,0.18519 -0.0632,0.24397 -0.39019,0.21541 -0.44508,-0.039 -0.44522,-0.037 -0.009,0.25732 0.45762,0.30839 0.28946,0.48908 -0.18907,0.20313 -0.17717,-0.10584 -0.25759,-0.0983 -0.23003,0.022 0.0596,0.26 0.42551,0.4326 0.68441,0.39081 0.0863,-0.0138 0.16084,-0.0519 0.20815,-0.11803 0.0944,-0.13184 0.31803,-0.26812 0.49742,-0.30245 0.1794,-0.0343 0.35558,-0.13664 0.3916,-0.22765 0.036,-0.091 -0.14731,-0.0838 -0.40782,0.0155 -0.39348,0.15005 -0.46422,0.12565 -0.41701,-0.14189 0.14583,-0.82591 0.085,-1.2316 -0.19825,-1.3285 -0.19518,-0.0668 -0.34109,-0.0899 -0.43252,-0.0696 z m -9.49986,0.11093 c 0.0878,-0.0218 0.1197,0.034 0.096,0.16831 -0.0324,0.1829 -0.16494,0.30379 -0.27377,0.30828 -0.0651,0.003 -0.12206,-0.0366 -0.14322,-0.12899 -0.0193,-0.0841 0.0772,-0.21892 0.21449,-0.29988 0.0417,-0.0247 0.0773,-0.0404 0.10654,-0.0478 z m 18.11846,0.25023 c 0.046,0.008 0.0449,0.0303 -0.0141,0.0665 -0.0589,0.0361 -0.14089,0.0644 -0.22579,0.0806 -0.0849,0.0162 -0.17287,0.0204 -0.24271,0.009 -0.13968,-0.0229 -0.0431,-0.0816 0.21448,-0.1309 0.12881,-0.0247 0.22209,-0.0327 0.26814,-0.0252 z m -19.19941,0.14446 c 0.10747,-0.0153 0.25321,0.071 0.35914,0.27021 0.12182,0.22911 0.29424,0.34521 0.38948,0.26248 0.0985,-0.0856 0.13405,-0.0555 0.084,0.071 -0.0267,0.0674 -0.0954,0.10459 -0.18486,0.11737 -0.26836,0.0383 -0.72208,-0.14213 -0.77685,-0.38114 -0.0476,-0.2076 0.0217,-0.32453 0.12912,-0.33987 z m 12.34404,0.033 c -0.004,0.17729 -0.012,0.32466 -0.0106,0.5043 0.004,0.58924 -0.73267,1.38119 -1.10282,1.18406 -0.0968,-0.0513 -0.0957,-0.0114 0.003,0.089 0.12782,0.13121 0.31027,0.10841 0.64842,-0.0806 0.41527,-0.23209 0.43886,-0.22826 0.19686,0.0337 -0.28638,0.30977 -0.3021,0.81271 -0.0177,0.56559 0.0897,-0.0779 0.19127,-0.0206 0.22507,0.12704 0.0459,0.20025 0.13598,0.21284 0.3542,0.0509 0.0296,-0.022 0.1968,-0.1422 0.25472,-0.18445 l -0.14888,-0.61847 c -0.17145,-0.0976 -0.19386,-0.18869 -0.0867,-0.36114 l -0.3147,-1.30981 z m -25.96161,0.002 c 0.18724,-0.008 0.31839,0.013 0.33021,0.0645 0.0181,0.0787 -0.20855,0.15694 -0.47626,0.20443 l -0.0571,-0.25087 c 0.0725,-0.009 0.14079,-0.0154 0.20319,-0.0181 z m 13.26268,0.64943 c 0.16934,-0.0325 0.8425,0.64258 0.89395,0.89642 0.0131,0.0644 0.007,0.10004 -0.0147,0.10835 -0.038,0.0137 -0.12481,-0.0499 -0.25825,-0.19092 -0.17973,-0.18985 -0.37352,-0.28006 -0.43038,-0.20056 -0.0569,0.0795 -0.14165,-0.0223 -0.1884,-0.22636 -0.0471,-0.20407 -0.0479,-0.37819 -0.003,-0.38693 z m -7.82341,0.16509 c 0.24991,-0.036 0.79125,0.22118 0.68653,0.3676 -0.0523,0.0731 -0.23005,0.0681 -0.39512,-0.0117 -0.24,-0.11597 -0.25991,-0.0887 -0.0995,0.13865 0.13806,0.19566 0.12308,0.25949 -0.0472,0.20315 -0.13617,-0.045 -0.22891,-4.4e-4 -0.20603,0.0993 0.0228,0.0997 0.13076,0.16407 0.23989,0.14316 0.10912,-0.0209 0.16246,0.0543 0.11783,0.16703 -0.0192,0.0485 -0.0523,0.0761 -0.0967,0.0826 -0.0738,0.0108 -0.17898,-0.0359 -0.30552,-0.13929 -0.17653,-0.14415 -0.24882,-0.30303 -0.16017,-0.35277 0.0887,-0.0498 0.13726,-0.19524 0.10796,-0.32309 -0.0293,-0.12787 0.003,-0.28056 0.0713,-0.33987 0.0211,-0.0184 0.051,-0.0296 0.0867,-0.0348 z m 16.47586,0.44755 c -0.12426,0.003 -0.29125,0.0236 -0.47131,0.0639 -0.32279,0.072 -0.64265,0.0677 -0.91159,0.0101 l 0.0593,0.23861 c 0.62552,0.0323 1.5763,-0.0941 1.53814,-0.26055 -0.009,-0.0368 -0.0902,-0.0539 -0.21448,-0.0516 z m -5.85414,0.31215 c -0.0201,0.006 -0.0449,0.0218 -0.0741,0.0471 -0.0992,0.0862 -0.1553,0.29165 -0.12489,0.45595 0.17948,0.96962 0.15208,1.31838 -0.12347,1.59807 -0.26787,0.27191 -0.26637,0.3049 0.009,0.25216 0.15527,-0.0296 0.27349,0.0594 0.3535,0.1967 l 0.27939,-1.08862 c -0.0505,-0.0631 -0.0812,-0.10733 -0.0691,-0.10961 0.0119,-0.003 0.0453,0.0126 0.0882,0.0355 l 0.10301,-0.40048 c -0.34981,-0.26905 -0.33219,-0.28193 0.024,-0.0948 l 0.0813,-0.31406 c -0.16178,-0.0707 -0.31284,-0.11664 -0.39655,-0.10065 -0.084,0.0161 -0.12793,-0.10927 -0.0981,-0.2786 0.0264,-0.14914 0.007,-0.21696 -0.0523,-0.19863 z m 7.62654,0.1451 c 0.0822,0.0168 0.25759,0.11847 0.56165,0.31278 0.29594,0.18914 0.45931,0.35686 0.36336,0.37211 -0.25836,0.041 -0.81804,-0.25374 -0.92783,-0.48818 -0.0683,-0.14584 -0.0793,-0.21362 0.003,-0.19671 z m -2.94364,6.3e-4 c -0.0456,0.009 -0.0652,0.0928 -0.0437,0.18703 0.0216,0.0941 0.12868,0.15439 0.23778,0.13348 0.10913,-0.0209 0.12832,-0.10502 0.043,-0.18701 -0.0852,-0.082 -0.19163,-0.14223 -0.23708,-0.1335 z m -15.92906,0.36115 c 0.11132,-0.003 0.30939,0.0959 0.48967,0.26763 0.2645,0.25201 0.36494,0.40142 0.31045,0.42499 -0.0423,0.0183 -0.17886,-0.0392 -0.40428,-0.18444 -0.25241,-0.16275 -0.46809,-0.33784 -0.4798,-0.38887 -0.0182,-0.0799 0.0171,-0.11784 0.084,-0.11931 z m 15.92764,0.0974 0.46709,1.87474 c 0.12739,-0.0389 0.22821,-0.118 0.24837,-0.23216 0.0237,-0.13454 0.32368,-0.35048 0.66605,-0.47981 0.34641,-0.13085 0.55389,-0.30092 0.4678,-0.38372 -0.0947,-0.091 -0.22542,-0.0719 -0.33656,0.0491 -0.0999,0.10881 -0.32985,0.22371 -0.51083,0.25538 -0.24963,0.0438 -0.36223,-0.087 -0.46638,-0.54172 -0.0755,-0.32965 -0.17811,-0.54233 -0.2279,-0.47271 -0.0299,0.0418 -0.15178,0.008 -0.30764,-0.069 z m 3.05019,0.21476 c 0.13937,-0.0105 0.81303,0.34062 0.83471,0.43531 0.0196,0.0855 -0.0139,0.12845 -0.0789,0.13349 -0.10853,0.009 -0.30553,-0.0882 -0.49321,-0.26699 -0.17185,-0.16373 -0.28978,-0.29983 -0.26248,-0.30181 z m -23.11744,0.21153 c -0.0432,0.003 -0.095,0.0181 -0.15451,0.04 l 0.17004,0.583 c 0.25086,0.0742 0.2765,0.0164 0.2251,-0.29923 -0.0386,-0.23678 -0.10162,-0.33273 -0.24063,-0.32374 z m 20.97038,0.0148 c -0.10304,0.0197 -0.16973,0.11348 -0.14816,0.20766 0.0216,0.0941 0.12344,0.1545 0.22649,0.13478 0.10304,-0.0196 0.16974,-0.11281 0.14817,-0.20702 -0.0216,-0.0941 -0.12344,-0.15513 -0.2265,-0.13542 z m 4.95596,0.0438 c -0.27225,0.0612 -0.50918,0.1228 -0.62938,0.17412 -0.062,0.0266 -0.10911,0.24848 -0.10443,0.49337 0.007,0.39532 0.0718,0.4333 0.57364,0.33728 l 0.38383,-0.0736 -0.22366,-0.93124 z m -2.96201,0.13736 c 0.0898,-0.003 0.25166,0.071 0.50308,0.22315 0.35656,0.21591 0.37467,0.26643 0.14183,0.4037 -0.0421,0.0248 -0.0816,0.0413 -0.11713,0.0491 -0.10648,0.0233 -0.18042,-0.0292 -0.20886,-0.15348 -0.0331,-0.14388 -0.12138,-0.20876 -0.19613,-0.1438 -0.0748,0.065 -0.16191,0.006 -0.19335,-0.13158 -0.0369,-0.16126 -0.0193,-0.24327 0.0706,-0.24699 z m -19.06813,0.0774 c 0.0828,0.0158 0.25914,0.14464 0.56304,0.39213 0.58566,0.47684 0.6559,0.59678 0.38101,0.6494 -0.10303,0.0197 -0.21388,-0.08 -0.24624,-0.22121 -0.0772,-0.33698 -0.37895,-0.27252 -0.44381,0.0948 -0.0301,0.17021 0.1738,0.42233 0.49884,0.61653 0.30226,0.18059 0.48883,0.38076 0.41488,0.44498 -0.009,0.008 -0.0224,0.0126 -0.0395,0.0135 -0.11951,0.007 -0.4182,-0.15245 -0.71829,-0.38951 -0.64741,-0.5115 -0.82587,-0.75768 -0.46142,-0.63718 0.21578,0.0713 0.23253,-0.15515 0.0502,-0.67972 -0.0705,-0.20274 -0.0813,-0.29961 0.002,-0.28377 z m 8.44854,0.33923 c 0.0265,-0.0267 0.2756,0.14195 0.75002,0.50753 0.3208,0.24721 0.46047,0.36894 0.42969,0.37857 -0.0185,0.006 -0.0977,-0.029 -0.23706,-0.10064 -0.27751,-0.1424 -0.6156,-0.37895 -0.75073,-0.52623 -0.14353,-0.15645 -0.20777,-0.24321 -0.19192,-0.25927 z m -6.73118,0.038 c -0.0191,-0.0115 -0.0622,0.035 -0.13547,0.13673 -0.10146,0.14067 -0.12761,0.2898 -0.0578,0.33149 0.0175,0.0105 0.0355,0.0109 0.0537,0.003 0.0543,-0.0234 0.10678,-0.12185 0.13052,-0.2586 0.0228,-0.13177 0.0282,-0.20137 0.009,-0.21282 z m 20.58371,0.53463 -0.12981,0.22251 c -0.14502,0.24895 -0.16558,0.33347 -0.0459,0.18766 0.0467,-0.0568 0.13358,-0.1154 0.23284,-0.1709 l -0.0571,-0.23927 z m -4.87622,0.0278 c -0.0243,-0.004 -0.0504,-0.004 -0.0762,6.2e-4 -0.10304,0.0197 -0.16903,0.11284 -0.14747,0.20701 0.0216,0.0941 0.12345,0.15515 0.22649,0.13544 0.10306,-0.0196 0.16974,-0.11283 0.14817,-0.20701 -0.0161,-0.0707 -0.0778,-0.12285 -0.15099,-0.13608 z m -6.81019,0.24377 c -0.0338,4e-4 -0.0783,0.004 -0.13336,0.0129 -0.19921,0.0304 -0.30038,0.0917 -0.22508,0.13672 0.0376,0.0225 0.0973,0.0281 0.16299,0.0181 0.0656,-0.0102 0.13701,-0.0351 0.19897,-0.0729 0.1027,-0.0626 0.098,-0.096 -0.003,-0.0948 z m 6.23939,0.10771 c -0.0369,-0.004 -0.0761,-0.003 -0.11573,0.004 -0.0264,0.005 -0.0436,0.015 -0.0641,0.0232 l 0.31397,1.26143 c 0.0721,-0.0648 0.12423,-0.11631 0.12067,-0.13221 -0.0144,-0.0638 0.22991,-0.17381 0.54258,-0.2444 0.31266,-0.0707 0.64712,-0.24101 0.74367,-0.37858 0.13701,-0.19521 0.0572,-0.2046 -0.36336,-0.0413 -0.46659,0.18123 -0.48735,0.17619 -0.15594,-0.0405 0.53979,-0.35314 0.43452,-0.4871 -0.20744,-0.26441 -0.35894,0.12453 -0.55968,0.11578 -0.59198,-0.0252 -0.0202,-0.0881 -0.11115,-0.14986 -0.22225,-0.16252 z m 4.45994,0.20571 c -0.0702,0.006 -0.10803,0.059 -0.0889,0.14252 0.0315,0.138 -0.0404,0.16294 -0.22649,0.078 -0.15014,-0.0684 -0.4954,-0.0697 -0.76766,-0.003 -0.27227,0.0665 -0.46892,0.0528 -0.43605,-0.0303 0.0629,-0.15902 -1.14783,0.17647 -1.38716,0.38436 -0.0766,0.0665 -0.13519,0.31901 -0.13054,0.56109 0.006,0.37743 0.0504,0.40758 0.30551,0.21216 0.45812,-0.35112 0.74192,-0.34574 0.72253,0.0135 -0.0145,0.26953 0.0724,0.29548 0.50095,0.15154 0.29776,-0.10003 0.53655,-0.0948 0.56093,0.0117 0.0233,0.10192 0.15107,0.12136 0.28364,0.0432 0.35011,-0.20638 0.61471,0.13288 0.41135,0.52754 -0.14771,0.28667 -0.14144,0.29811 0.0395,0.0742 0.32564,-0.40301 1.07642,-0.49839 1.01107,-0.12834 -0.0456,0.25811 -7.6e-4,0.26025 0.32317,0.0117 0.17669,-0.13542 0.32478,-0.19681 0.45156,-0.19218 l -0.35912,-1.49547 c -0.024,-0.0187 -0.0485,-0.0324 -0.0719,-0.056 -0.17628,-0.17881 -0.24922,-0.18941 -0.21731,-0.0329 0.0363,0.17794 -0.0253,0.20033 -0.24764,0.0928 -0.16234,-0.0784 -0.35079,-0.0724 -0.41912,0.0136 -0.0684,0.0859 -0.088,0.055 -0.0437,-0.0697 0.0441,-0.12458 -0.0165,-0.25885 -0.13478,-0.29796 -0.0295,-0.0101 -0.0563,-0.0134 -0.0797,-0.0117 z m 9.2917,0.19992 c -0.18405,0.0445 -0.35533,0.0884 -0.57574,0.13609 -0.99449,0.21539 -1.89618,0.46818 -2.00384,0.56171 -0.12394,0.10765 -0.16321,0.0879 -0.10725,-0.0536 0.0547,-0.1382 -0.0448,-0.19732 -0.26036,-0.15606 -0.19155,0.0366 -0.48339,-0.008 -0.64912,-0.0993 -0.23505,-0.12931 -0.26207,-0.12461 -0.12207,0.0213 0.12029,0.12535 0.0764,0.17154 -0.13335,0.14059 -0.17214,-0.0254 -0.28252,-0.12404 -0.24483,-0.21926 0.0377,-0.0953 -0.0138,-0.15723 -0.11431,-0.13801 -0.10055,0.0193 -0.19398,0.11225 -0.20814,0.20701 -0.0209,0.13979 -1.15801,0.0726 -1.9241,-0.056 l -0.32245,1.43557 c 7.7e-4,1.1e-4 0.003,-1.5e-4 0.003,0 0.0827,0.009 0.14388,0.0651 0.13618,0.12574 -0.007,0.0607 0.18445,0.0349 0.42687,-0.0574 0.24242,-0.0925 0.45799,-0.0927 0.47908,-6.7e-4 0.0211,0.0921 0.26132,0.0828 0.53341,-0.0206 0.46259,-0.17586 0.48197,-0.1638 0.29777,0.19089 -0.15462,0.29771 -0.15141,0.32287 0.0162,0.11544 0.24359,-0.30144 1.13435,-0.5254 1.02874,-0.25861 -0.0383,0.0965 0.10241,0.0976 0.31257,0.003 0.21502,-0.0979 0.35062,-0.0957 0.31044,0.006 -0.10933,0.27622 1.39324,-0.11622 2.74751,-0.63651 l 0.37326,-1.24598 z m -4.96725,0.18638 c -0.0338,4e-4 -0.0783,0.004 -0.13334,0.013 -0.19921,0.0303 -0.30109,0.0917 -0.22578,0.13671 0.0376,0.0225 0.0973,0.0281 0.16298,0.0181 0.0657,-0.0101 0.13771,-0.0351 0.19966,-0.0729 0.10271,-0.0626 0.098,-0.096 -0.003,-0.0949 z m -14.393,0.46949 c -0.15864,0.0821 -0.33245,0.12016 -0.43251,0.0871 -0.14737,-0.0488 -0.17027,-0.0126 -0.06,0.0936 0.0789,0.0761 0.24858,0.0885 0.43533,0.0413 l 0.0571,-0.22186 z m 6.60981,0.36759 -0.34926,0.40952 c -0.0715,0.084 -0.18779,0.17068 -0.3175,0.25345 l 0.3937,1.58067 c 0.25148,-0.1437 0.39987,-0.15444 0.55036,-0.0607 0.19495,0.12154 0.16994,0.24616 -0.10231,0.5037 -0.11006,0.1041 -0.20026,0.21721 -0.25894,0.31405 l 0.0437,0.17605 c 0.0679,-0.0464 0.15813,-0.13514 0.25542,-0.26118 0.32166,-0.41678 1.16497,-0.73046 1.22771,-0.45659 0.0172,0.0754 -0.0506,0.25882 -0.151,0.40757 -0.15078,0.22347 -0.12273,0.21867 0.1637,-0.0245 0.19068,-0.16188 0.50956,-0.26985 0.70838,-0.24054 0.34256,0.0504 0.34572,0.0702 0.0614,0.36888 -0.26751,0.28108 -0.238,0.27984 0.27024,-0.0101 0.45316,-0.25813 0.60974,-0.28597 0.76626,-0.13544 0.1083,0.10414 0.31912,0.1173 0.4678,0.0296 0.14867,-0.0877 0.34496,-0.0877 0.43604,0 0.0911,0.0876 0.38145,0.11827 0.6456,0.0678 0.42604,-0.0815 0.45877,-0.0546 0.28858,0.24184 -0.17478,0.30437 -0.15707,0.30719 0.20038,0.0342 0.28376,-0.21671 0.4609,-0.25853 0.63997,-0.15156 0.13615,0.0813 0.45171,0.10905 0.70133,0.0613 0.40141,-0.0768 0.43145,-0.0485 0.26177,0.24699 -0.17267,0.3007 -0.15678,0.30753 0.15734,0.0677 0.25881,-0.19761 0.41656,-0.2263 0.60961,-0.11094 0.15658,0.0936 0.95214,0.0269 1.99607,-0.16704 0.98166,-0.1824 1.51615,-0.32077 1.9989,-0.54686 l 0.61949,-2.06887 c -0.0781,0.0289 -0.1566,0.0602 -0.23424,0.0871 -0.58225,0.20151 -1.64776,0.44684 -2.59793,0.62428 -0.95017,0.17745 -1.78463,0.28672 -1.90293,0.21605 -0.087,-0.0519 -0.34618,-0.0111 -0.57576,0.0909 -0.25334,0.11254 -0.4346,0.11009 -0.46145,-0.007 -0.0271,-0.1181 -0.20893,-0.12045 -0.46849,-0.005 -0.0478,0.0213 -0.0967,0.0366 -0.14535,0.0502 l -0.30833,1.37172 -0.34786,-1.44976 c -0.0798,0.003 -0.16692,0.0222 -0.24482,0.0626 -0.18928,0.0981 -0.15721,-0.008 0.0867,-0.28828 0.0292,-0.0334 0.0552,-0.0546 0.0832,-0.0844 l -0.0537,-0.22183 c -0.20177,0.22876 -0.62432,0.49911 -0.95182,0.54622 0,0 -7.1e-4,0 -7.1e-4,0 -0.5464,0.0778 -1.79135,-0.12865 -1.72867,-0.28697 0.0348,-0.0879 -0.0869,-0.0916 -0.26953,-0.009 -0.18273,0.0832 -0.73264,0.0603 -1.22205,-0.0509 -0.48941,-0.11121 -1.00005,-0.18132 -1.13527,-0.15543 -0.33184,0.0635 -0.34621,-0.10194 -0.0523,-0.60169 l 0.24625,-0.41854 z m -6.84055,0.53013 c -0.15572,0.0221 -0.34586,0.0554 -0.60113,0.1122 -1.07499,0.23948 -1.20489,0.3407 -0.76696,0.60236 0.29344,0.17532 0.63093,1.03989 0.37254,0.95445 -0.31301,-0.10351 -0.12523,0.25291 0.22155,0.42048 0.10162,0.0492 0.17147,0.0705 0.21944,0.0715 l 0.17004,-0.66362 c -0.002,-4.2e-4 -0.003,-1.7e-4 -0.004,-6.3e-4 -0.14152,-0.0468 -0.32599,-0.2971 -0.40923,-0.55654 -0.13522,-0.42151 -0.0841,-0.49196 0.47626,-0.66039 0.10658,-0.032 0.19193,-0.0608 0.27306,-0.0884 l 0.0494,-0.19152 z m -4.46486,0.67714 c -0.0338,3.9e-4 -0.0783,0.004 -0.13335,0.013 -0.1992,0.0304 -0.30038,0.0924 -0.22509,0.13735 0.0377,0.0226 0.0974,0.0275 0.163,0.0174 0.0657,-0.0102 0.13702,-0.0351 0.19895,-0.0729 0.10272,-0.0626 0.098,-0.096 -0.003,-0.0948 z m 4.26449,0.10319 c -0.21254,0.0626 -0.27221,0.14365 -0.14676,0.21862 0.0245,0.0145 0.0538,0.0215 0.0846,0.0245 l 0.0621,-0.24313 z m -8.15856,0.30633 c -0.0192,-0.0113 -0.0874,0.0208 -0.21026,0.0928 -0.17006,0.0996 -0.2518,0.215 -0.18204,0.25668 0.0174,0.0105 0.0391,0.0137 0.0634,0.0101 0.0733,-0.012 0.17034,-0.0849 0.24555,-0.1909 0.0724,-0.10213 0.10239,-0.15696 0.0832,-0.16831 z m 3.47848,0.37083 c -0.0433,0.008 -0.0116,0.0576 0.0847,0.15025 0.0852,0.082 0.25505,0.1287 0.37748,0.10385 0.13371,-0.0273 0.0951,-0.09 -0.0967,-0.15736 -0.2043,-0.0717 -0.32226,-0.10502 -0.36548,-0.0967 z m -1.10281,0.19862 c 0.13767,-0.0263 0.66534,0.41813 0.60186,0.5069 -0.004,0.006 -0.0106,0.0101 -0.019,0.0117 -0.0575,0.0132 -0.20303,-0.0736 -0.34997,-0.21348 -0.16795,-0.16001 -0.27261,-0.29745 -0.23283,-0.30504 z m -7.13194,0.29279 c -0.0453,0.009 -0.11734,0.10258 -0.15946,0.20894 -0.042,0.10638 0.0131,0.17633 0.12206,0.15543 0.10913,-0.0209 0.18032,-0.11477 0.15875,-0.20894 -0.0216,-0.0942 -0.076,-0.16414 -0.12135,-0.15543 z m 9.44199,0.0278 c -0.0734,-0.004 -0.23612,0.0228 -0.42053,0.0729 -0.24583,0.0668 -0.39853,0.16815 -0.33936,0.22506 0.0262,0.0253 0.0913,0.028 0.17357,0.0161 0.24684,-0.0355 0.64911,-0.20311 0.62725,-0.2986 -0.003,-0.009 -0.0165,-0.0139 -0.0409,-0.0155 z m 22.03086,0.58557 c -0.0932,0.0479 -0.18784,0.0971 -0.27588,0.13738 -1.14176,0.52248 -1.14912,0.52406 -1.04566,0.22635 0.0664,-0.19147 0.0427,-0.18665 -0.11995,0.0232 -0.12447,0.16067 -0.45363,0.29659 -0.82199,0.37341 l 0,-6.6e-4 c -0.36839,0.0768 -0.7763,0.0945 -1.05908,0.0189 -0.29873,-0.08 -0.47481,-0.0438 -0.62444,0.12835 -0.14372,0.16525 -0.25907,0.19158 -0.37112,0.0838 -0.0894,-0.0859 -0.24692,-0.14029 -0.34997,-0.1206 -0.10303,0.0197 -0.11815,0.1021 -0.0338,0.18316 0.0878,0.0844 0.019,0.12771 -0.16016,0.10125 -0.17212,-0.0255 -0.2875,-0.10953 -0.25684,-0.18701 0.0306,-0.0774 -0.0633,-0.11813 -0.20884,-0.0903 -0.14551,0.028 -0.1995,0.1131 -0.11994,0.1896 0.0795,0.0765 -0.054,0.0863 -0.29707,0.0213 -0.24301,-0.0651 -0.45743,-0.18558 -0.47624,-0.26763 -0.0189,-0.082 -0.19305,-0.0771 -0.38666,0.011 -0.22482,0.10236 -0.41711,0.0668 -0.53342,-0.098 -0.14784,-0.20952 -0.22607,-0.20774 -0.41346,0.008 -0.18545,0.2132 -0.28375,0.22435 -0.50167,0.056 -0.25536,-0.19716 -0.59147,-0.23109 -1.38433,-0.13801 -0.20939,0.0246 -0.32027,-0.0602 -0.29142,-0.22378 0.04,-0.2264 0.009,-0.22143 -0.21942,0.0354 -0.23609,0.2661 -0.25899,0.26 -0.20674,-0.0502 0.0497,-0.29549 0.0227,-0.3073 -0.17497,-0.0799 -0.24023,0.27625 -0.92001,0.29448 -0.81212,0.022 0.0295,-0.0748 -0.12679,-0.0889 -0.35349,-0.0432 l 0.4699,1.88571 c 0.14038,-0.0467 0.25629,-0.0731 0.29988,-0.0471 0.0639,0.0382 -0.0264,0.24012 -0.19827,0.4553 l 0.0389,0.15542 0.14251,-0.10064 c 0.67204,-0.47407 0.98629,-0.54159 0.92573,-0.19863 -0.0341,0.19326 0.0877,0.23041 0.45086,0.13737 0.27687,-0.0709 0.49911,-0.0407 0.50237,0.0684 0.003,0.11669 0.18402,0.12789 0.44662,0.0278 0.24242,-0.0924 0.45648,-0.10155 0.47555,-0.02 0.0192,0.0815 0.34592,0.10441 0.72605,0.0502 0.38012,-0.0541 0.77427,-0.0188 0.87562,0.0787 0.10136,0.0975 0.26065,0.11029 0.35419,0.029 0.0935,-0.0813 0.24551,-0.0748 0.33797,0.0142 0.0924,0.0889 0.27406,0.0989 0.40359,0.0226 0.12953,-0.0764 0.29895,-0.0774 0.37677,-0.003 0.0778,0.0749 0.25602,0.069 0.39512,-0.013 0.17458,-0.10293 0.27909,-0.0339 0.33797,0.22313 0.0444,0.19434 0.0371,0.28804 -0.0663,0.32052 -0.0621,0.0196 -0.15913,0.0172 -0.30059,0.002 -0.24843,-0.028 -0.642,-0.0185 -0.87492,0.0213 -0.23289,0.0397 -0.43536,0.0193 -0.45014,-0.0452 -0.0146,-0.0644 -0.23603,-0.0395 -0.49178,0.0555 -0.29194,0.10839 -0.43566,0.0985 -0.38597,-0.0271 0.10075,-0.25451 -0.067,-0.22211 -0.47626,0.0916 -0.25745,0.19734 -0.33505,0.19037 -0.38665,-0.0348 -0.0487,-0.21282 -0.1701,-0.23503 -0.49743,-0.0897 -0.23808,0.10575 -0.49823,0.1295 -0.57856,0.0523 -0.0802,-0.0772 -0.30667,-0.0794 -0.50238,-0.004 -0.19569,0.0749 -0.37266,0.0636 -0.39299,-0.0253 -0.0204,-0.0888 -0.2476,-0.12089 -0.5052,-0.0715 -0.25761,0.0493 -0.46283,0.0162 -0.45652,-0.0736 0.009,-0.1299 -0.1438,-0.19029 -0.29563,-0.12898 l 0.54119,2.17011 c 0.10085,0.0208 0.19857,0.0465 0.278,0.0806 0.23169,0.10004 0.5787,0.1523 0.77118,0.11546 0.20817,-0.0398 0.31572,0.0196 0.26529,0.14703 -0.057,0.14409 0.0363,0.15094 0.28647,0.022 0.20443,-0.10543 0.38806,-0.12102 0.40782,-0.0349 0.0453,0.19719 0.74886,0.12342 3.31762,-0.34954 1.83796,-0.33841 1.987,-0.34323 1.5071,-0.0471 -0.34555,0.21323 -1.27459,0.47306 -2.19363,0.65909 -0.91904,0.18602 -1.82822,0.29764 -2.13296,0.21605 -0.30927,-0.0828 -0.40707,-0.0692 -0.29352,0.04 0.18575,0.17863 -0.0676,0.2854 -0.31961,0.13479 -0.0856,-0.0511 -0.30466,-0.0793 -0.48685,-0.0626 -0.18221,0.0167 -0.50663,1e-4 -0.7211,-0.0375 -0.30051,-0.0526 -0.34596,-0.0187 -0.19614,0.14833 0.1069,0.11913 0.003,0.087 -0.23285,-0.0722 -0.006,-0.004 -0.0143,-0.007 -0.0212,-0.0117 l 0.69147,2.7731 6.62745,0 1.80698,-6.02987 c -0.10172,0.0153 -0.22987,0.0293 -0.41913,0.038 -0.42578,0.0194 -1.17475,0.11114 -1.66444,0.20378 -0.66555,0.12593 -0.9057,0.10367 -0.94969,-0.0884 -0.0714,-0.31164 0.54844,-0.42937 2.02922,-0.385 0.49453,0.0148 0.85237,0.0519 1.04566,0.0941 l 0.85446,-2.85112 z m -26.41105,0.27344 c -0.0668,0.007 -0.15453,0.0215 -0.26459,0.0426 -0.44024,0.0842 -0.50698,0.13719 -0.26106,0.20766 0.0955,0.0274 0.20538,0.0291 0.31043,0.009 0.10507,-0.0201 0.20535,-0.0624 0.28083,-0.12251 0.14574,-0.11605 0.13473,-0.15824 -0.0657,-0.13673 z m -4.84519,0.16445 c -0.0414,0.006 -0.0985,0.0204 -0.17357,0.0406 -0.0327,0.009 -0.0555,0.0138 -0.0861,0.022 l 0.0557,0.19024 c 0.0622,-0.028 0.1181,-0.0587 0.15664,-0.0935 0.14773,-0.1333 0.17124,-0.17889 0.0472,-0.1593 z m 5.59168,0.0779 c -0.0959,0.0187 -0.23005,0.11555 -0.3408,0.25475 -0.14767,0.18556 -0.35431,0.30923 -0.45862,0.27472 -0.10431,-0.0344 -0.16407,0.0492 -0.13265,0.18639 0.0369,0.16135 0.0829,0.23449 0.18628,0.20508 0.10342,-0.0293 0.26418,-0.16147 0.53412,-0.41016 0.24495,-0.2257 0.37716,-0.45199 0.2928,-0.50239 -0.0211,-0.0126 -0.0492,-0.0145 -0.0813,-0.009 z m -2.55066,0.0567 c 0.0226,0.009 0.0423,0.0371 0.0529,0.0832 0.0211,0.0921 0.24858,0.30294 0.50591,0.46885 0.25728,0.16593 0.39014,0.31714 0.29492,0.33535 -0.0952,0.0182 -0.36151,-0.13932 -0.59198,-0.34953 -0.23046,-0.21021 -0.38097,-0.43633 -0.33374,-0.50239 0.0236,-0.033 0.0493,-0.044 0.0719,-0.0354 z m -0.3422,0.45143 c 0.0571,-0.008 0.14649,0.0358 0.2279,0.11737 0.10857,0.10866 0.35864,0.34783 0.5553,0.53142 0.23384,0.21829 0.30719,0.32954 0.26528,0.34307 -0.0539,0.0173 -0.29864,-0.12729 -0.64066,-0.41595 -0.29032,-0.24505 -0.49373,-0.49278 -0.45227,-0.55075 0.0104,-0.0145 0.0254,-0.0227 0.0444,-0.0253 z m 0.16087,0.82548 c 0.11266,0.0175 0.52417,0.29977 1.07883,0.76357 0.17374,0.1453 0.26066,0.21833 0.2399,0.22249 -0.0207,0.004 -0.14917,-0.06 -0.40571,-0.1883 -0.28253,-0.14145 -0.62408,-0.37766 -0.7592,-0.52496 -0.1817,-0.19805 -0.22141,-0.2833 -0.15382,-0.2728 z m 3.74379,0.011 c 0.0545,0.005 0.10597,0.0657 0.1277,0.16059 0.0752,0.3282 -0.55802,0.84091 -1.40197,1.13503 -0.71403,0.24884 -0.7165,0.25304 -0.16299,0.28762 0.43565,0.0273 0.66819,-0.0742 1.03649,-0.45206 0.26111,-0.26792 0.53881,-0.44851 0.61807,-0.40115 0.22396,0.13381 -0.0908,0.73894 -0.41841,0.8042 -0.16119,0.0321 -0.3421,0.12756 -0.40216,0.21154 -0.0784,0.10962 -0.27617,0.18802 -0.45933,0.2154 -0.18316,0.0274 -0.35228,0.003 -0.37396,-0.0909 -0.0346,-0.15126 -0.7198,-0.2934 -1.12892,-0.2341 -0.1041,0.0151 -0.20835,-0.0492 -0.23142,-0.14318 -0.0231,-0.0939 -0.14414,-0.27171 -0.26884,-0.39532 -0.12467,-0.1236 0.0361,-0.0835 0.35775,0.0896 l 0.58492,0.31471 0.96945,-0.70101 c 0.53304,-0.38584 1.0272,-0.73971 1.09858,-0.78614 0.0179,-0.0117 0.0368,-0.0164 0.0551,-0.0148 z m 0.56374,1.49102 c 0.11066,-0.003 0.0638,0.0615 -0.12983,0.26507 -0.35785,0.37626 0.0556,0.46739 0.62869,0.13865 0.22756,-0.13052 0.4041,-0.15702 0.42545,-0.0639 0.0373,0.16291 -0.69529,0.47684 -1.11551,0.54302 -0.14009,0.0221 -0.24543,0.0167 -0.27588,-0.0309 -0.0529,-0.0829 -0.40481,-0.0626 -0.78178,0.0453 -0.51836,0.14811 -0.62731,0.13849 -0.44592,-0.038 0.13193,-0.12839 0.42438,-0.27014 0.64983,-0.31471 0.22544,-0.0446 0.44474,-0.16771 0.48685,-0.2741 0.0421,-0.10636 0.21947,-0.21856 0.39441,-0.24891 0.0723,-0.0126 0.1268,-0.0205 0.16369,-0.0214 z m -2.92883,0.37727 c 0.0515,-0.0108 0.21625,0.0412 0.48684,0.15801 0.23171,0.10004 0.32718,0.20243 0.21167,0.22765 -0.1155,0.0254 -0.34171,-0.0497 -0.50236,-0.16639 -0.18545,-0.13474 -0.24756,-0.20844 -0.19615,-0.21927 z m -1.90435,0.86547 -0.41841,0.30827 c -0.23005,0.16956 -0.53716,0.30889 -0.68229,0.30955 -0.0529,2.1e-4 -0.0869,0.0125 -0.11148,0.029 l 0.0459,0.1567 c 0.0723,0.063 0.13792,0.10146 0.20815,0.098 0.13503,-0.006 0.29143,-0.14677 0.5694,-0.46174 l 0.38876,-0.43983 z m 3.33384,0.46755 c -0.33559,0.0601 -0.80509,0.44742 -0.65265,0.5385 0.0147,0.009 0.0403,0.009 0.0741,-6.5e-4 l 0,-6.7e-4 c 0.10146,-0.0267 0.2759,-0.12655 0.44662,-0.26118 0.23993,-0.18922 0.29533,-0.3052 0.13193,-0.27601 z m -2.37566,0.80549 c -0.0196,-0.003 -0.0706,0.0411 -0.15876,0.13351 -0.12509,0.13095 -0.54788,0.27847 -0.93983,0.32824 -0.39194,0.0499 -0.69644,0.16181 -0.67664,0.24829 0.0367,0.16051 0.57441,0.13554 1.2919,-0.0601 0.22019,-0.0601 0.46617,-0.046 0.54682,0.0315 0.19343,0.18601 -0.62455,1.06962 -0.94617,1.02218 -0.13751,-0.0203 -0.27218,0.0884 -0.29917,0.24121 -0.0382,0.21634 0.0377,0.23334 0.3436,0.0774 0.21612,-0.11018 0.53532,-0.33682 0.70911,-0.50432 0.1738,-0.16748 0.57215,-0.3515 0.88479,-0.40822 l 0.568,-0.1032 -0.40076,0.47337 c -0.22068,0.26034 -0.53944,0.59762 -0.7084,0.74938 -0.16896,0.15175 -0.0198,0.10358 0.33162,-0.1077 0.71873,-0.43197 1.56984,-0.64625 1.62423,-0.40888 0.0197,0.0863 -0.0606,0.21614 -0.17851,0.28828 -0.11793,0.0721 0.10295,0.0763 0.49108,0.0102 0.82986,-0.14224 0.97448,0.0805 0.30199,0.46497 -0.39557,0.22612 -0.32956,0.2272 0.39229,0.005 0.72363,-0.2226 0.87855,-0.2207 0.93208,0.013 0.0423,0.18466 0.22396,0.24997 0.53269,0.19089 0.53499,-0.1024 0.69549,0.15532 0.23143,0.37147 -0.17008,0.0792 -0.0552,0.0982 0.25472,0.0426 0.30994,-0.0556 0.87468,-0.0861 1.25521,-0.0683 0.11777,0.006 0.19881,0.0119 0.27518,0.0188 l 0.32949,-1.28336 c -0.0879,-0.0286 -0.16657,-0.056 -0.22013,-0.08 -0.69125,-0.30896 -4.88011,-1.52245 -5.46326,-1.5826 -0.37755,-0.039 -0.85523,0.0163 -1.06119,0.12254 -0.28672,0.14787 -0.35092,0.132 -0.27446,-0.0684 0.0388,-0.10147 0.0505,-0.15371 0.031,-0.15736 z m -1.19101,1.1273 -0.41135,0.19477 0.0543,0.18573 0.35703,-0.3805 z m -0.22015,0.85192 0.3415,1.1718 3.23083,0 c -0.15255,-0.0265 -0.26333,-0.066 -0.27376,-0.11158 -0.0174,-0.0758 -0.23052,-0.14635 -0.47345,-0.15735 -0.43744,-0.0197 -0.43861,-0.0234 -0.13195,-0.36308 0.30564,-0.33856 0.30499,-0.33969 -0.0423,-0.0961 -0.3351,0.23503 -1.17042,0.30762 -1.42103,0.12384 -0.0646,-0.0474 -0.37565,-0.13584 -0.69146,-0.19671 -0.3158,-0.0608 -0.54013,-0.1962 -0.49885,-0.30052 0.0159,-0.0404 -0.004,-0.06 -0.0395,-0.0703 z m 8.87119,1.32012 -0.20956,0.0401 c 0.0742,-0.0164 0.14205,-0.0288 0.20956,-0.0401 z"
         id="text6264-77-5-0"
         inkscape:connector-curvature="0" />
      <g
         id="g6215-70-2-3"
         transform="translate(-4,0)">
        <g
           id="g6259-5-6-6"
           transform="translate(-2,0)">
          <text
             xml:space="preserve"
             style="font-style:normal;font-weight:normal;font-size:40px;line-height:125%;font-family:sans-serif;letter-spacing:0px;word-spacing:0px;fill:#ffffff;fill-opacity:1;stroke:none;stroke-width:1px;stroke-linecap:butt;stroke-linejoin:miter;stroke-opacity:1"
             x="344.6087"
             y="124.36221"
             id="text6211-3-0-1"
             sodipodi:linespacing="125%"><tspan
               sodipodi:role="line"
               id="tspan6213-6-7-8"
               x="344.6087"
               y="124.36221"
               style="font-style:normal;font-variant:normal;font-weight:normal;font-stretch:normal;font-family:Gnuolane;-inkscape-font-specification:Gnuolane">alkland</tspan></text>
        </g>
      </g>
    </g>
  </g>
</svg>
